<svg width="46" height="45" viewBox="0 0 46 45" fill="none" xmlns="http://www.w3.org/2000/svg">
<path d="M43.025 21.9959C43.025 32.7754 34.2844 41.5159 23.505 41.5159C20.3233 41.5159 17.3153 40.7571 14.6639 39.4039C13.8593 38.9925 13.1004 38.5354 12.369 38.0234C12.0947 37.8314 11.8296 37.6394 11.5736 37.4382C10.8879 36.9079 10.2387 36.3319 9.62614 35.7102C9.45243 35.5365 9.27871 35.3537 9.11414 35.1708C7.92557 33.8725 6.91071 32.4097 6.10614 30.8279C4.753 28.1765 3.99414 25.1685 3.99414 21.9868C3.99414 11.2074 12.7347 2.4668 23.5141 2.4668C26.6959 2.4668 29.7039 3.22565 32.3553 4.5788C33.937 5.38337 35.3999 6.39823 36.6981 7.5868C36.881 7.75137 37.0639 7.92508 37.2376 8.0988C37.8593 8.71137 38.4353 9.36051 38.9656 10.0462C39.1667 10.3022 39.3587 10.5674 39.5507 10.8417C40.0627 11.5731 40.5199 12.3411 40.9313 13.1457C42.257 15.8154 43.025 18.8142 43.025 21.9959Z" fill="#FFCC0C" stroke="white" stroke-miterlimit="10"/>
<path d="M24.1721 36.4418C32.5794 36.4418 39.3949 29.6263 39.3949 21.219C39.3949 12.8116 32.5794 5.99609 24.1721 5.99609C15.7647 5.99609 8.94922 12.8116 8.94922 21.219C8.94922 29.6263 15.7647 36.4418 24.1721 36.4418Z" fill="white"/>
<path opacity="0.25" d="M22.8283 37.7856C31.2357 37.7856 38.0512 30.9701 38.0512 22.5627C38.0512 14.1553 31.2357 7.33984 22.8283 7.33984C14.421 7.33984 7.60547 14.1553 7.60547 22.5627C7.60547 30.9701 14.421 37.7856 22.8283 37.7856Z" fill="black"/>
<path d="M38.7827 21.9958C38.7827 30.4347 31.9438 37.2827 23.4958 37.2827C21.009 37.2827 18.6501 36.6884 16.5747 35.6278C15.9438 35.3078 15.3496 34.9513 14.7736 34.549C14.5633 34.4027 14.353 34.2473 14.1518 34.0918C13.6124 33.6713 13.1004 33.2233 12.625 32.7387C12.4878 32.6016 12.3507 32.4553 12.2227 32.3181C11.2901 31.3033 10.4947 30.1604 9.86384 28.917C8.80327 26.8416 8.20898 24.4918 8.20898 21.9958C8.20898 13.557 15.0478 6.70898 23.4958 6.70898C25.9827 6.70898 28.3416 7.30327 30.417 8.36384C31.6604 8.9947 32.8033 9.79013 33.8181 10.7227C33.9644 10.8507 34.1016 10.9878 34.2387 11.125C34.7233 11.6004 35.1713 12.1124 35.5918 12.6518C35.7473 12.853 35.9027 13.0633 36.049 13.2736C36.4513 13.8496 36.8078 14.4438 37.1278 15.0747C38.1884 17.1593 38.7827 19.509 38.7827 21.9958Z" fill="#FFCC0C"/>
<path opacity="0.25" d="M12.5 15.0071V15.5311H12.9673C13.2789 15.5311 13.5763 15.609 13.8666 15.7647C14.072 15.8851 14.1994 16.0197 14.2702 16.1825C14.3057 16.2675 14.334 16.3879 14.3552 16.5507C14.3835 16.7915 14.3977 17.1101 14.3977 17.5138V26.0747C14.3977 26.4429 14.3835 26.7474 14.3481 26.9881C14.3057 27.2714 14.249 27.4696 14.164 27.5759C13.9728 27.8237 13.6825 27.9795 13.3002 28.029C13.1939 28.0432 13.0877 28.0503 12.9673 28.0503H12.5V28.7371H18.179V28.0503H17.6975C17.3859 28.0503 17.0885 27.9724 16.8052 27.8166C16.699 27.76 16.6141 27.6962 16.5432 27.6254C16.4724 27.5546 16.4229 27.4838 16.3945 27.3988C16.3096 27.1864 16.2671 26.7403 16.2671 26.0676V17.5138C16.2671 16.7207 16.345 16.2179 16.5078 16.0055C16.7557 15.6869 17.1522 15.524 17.6904 15.524H18.1719V15H12.5V15.0071Z" fill="black"/>
<path d="M17.0032 17.5138C17.0032 16.7207 17.0811 16.2179 17.244 16.0055C17.4918 15.6869 17.8884 15.524 18.4265 15.524H18.908V15H12.8184V15.524H13.6964C14.008 15.524 14.3054 15.6019 14.5957 15.7577C14.7161 15.8285 14.8152 15.9064 14.8931 15.9984C14.9356 16.0551 14.971 16.1117 14.9993 16.1754C15.0843 16.3879 15.1268 16.834 15.1268 17.5067V26.0676C15.1268 26.1101 15.1268 26.1526 15.1268 26.1951C15.1197 26.9173 15.0418 27.3776 14.8931 27.5688C14.6594 27.8662 14.008 28.029 13.4769 28.0432C13.4415 28.0432 13.4061 28.0432 13.3707 28.0432H12.9033V28.7301H18.908V28.0432H18.4265C18.115 28.0432 17.8175 27.9653 17.5343 27.8095C17.329 27.6892 17.1873 27.5546 17.1236 27.3918C17.0953 27.3209 17.074 27.2218 17.0528 27.1014C17.0174 26.8536 16.9962 26.5066 16.9962 26.0605V17.5138H17.0032Z" fill="white"/>
<path d="M16.6777 17.514C16.6777 16.7209 16.7556 16.2182 16.9185 16.0057C17.1663 15.6871 17.5629 15.5242 18.101 15.5242H18.5825V15.1631H12.9036V15.5242H13.3709C13.6825 15.5242 13.9799 15.6021 14.2702 15.7579C14.4755 15.8783 14.603 16.0128 14.6738 16.1757C14.6809 16.1827 14.6809 16.1969 14.688 16.204C14.7659 16.4306 14.8013 16.8625 14.8013 17.4998V26.0607C14.8013 26.2307 14.8013 26.3865 14.7871 26.5281C14.7588 27.0592 14.688 27.4061 14.5605 27.569C14.3268 27.8664 13.9657 28.0293 13.47 28.0434C13.4346 28.0434 13.3992 28.0434 13.3638 28.0434H12.8965V28.4046H18.5754V28.0434H18.0939C17.7824 28.0434 17.485 27.9655 17.2017 27.8098C16.9964 27.6894 16.8548 27.5548 16.791 27.392C16.791 27.3849 16.784 27.3778 16.784 27.3707C16.7061 27.1512 16.6636 26.7122 16.6636 26.0678V17.514H16.6777Z" fill="#FFCC0C"/>
<path opacity="0.25" d="M20.2451 15.0071V15.5311H20.7125C21.024 15.5311 21.3214 15.609 21.6117 15.7647C21.8171 15.8851 21.9446 16.0197 22.0154 16.1825C22.0508 16.2675 22.0791 16.3879 22.1003 16.5507C22.1287 16.7915 22.1428 17.1101 22.1428 17.5138V26.0747C22.1428 26.4429 22.1287 26.7474 22.0933 26.9881C22.0508 27.2714 21.9941 27.4696 21.9092 27.5759C21.718 27.8237 21.4276 27.9795 21.0453 28.029C20.9391 28.0432 20.8328 28.0503 20.7125 28.0503H20.2451V28.7371H25.9241V28.0503H25.4426C25.131 28.0503 24.8336 27.9724 24.5504 27.8166C24.4441 27.76 24.3592 27.6962 24.2884 27.6254C24.2176 27.5546 24.168 27.4838 24.1397 27.3988C24.0547 27.1864 24.0122 26.7403 24.0122 26.0676V17.5138C24.0122 16.7207 24.0901 16.2179 24.253 16.0055C24.5008 15.6869 24.8973 15.524 25.4355 15.524H25.917V15H20.2451V15.0071Z" fill="black"/>
<path d="M24.7483 17.5138C24.7483 16.7207 24.8262 16.2179 24.9891 16.0055C25.2369 15.6869 25.6335 15.524 26.1716 15.524H26.6531V15H20.5635V15.524H21.4415C21.7531 15.524 22.0505 15.6019 22.3408 15.7577C22.4612 15.8285 22.5603 15.9064 22.6382 15.9984C22.6807 16.0551 22.7161 16.1117 22.7444 16.1754C22.8294 16.3879 22.8719 16.834 22.8719 17.5067V26.0676C22.8719 26.1101 22.8719 26.1526 22.8719 26.1951C22.8648 26.9173 22.7869 27.3776 22.6382 27.5688C22.4045 27.8662 21.7531 28.029 21.222 28.0432C21.1866 28.0432 21.1512 28.0432 21.1158 28.0432H20.6484V28.7301H26.6531V28.0432H26.1716C25.8601 28.0432 25.5627 27.9653 25.2794 27.8095C25.0741 27.6892 24.9325 27.5546 24.8687 27.3918C24.8404 27.3209 24.8192 27.2218 24.7979 27.1014C24.7625 26.8536 24.7413 26.5066 24.7413 26.0605V17.5138H24.7483Z" fill="white"/>
<path d="M24.4229 17.514C24.4229 16.7209 24.5007 16.2182 24.6636 16.0057C24.9114 15.6871 25.308 15.5242 25.8461 15.5242H26.3276V15.1631H20.6487V15.5242H21.116C21.4276 15.5242 21.725 15.6021 22.0153 15.7579C22.2207 15.8783 22.3481 16.0128 22.4189 16.1757C22.426 16.1827 22.426 16.1969 22.4331 16.204C22.511 16.4306 22.5464 16.8625 22.5464 17.4998V26.0607C22.5464 26.2307 22.5464 26.3865 22.5322 26.5281C22.5039 27.0592 22.4331 27.4061 22.3056 27.569C22.072 27.8664 21.7108 28.0293 21.2152 28.0434C21.1798 28.0434 21.1444 28.0434 21.1089 28.0434H20.6416V28.4046H26.3206V28.0434H25.8391C25.5275 28.0434 25.2301 27.9655 24.9469 27.8098C24.7415 27.6894 24.5999 27.5548 24.5362 27.392C24.5362 27.3849 24.5291 27.3778 24.5291 27.3707C24.4512 27.1512 24.4087 26.7122 24.4087 26.0678V17.514H24.4229Z" fill="#FFCC0C"/>
<path opacity="0.25" d="M27.9893 15.0071V15.5311H28.4566C28.7682 15.5311 29.0656 15.609 29.3559 15.7647C29.5612 15.8851 29.6887 16.0197 29.7595 16.1825C29.7949 16.2675 29.8232 16.3879 29.8445 16.5507C29.8728 16.7915 29.887 17.1101 29.887 17.5138V26.0747C29.887 26.4429 29.8728 26.7474 29.8374 26.9881C29.7949 27.2714 29.7383 27.4696 29.6533 27.5759C29.4621 27.8237 29.1718 27.9795 28.7894 28.029C28.6832 28.0432 28.577 28.0503 28.4566 28.0503H27.9893V28.7371H33.6682V28.0503H33.1867C32.8751 28.0503 32.5777 27.9724 32.2945 27.8166C32.1883 27.76 32.1033 27.6962 32.0325 27.6254C31.9617 27.5546 31.9121 27.4838 31.8838 27.3988C31.7988 27.1864 31.7563 26.7403 31.7563 26.0676V17.5138C31.7563 16.7207 31.8342 16.2179 31.9971 16.0055C32.2449 15.6869 32.6415 15.524 33.1796 15.524H33.6611V15H27.9893V15.0071Z" fill="black"/>
<path d="M32.4925 17.5138C32.4925 16.7207 32.5704 16.2179 32.7332 16.0055C32.9811 15.6869 33.3776 15.524 33.9158 15.524H34.3973V15H28.3076V15.524H29.1857C29.4972 15.524 29.7946 15.6019 30.0849 15.7577C30.2053 15.8285 30.3045 15.9064 30.3824 15.9984C30.4248 16.0551 30.4602 16.1117 30.4886 16.1754C30.5735 16.3879 30.616 16.834 30.616 17.5067V26.0676C30.616 26.1101 30.616 26.1526 30.616 26.1951C30.6089 26.9173 30.5311 27.3776 30.3824 27.5688C30.1487 27.8662 29.4972 28.029 28.9662 28.0432C28.9307 28.0432 28.8953 28.0432 28.8599 28.0432H28.3926V28.7301H34.3973V28.0432H33.9158C33.6042 28.0432 33.3068 27.9653 33.0236 27.8095C32.8182 27.6892 32.6766 27.5546 32.6129 27.3918C32.5845 27.3209 32.5633 27.2218 32.5421 27.1014C32.5067 26.8536 32.4854 26.5066 32.4854 26.0605V17.5138H32.4925Z" fill="white"/>
<path d="M32.167 17.514C32.167 16.7209 32.2449 16.2182 32.4078 16.0057C32.6556 15.6871 33.0521 15.5242 33.5903 15.5242H34.0718V15.1631H28.3928V15.5242H28.8602C29.1717 15.5242 29.4691 15.6021 29.7595 15.7579C29.9648 15.8783 30.0923 16.0128 30.1631 16.1757C30.1702 16.1827 30.1702 16.1969 30.1772 16.204C30.2551 16.4306 30.2905 16.8625 30.2905 17.4998V26.0607C30.2905 26.2307 30.2905 26.3865 30.2764 26.5281C30.248 27.0592 30.1772 27.4061 30.0498 27.569C29.8161 27.8664 29.455 28.0293 28.9593 28.0434C28.9239 28.0434 28.8885 28.0434 28.8531 28.0434H28.3857V28.4046H34.0647V28.0434H33.5832C33.2716 28.0434 32.9742 27.9655 32.691 27.8098C32.4856 27.6894 32.344 27.5548 32.2803 27.392C32.2803 27.3849 32.2732 27.3778 32.2732 27.3707C32.1953 27.1512 32.1528 26.7122 32.1528 26.0678V17.514H32.167Z" fill="#FFCC0C"/>
<path opacity="0.15" d="M34.7512 10.6584L32.438 12.9715L31.7066 13.703L31.094 14.3155L28.6712 16.6927L27.7203 17.6435L26.2483 19.1155L25.2975 20.0664L16.4106 28.9532L15.7066 29.6572L12.6346 32.7292C11.3363 31.4401 10.4403 29.959 9.63574 28.3772L30.4083 7.65039C31.99 8.45496 33.4529 9.46982 34.7512 10.6584Z" fill="white"/>
<path opacity="0.15" d="M36.7805 13.2648L34.4308 15.6145L33.7085 16.3368L33.0776 16.9677L28.7714 21.274L28.3508 21.6945L27.8205 22.2248L26.3576 23.6968L25.4068 24.6477L19.0251 31.0294L18.2936 31.7608L17.6811 32.3734L15.2216 34.8328C14.5176 34.3574 13.7405 33.8362 13.1279 33.2145L16.3096 30.0694L17.0319 29.3471L25.4068 20.9722L26.3576 20.0214L27.8296 18.5494L28.7805 17.5985L31.3954 14.9745L35.0525 11.3174C35.6742 11.9208 36.2502 12.5791 36.7805 13.2648Z" fill="white"/>
<path opacity="0.15" d="M38.4173 16.6475L35.8756 19.1892L35.1716 19.8932L34.5316 20.5332L29.3751 25.7721L29.0368 26.1103L28.7168 26.4303L27.7019 27.4452L27.2813 27.8658L22.8471 32.3L22.0973 33.0498L21.5031 33.6441L18.7511 36.4966C17.9465 36.2132 16.9956 35.8749 16.2002 35.3995L19.0436 32.428L19.6562 31.8155L24.5019 26.9698L24.5293 26.9423L25.8825 25.5892L26.4585 25.0132L26.8973 24.5743L28.3693 23.1023L29.3202 22.1515L33.3339 18.0555L37.0642 14.3252C37.5488 15.0841 38.0151 15.8521 38.4173 16.6475Z" fill="white"/>
<path opacity="0.15" d="M8.69348 28.25C9.34262 29.8774 10.2935 31.4043 11.5186 32.7757L9.45234 34.842C8.26376 33.5437 7.24891 32.0809 6.44434 30.4991L8.69348 28.25Z" fill="white"/>
<path opacity="0.15" d="M12.0399 33.3151C12.6525 33.9277 13.3473 34.5037 14.0331 34.9974L11.9211 37.1094C11.2353 36.5791 10.5862 36.0031 9.97363 35.3814L12.0399 33.3151C12.0491 33.3243 12.0308 33.306 12.0399 33.3151Z" fill="white"/>
<path opacity="0.15" d="M14.9469 35.5918C15.6601 36.0124 16.3549 36.4055 17.1229 36.6889L14.7824 38.9381C14.0601 38.5815 13.3927 38.1609 12.7344 37.7129L14.9469 35.5918Z" fill="white"/>
<path opacity="0.15" d="M29.4023 6.85559C31.0298 7.50473 32.5566 8.45559 33.9281 9.68073L35.9944 7.61445C34.6961 6.42587 33.2332 5.41102 31.6515 4.60645L29.4023 6.85559Z" fill="white"/>
<path opacity="0.15" d="M34.4762 10.202C35.0887 10.8146 35.6647 11.5095 36.1584 12.1952L38.2704 10.0832C37.7402 9.39746 37.1642 8.74831 36.5424 8.13574L34.4762 10.202C34.4853 10.202 34.4579 10.1929 34.4762 10.202Z" fill="white"/>
<path opacity="0.15" d="M36.7441 13.1091C37.1647 13.8222 37.5579 14.5171 37.8413 15.2851L40.0904 12.9445C39.7339 12.2222 39.3133 11.5548 38.8653 10.8965L36.7441 13.1091Z" fill="white"/>
<mask id="mask0" mask-type="alpha" maskUnits="userSpaceOnUse" x="0" y="0" width="40" height="45">
<path d="M0.5 0H23.5V23L40 44.5H0.5V0Z" fill="#C4C4C4"/>
</mask>
<g mask="url(#mask0)">
<path d="M43.025 21.9959C43.025 32.7754 34.2844 41.5159 23.505 41.5159C20.3233 41.5159 17.3153 40.7571 14.6639 39.4039C13.8593 38.9925 13.1004 38.5354 12.369 38.0234C12.0947 37.8314 11.8296 37.6394 11.5736 37.4382C10.8879 36.9079 10.2387 36.3319 9.62614 35.7102C9.45243 35.5365 9.27871 35.3537 9.11414 35.1708C7.92557 33.8725 6.91071 32.4097 6.10614 30.8279C4.753 28.1765 3.99414 25.1685 3.99414 21.9868C3.99414 11.2074 12.7347 2.4668 23.5141 2.4668C26.6959 2.4668 29.7039 3.22565 32.3553 4.5788C33.937 5.38337 35.3999 6.39823 36.6981 7.5868C36.881 7.75137 37.0639 7.92508 37.2376 8.0988C37.8593 8.71137 38.4353 9.36051 38.9656 10.0462C39.1667 10.3022 39.3587 10.5674 39.5507 10.8417C40.0627 11.5731 40.5199 12.3411 40.9313 13.1457C42.257 15.8154 43.025 18.8142 43.025 21.9959Z" fill="#F2F2F2" stroke="white" stroke-miterlimit="10"/>
<path d="M24.1721 36.4418C32.5794 36.4418 39.3949 29.6263 39.3949 21.219C39.3949 12.8116 32.5794 5.99609 24.1721 5.99609C15.7647 5.99609 8.94922 12.8116 8.94922 21.219C8.94922 29.6263 15.7647 36.4418 24.1721 36.4418Z" fill="white"/>
<path opacity="0.25" d="M22.8283 37.7856C31.2357 37.7856 38.0512 30.9701 38.0512 22.5627C38.0512 14.1553 31.2357 7.33984 22.8283 7.33984C14.421 7.33984 7.60547 14.1553 7.60547 22.5627C7.60547 30.9701 14.421 37.7856 22.8283 37.7856Z" fill="black"/>
<path d="M38.7827 21.9958C38.7827 30.4347 31.9438 37.2827 23.4958 37.2827C21.009 37.2827 18.6501 36.6884 16.5747 35.6278C15.9438 35.3078 15.3496 34.9513 14.7736 34.549C14.5633 34.4027 14.353 34.2473 14.1518 34.0918C13.6124 33.6713 13.1004 33.2233 12.625 32.7387C12.4878 32.6016 12.3507 32.4553 12.2227 32.3181C11.2901 31.3033 10.4947 30.1604 9.86384 28.917C8.80327 26.8416 8.20898 24.4918 8.20898 21.9958C8.20898 13.557 15.0478 6.70898 23.4958 6.70898C25.9827 6.70898 28.3416 7.30327 30.417 8.36384C31.6604 8.9947 32.8033 9.79013 33.8181 10.7227C33.9644 10.8507 34.1016 10.9878 34.2387 11.125C34.7233 11.6004 35.1713 12.1124 35.5918 12.6518C35.7473 12.853 35.9027 13.0633 36.049 13.2736C36.4513 13.8496 36.8078 14.4438 37.1278 15.0747C38.1884 17.1593 38.7827 19.509 38.7827 21.9958Z" fill="#F2F2F2"/>
<path opacity="0.25" d="M12.5 15.0071V15.5311H12.9673C13.2789 15.5311 13.5763 15.609 13.8666 15.7647C14.072 15.8851 14.1994 16.0197 14.2702 16.1825C14.3057 16.2675 14.334 16.3879 14.3552 16.5507C14.3835 16.7915 14.3977 17.1101 14.3977 17.5138V26.0747C14.3977 26.4429 14.3835 26.7474 14.3481 26.9881C14.3057 27.2714 14.249 27.4696 14.164 27.5759C13.9728 27.8237 13.6825 27.9795 13.3002 28.029C13.1939 28.0432 13.0877 28.0503 12.9673 28.0503H12.5V28.7371H18.179V28.0503H17.6975C17.3859 28.0503 17.0885 27.9724 16.8052 27.8166C16.699 27.76 16.6141 27.6962 16.5432 27.6254C16.4724 27.5546 16.4229 27.4838 16.3945 27.3988C16.3096 27.1864 16.2671 26.7403 16.2671 26.0676V17.5138C16.2671 16.7207 16.345 16.2179 16.5078 16.0055C16.7557 15.6869 17.1522 15.524 17.6904 15.524H18.1719V15H12.5V15.0071Z" fill="black"/>
<path d="M17.0032 17.5138C17.0032 16.7207 17.0811 16.2179 17.244 16.0055C17.4918 15.6869 17.8884 15.524 18.4265 15.524H18.908V15H12.8184V15.524H13.6964C14.008 15.524 14.3054 15.6019 14.5957 15.7577C14.7161 15.8285 14.8152 15.9064 14.8931 15.9984C14.9356 16.0551 14.971 16.1117 14.9993 16.1754C15.0843 16.3879 15.1268 16.834 15.1268 17.5067V26.0676C15.1268 26.1101 15.1268 26.1526 15.1268 26.1951C15.1197 26.9173 15.0418 27.3776 14.8931 27.5688C14.6594 27.8662 14.008 28.029 13.4769 28.0432C13.4415 28.0432 13.4061 28.0432 13.3707 28.0432H12.9033V28.7301H18.908V28.0432H18.4265C18.115 28.0432 17.8175 27.9653 17.5343 27.8095C17.329 27.6892 17.1873 27.5546 17.1236 27.3918C17.0953 27.3209 17.074 27.2218 17.0528 27.1014C17.0174 26.8536 16.9962 26.5066 16.9962 26.0605V17.5138H17.0032Z" fill="white"/>
<path d="M16.6777 17.514C16.6777 16.7209 16.7556 16.2182 16.9185 16.0057C17.1663 15.6871 17.5629 15.5242 18.101 15.5242H18.5825V15.1631H12.9036V15.5242H13.3709C13.6825 15.5242 13.9799 15.6021 14.2702 15.7579C14.4755 15.8783 14.603 16.0128 14.6738 16.1757C14.6809 16.1827 14.6809 16.1969 14.688 16.204C14.7659 16.4306 14.8013 16.8625 14.8013 17.4998V26.0607C14.8013 26.2307 14.8013 26.3865 14.7871 26.5281C14.7588 27.0592 14.688 27.4061 14.5605 27.569C14.3268 27.8664 13.9657 28.0293 13.47 28.0434C13.4346 28.0434 13.3992 28.0434 13.3638 28.0434H12.8965V28.4046H18.5754V28.0434H18.0939C17.7824 28.0434 17.485 27.9655 17.2017 27.8098C16.9964 27.6894 16.8548 27.5548 16.791 27.392C16.791 27.3849 16.784 27.3778 16.784 27.3707C16.7061 27.1512 16.6636 26.7122 16.6636 26.0678V17.514H16.6777Z" fill="#F2F2F2"/>
<path opacity="0.25" d="M20.2451 15.0071V15.5311H20.7125C21.024 15.5311 21.3214 15.609 21.6117 15.7647C21.8171 15.8851 21.9446 16.0197 22.0154 16.1825C22.0508 16.2675 22.0791 16.3879 22.1003 16.5507C22.1287 16.7915 22.1428 17.1101 22.1428 17.5138V26.0747C22.1428 26.4429 22.1287 26.7474 22.0933 26.9881C22.0508 27.2714 21.9941 27.4696 21.9092 27.5759C21.718 27.8237 21.4276 27.9795 21.0453 28.029C20.9391 28.0432 20.8328 28.0503 20.7125 28.0503H20.2451V28.7371H25.9241V28.0503H25.4426C25.131 28.0503 24.8336 27.9724 24.5504 27.8166C24.4441 27.76 24.3592 27.6962 24.2884 27.6254C24.2176 27.5546 24.168 27.4838 24.1397 27.3988C24.0547 27.1864 24.0122 26.7403 24.0122 26.0676V17.5138C24.0122 16.7207 24.0901 16.2179 24.253 16.0055C24.5008 15.6869 24.8973 15.524 25.4355 15.524H25.917V15H20.2451V15.0071Z" fill="black"/>
<path d="M24.7483 17.5138C24.7483 16.7207 24.8262 16.2179 24.9891 16.0055C25.2369 15.6869 25.6335 15.524 26.1716 15.524H26.6531V15H20.5635V15.524H21.4415C21.7531 15.524 22.0505 15.6019 22.3408 15.7577C22.4612 15.8285 22.5603 15.9064 22.6382 15.9984C22.6807 16.0551 22.7161 16.1117 22.7444 16.1754C22.8294 16.3879 22.8719 16.834 22.8719 17.5067V26.0676C22.8719 26.1101 22.8719 26.1526 22.8719 26.1951C22.8648 26.9173 22.7869 27.3776 22.6382 27.5688C22.4045 27.8662 21.7531 28.029 21.222 28.0432C21.1866 28.0432 21.1512 28.0432 21.1158 28.0432H20.6484V28.7301H26.6531V28.0432H26.1716C25.8601 28.0432 25.5627 27.9653 25.2794 27.8095C25.0741 27.6892 24.9325 27.5546 24.8687 27.3918C24.8404 27.3209 24.8192 27.2218 24.7979 27.1014C24.7625 26.8536 24.7413 26.5066 24.7413 26.0605V17.5138H24.7483Z" fill="white"/>
<path d="M24.4229 17.514C24.4229 16.7209 24.5007 16.2182 24.6636 16.0057C24.9114 15.6871 25.308 15.5242 25.8461 15.5242H26.3276V15.1631H20.6487V15.5242H21.116C21.4276 15.5242 21.725 15.6021 22.0153 15.7579C22.2207 15.8783 22.3481 16.0128 22.4189 16.1757C22.426 16.1827 22.426 16.1969 22.4331 16.204C22.511 16.4306 22.5464 16.8625 22.5464 17.4998V26.0607C22.5464 26.2307 22.5464 26.3865 22.5322 26.5281C22.5039 27.0592 22.4331 27.4061 22.3056 27.569C22.072 27.8664 21.7108 28.0293 21.2152 28.0434C21.1798 28.0434 21.1444 28.0434 21.1089 28.0434H20.6416V28.4046H26.3206V28.0434H25.8391C25.5275 28.0434 25.2301 27.9655 24.9469 27.8098C24.7415 27.6894 24.5999 27.5548 24.5362 27.392C24.5362 27.3849 24.5291 27.3778 24.5291 27.3707C24.4512 27.1512 24.4087 26.7122 24.4087 26.0678V17.514H24.4229Z" fill="#F2F2F2"/>
<path opacity="0.25" d="M27.9893 15.0071V15.5311H28.4566C28.7682 15.5311 29.0656 15.609 29.3559 15.7647C29.5612 15.8851 29.6887 16.0197 29.7595 16.1825C29.7949 16.2675 29.8232 16.3879 29.8445 16.5507C29.8728 16.7915 29.887 17.1101 29.887 17.5138V26.0747C29.887 26.4429 29.8728 26.7474 29.8374 26.9881C29.7949 27.2714 29.7383 27.4696 29.6533 27.5759C29.4621 27.8237 29.1718 27.9795 28.7894 28.029C28.6832 28.0432 28.577 28.0503 28.4566 28.0503H27.9893V28.7371H33.6682V28.0503H33.1867C32.8751 28.0503 32.5777 27.9724 32.2945 27.8166C32.1883 27.76 32.1033 27.6962 32.0325 27.6254C31.9617 27.5546 31.9121 27.4838 31.8838 27.3988C31.7988 27.1864 31.7563 26.7403 31.7563 26.0676V17.5138C31.7563 16.7207 31.8342 16.2179 31.9971 16.0055C32.2449 15.6869 32.6415 15.524 33.1796 15.524H33.6611V15H27.9893V15.0071Z" fill="black"/>
<path d="M32.4925 17.5138C32.4925 16.7207 32.5704 16.2179 32.7332 16.0055C32.9811 15.6869 33.3776 15.524 33.9158 15.524H34.3973V15H28.3076V15.524H29.1857C29.4972 15.524 29.7946 15.6019 30.0849 15.7577C30.2053 15.8285 30.3045 15.9064 30.3824 15.9984C30.4248 16.0551 30.4602 16.1117 30.4886 16.1754C30.5735 16.3879 30.616 16.834 30.616 17.5067V26.0676C30.616 26.1101 30.616 26.1526 30.616 26.1951C30.6089 26.9173 30.5311 27.3776 30.3824 27.5688C30.1487 27.8662 29.4972 28.029 28.9662 28.0432C28.9307 28.0432 28.8953 28.0432 28.8599 28.0432H28.3926V28.7301H34.3973V28.0432H33.9158C33.6042 28.0432 33.3068 27.9653 33.0236 27.8095C32.8182 27.6892 32.6766 27.5546 32.6129 27.3918C32.5845 27.3209 32.5633 27.2218 32.5421 27.1014C32.5067 26.8536 32.4854 26.5066 32.4854 26.0605V17.5138H32.4925Z" fill="white"/>
<path d="M32.167 17.514C32.167 16.7209 32.2449 16.2182 32.4078 16.0057C32.6556 15.6871 33.0521 15.5242 33.5903 15.5242H34.0718V15.1631H28.3928V15.5242H28.8602C29.1717 15.5242 29.4691 15.6021 29.7595 15.7579C29.9648 15.8783 30.0923 16.0128 30.1631 16.1757C30.1702 16.1827 30.1702 16.1969 30.1772 16.204C30.2551 16.4306 30.2905 16.8625 30.2905 17.4998V26.0607C30.2905 26.2307 30.2905 26.3865 30.2764 26.5281C30.248 27.0592 30.1772 27.4061 30.0498 27.569C29.8161 27.8664 29.455 28.0293 28.9593 28.0434C28.9239 28.0434 28.8885 28.0434 28.8531 28.0434H28.3857V28.4046H34.0647V28.0434H33.5832C33.2716 28.0434 32.9742 27.9655 32.691 27.8098C32.4856 27.6894 32.344 27.5548 32.2803 27.392C32.2803 27.3849 32.2732 27.3778 32.2732 27.3707C32.1953 27.1512 32.1528 26.7122 32.1528 26.0678V17.514H32.167Z" fill="#F2F2F2"/>
<path opacity="0.15" d="M34.7512 10.6584L32.438 12.9715L31.7066 13.703L31.094 14.3155L28.6712 16.6927L27.7203 17.6435L26.2483 19.1155L25.2975 20.0664L16.4106 28.9532L15.7066 29.6572L12.6346 32.7292C11.3363 31.4401 10.4403 29.959 9.63574 28.3772L30.4083 7.65039C31.99 8.45496 33.4529 9.46982 34.7512 10.6584Z" fill="white"/>
<path opacity="0.15" d="M36.7805 13.2648L34.4308 15.6145L33.7085 16.3368L33.0776 16.9677L28.7714 21.274L28.3508 21.6945L27.8205 22.2248L26.3576 23.6968L25.4068 24.6477L19.0251 31.0294L18.2936 31.7608L17.6811 32.3734L15.2216 34.8328C14.5176 34.3574 13.7405 33.8362 13.1279 33.2145L16.3096 30.0694L17.0319 29.3471L25.4068 20.9722L26.3576 20.0214L27.8296 18.5494L28.7805 17.5985L31.3954 14.9745L35.0525 11.3174C35.6742 11.9208 36.2502 12.5791 36.7805 13.2648Z" fill="white"/>
<path opacity="0.15" d="M38.4173 16.6475L35.8756 19.1892L35.1716 19.8932L34.5316 20.5332L29.3751 25.7721L29.0368 26.1103L28.7168 26.4303L27.7019 27.4452L27.2813 27.8658L22.8471 32.3L22.0973 33.0498L21.5031 33.6441L18.7511 36.4966C17.9465 36.2132 16.9956 35.8749 16.2002 35.3995L19.0436 32.428L19.6562 31.8155L24.5019 26.9698L24.5293 26.9423L25.8825 25.5892L26.4585 25.0132L26.8973 24.5743L28.3693 23.1023L29.3202 22.1515L33.3339 18.0555L37.0642 14.3252C37.5488 15.0841 38.0151 15.8521 38.4173 16.6475Z" fill="white"/>
<path opacity="0.15" d="M8.69348 28.25C9.34262 29.8774 10.2935 31.4043 11.5186 32.7757L9.45234 34.842C8.26376 33.5437 7.24891 32.0809 6.44434 30.4991L8.69348 28.25Z" fill="white"/>
<path opacity="0.15" d="M12.0399 33.3151C12.6525 33.9277 13.3473 34.5037 14.0331 34.9974L11.9211 37.1094C11.2353 36.5791 10.5862 36.0031 9.97363 35.3814L12.0399 33.3151C12.0491 33.3243 12.0308 33.306 12.0399 33.3151Z" fill="white"/>
<path opacity="0.15" d="M14.9469 35.5918C15.6601 36.0124 16.3549 36.4055 17.1229 36.6889L14.7824 38.9381C14.0601 38.5815 13.3927 38.1609 12.7344 37.7129L14.9469 35.5918Z" fill="white"/>
<path opacity="0.15" d="M29.4023 6.85559C31.0298 7.50473 32.5566 8.45559 33.9281 9.68073L35.9944 7.61445C34.6961 6.42587 33.2332 5.41102 31.6515 4.60645L29.4023 6.85559Z" fill="white"/>
<path opacity="0.15" d="M34.4762 10.202C35.0887 10.8146 35.6647 11.5095 36.1584 12.1952L38.2704 10.0832C37.7402 9.39746 37.1642 8.74831 36.5424 8.13574L34.4762 10.202C34.4853 10.202 34.4579 10.1929 34.4762 10.202Z" fill="white"/>
<path opacity="0.15" d="M36.7441 13.1091C37.1647 13.8222 37.5579 14.5171 37.8413 15.2851L40.0904 12.9445C39.7339 12.2222 39.3133 11.5548 38.8653 10.8965L36.7441 13.1091Z" fill="white"/>
</g>
<path d="M43.025 21.9959C43.025 32.7754 34.2844 41.5159 23.505 41.5159C20.3233 41.5159 17.3153 40.7571 14.6639 39.4039C13.8593 38.9925 13.1004 38.5354 12.369 38.0234C12.0947 37.8314 11.8296 37.6394 11.5736 37.4382C10.8879 36.9079 10.2387 36.3319 9.62614 35.7102C9.45243 35.5365 9.27871 35.3537 9.11414 35.1708C7.92557 33.8725 6.91071 32.4097 6.10614 30.8279C4.753 28.1765 3.99414 25.1685 3.99414 21.9868C3.99414 11.2074 12.7347 2.4668 23.5141 2.4668C26.6959 2.4668 29.7039 3.22565 32.3553 4.5788C33.937 5.38337 35.3999 6.39823 36.6981 7.5868C36.881 7.75137 37.0639 7.92508 37.2376 8.0988C37.8593 8.71137 38.4353 9.36051 38.9656 10.0462C39.1667 10.3022 39.3587 10.5674 39.5507 10.8417C40.0627 11.5731 40.5199 12.3411 40.9313 13.1457C42.257 15.8154 43.025 18.8142 43.025 21.9959Z" fill="#DA9F65" stroke="white" stroke-miterlimit="10"/>
<path d="M24.1721 36.4418C32.5794 36.4418 39.3949 29.6263 39.3949 21.219C39.3949 12.8116 32.5794 5.99609 24.1721 5.99609C15.7647 5.99609 8.94922 12.8116 8.94922 21.219C8.94922 29.6263 15.7647 36.4418 24.1721 36.4418Z" fill="white"/>
<path opacity="0.25" d="M22.8283 37.7856C31.2357 37.7856 38.0512 30.9701 38.0512 22.5627C38.0512 14.1553 31.2357 7.33984 22.8283 7.33984C14.421 7.33984 7.60547 14.1553 7.60547 22.5627C7.60547 30.9701 14.421 37.7856 22.8283 37.7856Z" fill="black"/>
<path d="M38.7827 21.9958C38.7827 30.4347 31.9438 37.2827 23.4958 37.2827C21.009 37.2827 18.6501 36.6884 16.5747 35.6278C15.9438 35.3078 15.3496 34.9513 14.7736 34.549C14.5633 34.4027 14.353 34.2473 14.1518 34.0918C13.6124 33.6713 13.1004 33.2233 12.625 32.7387C12.4878 32.6016 12.3507 32.4553 12.2227 32.3181C11.2901 31.3033 10.4947 30.1604 9.86384 28.917C8.80327 26.8416 8.20898 24.4918 8.20898 21.9958C8.20898 13.557 15.0478 6.70898 23.4958 6.70898C25.9827 6.70898 28.3416 7.30327 30.417 8.36384C31.6604 8.9947 32.8033 9.79013 33.8181 10.7227C33.9644 10.8507 34.1016 10.9878 34.2387 11.125C34.7233 11.6004 35.1713 12.1124 35.5918 12.6518C35.7473 12.853 35.9027 13.0633 36.049 13.2736C36.4513 13.8496 36.8078 14.4438 37.1278 15.0747C38.1884 17.1593 38.7827 19.509 38.7827 21.9958Z" fill="#DA9F65"/>
<path opacity="0.25" d="M19.3086 13.2367V13.9133H19.912C20.3143 13.9133 20.6983 14.0138 21.0732 14.215C21.3383 14.3704 21.5029 14.5441 21.5943 14.7544C21.64 14.8641 21.6766 15.0195 21.704 15.2298C21.7406 15.5407 21.7589 15.9521 21.7589 16.4733V27.527C21.7589 28.0024 21.7406 28.3955 21.6949 28.7064C21.64 29.0721 21.5669 29.3281 21.4572 29.4653C21.2103 29.7853 20.8354 29.9864 20.3417 30.0504C20.2046 30.0687 20.0675 30.0778 19.912 30.0778H19.3086V30.9647H26.6412V30.0778H26.0194C25.6172 30.0778 25.2332 29.9773 24.8674 29.7761C24.7303 29.703 24.6206 29.6207 24.5292 29.5293C24.4377 29.4378 24.3737 29.3464 24.3372 29.2367C24.2274 28.9624 24.1726 28.3864 24.1726 27.5178V16.4733C24.1726 15.4493 24.2732 14.8001 24.4834 14.5258C24.8034 14.1144 25.3154 13.9041 26.0103 13.9041H26.632V13.2275H19.3086V13.2367Z" fill="black"/>
<path d="M25.1232 16.4733C25.1232 15.4493 25.2237 14.8001 25.434 14.5258C25.754 14.1144 26.266 13.9041 26.9609 13.9041H27.5826V13.2275H19.7197V13.9041H20.8534C21.2557 13.9041 21.6397 14.0047 22.0146 14.2058C22.17 14.2973 22.298 14.3978 22.3986 14.5167C22.4534 14.5898 22.4992 14.663 22.5357 14.7453C22.6454 15.0195 22.7003 15.5955 22.7003 16.4641V27.5178C22.7003 27.5727 22.7003 27.6275 22.7003 27.6824C22.6912 28.615 22.5906 29.2093 22.3986 29.4561C22.0969 29.8401 21.2557 30.0504 20.57 30.0687C20.5243 30.0687 20.4786 30.0687 20.4329 30.0687H19.8294V30.9555H27.5826V30.0687H26.9609C26.5586 30.0687 26.1746 29.9681 25.8089 29.767C25.5437 29.6115 25.3609 29.4378 25.2786 29.2275C25.242 29.1361 25.2146 29.0081 25.1872 28.8527C25.1414 28.5327 25.114 28.0847 25.114 27.5087V16.4733H25.1232Z" fill="white"/>
<path d="M24.7026 16.4739C24.7026 15.4499 24.8032 14.8008 25.0135 14.5265C25.3335 14.115 25.8455 13.9048 26.5403 13.9048H27.162V13.4385H19.8295V13.9048H20.4329C20.8352 13.9048 21.2192 14.0053 21.594 14.2065C21.8592 14.3619 22.0237 14.5356 22.1152 14.7459C22.1243 14.755 22.1243 14.7733 22.1335 14.7825C22.234 15.075 22.2797 15.6328 22.2797 16.4556V27.5093C22.2797 27.7288 22.2797 27.9299 22.2615 28.1128C22.2249 28.7985 22.1335 29.2465 21.9689 29.4568C21.6672 29.8408 21.2009 30.051 20.5609 30.0693C20.5152 30.0693 20.4695 30.0693 20.4237 30.0693H19.8203V30.5356H27.1529V30.0693H26.5312C26.1289 30.0693 25.7449 29.9688 25.3792 29.7676C25.114 29.6122 24.9312 29.4385 24.8489 29.2282C24.8489 29.219 24.8397 29.2099 24.8397 29.2008C24.7392 28.9173 24.6843 28.3505 24.6843 27.5185V16.4739H24.7026Z" fill="#DA9F65"/>
<path opacity="0.15" d="M34.7512 10.6584L32.438 12.9715L31.7066 13.703L31.094 14.3155L28.6712 16.6927L27.7203 17.6435L26.2483 19.1155L25.2975 20.0664L16.4106 28.9532L15.7066 29.6572L12.6346 32.7292C11.3363 31.4401 10.4403 29.959 9.63574 28.3772L30.4083 7.65039C31.99 8.45496 33.4529 9.46982 34.7512 10.6584Z" fill="white"/>
<path opacity="0.15" d="M36.7805 13.2648L34.4308 15.6145L33.7085 16.3368L33.0776 16.9677L28.7714 21.274L28.3508 21.6945L27.8205 22.2248L26.3576 23.6968L25.4068 24.6477L19.0251 31.0294L18.2936 31.7608L17.6811 32.3734L15.2216 34.8328C14.5176 34.3574 13.7405 33.8362 13.1279 33.2145L16.3096 30.0694L17.0319 29.3471L25.4068 20.9722L26.3576 20.0214L27.8296 18.5494L28.7805 17.5985L31.3954 14.9745L35.0525 11.3174C35.6742 11.9208 36.2502 12.5791 36.7805 13.2648Z" fill="white"/>
<path opacity="0.15" d="M38.4173 16.6475L35.8756 19.1892L35.1716 19.8932L34.5316 20.5332L29.3751 25.7721L29.0368 26.1103L28.7168 26.4303L27.7019 27.4452L27.2813 27.8658L22.8471 32.3L22.0973 33.0498L21.5031 33.6441L18.7511 36.4966C17.9465 36.2132 16.9956 35.8749 16.2002 35.3995L19.0436 32.428L19.6562 31.8155L24.5019 26.9698L24.5293 26.9423L25.8825 25.5892L26.4585 25.0132L26.8973 24.5743L28.3693 23.1023L29.3202 22.1515L33.3339 18.0555L37.0642 14.3252C37.5488 15.0841 38.0151 15.8521 38.4173 16.6475Z" fill="white"/>
<path opacity="0.15" d="M8.69348 28.25C9.34262 29.8774 10.2935 31.4043 11.5186 32.7757L9.45234 34.842C8.26376 33.5437 7.24891 32.0809 6.44434 30.4991L8.69348 28.25Z" fill="white"/>
<path opacity="0.15" d="M12.0399 33.3151C12.6525 33.9277 13.3473 34.5037 14.0331 34.9974L11.9211 37.1094C11.2353 36.5791 10.5862 36.0031 9.97363 35.3814L12.0399 33.3151C12.0491 33.3243 12.0308 33.306 12.0399 33.3151Z" fill="white"/>
<path opacity="0.15" d="M14.9469 35.5918C15.6601 36.0124 16.3549 36.4055 17.1229 36.6889L14.7824 38.9381C14.0601 38.5815 13.3927 38.1609 12.7344 37.7129L14.9469 35.5918Z" fill="white"/>
<path opacity="0.15" d="M29.4023 6.85559C31.0298 7.50473 32.5566 8.45559 33.9281 9.68073L35.9944 7.61445C34.6961 6.42587 33.2332 5.41102 31.6515 4.60645L29.4023 6.85559Z" fill="white"/>
<path opacity="0.15" d="M34.4762 10.202C35.0887 10.8146 35.6647 11.5095 36.1584 12.1952L38.2704 10.0832C37.7402 9.39746 37.1642 8.74831 36.5424 8.13574L34.4762 10.202C34.4853 10.202 34.4579 10.1929 34.4762 10.202Z" fill="white"/>
<path opacity="0.15" d="M36.7441 13.1091C37.1647 13.8222 37.5579 14.5171 37.8413 15.2851L40.0904 12.9445C39.7339 12.2222 39.3133 11.5548 38.8653 10.8965L36.7441 13.1091Z" fill="white"/>
<mask id="mask1" mask-type="alpha" maskUnits="userSpaceOnUse" x="0" y="0" width="24" height="44">
<path d="M0.5 0H23.5V23L0.5 43.5L0.5 0Z" fill="#C4C4C4"/>
</mask>
<g mask="url(#mask1)">
<path d="M43.025 21.9959C43.025 32.7754 34.2844 41.5159 23.505 41.5159C20.3233 41.5159 17.3153 40.7571 14.6639 39.4039C13.8593 38.9925 13.1004 38.5354 12.369 38.0234C12.0947 37.8314 11.8296 37.6394 11.5736 37.4382C10.8879 36.9079 10.2387 36.3319 9.62614 35.7102C9.45243 35.5365 9.27871 35.3537 9.11414 35.1708C7.92557 33.8725 6.91071 32.4097 6.10614 30.8279C4.753 28.1765 3.99414 25.1685 3.99414 21.9868C3.99414 11.2074 12.7347 2.4668 23.5141 2.4668C26.6959 2.4668 29.7039 3.22565 32.3553 4.5788C33.937 5.38337 35.3999 6.39823 36.6981 7.5868C36.881 7.75137 37.0639 7.92508 37.2376 8.0988C37.8593 8.71137 38.4353 9.36051 38.9656 10.0462C39.1667 10.3022 39.3587 10.5674 39.5507 10.8417C40.0627 11.5731 40.5199 12.3411 40.9313 13.1457C42.257 15.8154 43.025 18.8142 43.025 21.9959Z" fill="#F2F2F2" stroke="white" stroke-miterlimit="10"/>
<path d="M24.1721 36.4418C32.5794 36.4418 39.3949 29.6263 39.3949 21.219C39.3949 12.8116 32.5794 5.99609 24.1721 5.99609C15.7647 5.99609 8.94922 12.8116 8.94922 21.219C8.94922 29.6263 15.7647 36.4418 24.1721 36.4418Z" fill="white"/>
<path opacity="0.25" d="M22.8283 37.7856C31.2357 37.7856 38.0512 30.9701 38.0512 22.5627C38.0512 14.1553 31.2357 7.33984 22.8283 7.33984C14.421 7.33984 7.60547 14.1553 7.60547 22.5627C7.60547 30.9701 14.421 37.7856 22.8283 37.7856Z" fill="black"/>
<path d="M38.7827 21.9958C38.7827 30.4347 31.9438 37.2827 23.4958 37.2827C21.009 37.2827 18.6501 36.6884 16.5747 35.6278C15.9438 35.3078 15.3496 34.9513 14.7736 34.549C14.5633 34.4027 14.353 34.2473 14.1518 34.0918C13.6124 33.6713 13.1004 33.2233 12.625 32.7387C12.4878 32.6016 12.3507 32.4553 12.2227 32.3181C11.2901 31.3033 10.4947 30.1604 9.86384 28.917C8.80327 26.8416 8.20898 24.4918 8.20898 21.9958C8.20898 13.557 15.0478 6.70898 23.4958 6.70898C25.9827 6.70898 28.3416 7.30327 30.417 8.36384C31.6604 8.9947 32.8033 9.79013 33.8181 10.7227C33.9644 10.8507 34.1016 10.9878 34.2387 11.125C34.7233 11.6004 35.1713 12.1124 35.5918 12.6518C35.7473 12.853 35.9027 13.0633 36.049 13.2736C36.4513 13.8496 36.8078 14.4438 37.1278 15.0747C38.1884 17.1593 38.7827 19.509 38.7827 21.9958Z" fill="#F2F2F2"/>
<path opacity="0.25" d="M19.3086 13.2367V13.9133H19.912C20.3143 13.9133 20.6983 14.0138 21.0732 14.215C21.3383 14.3704 21.5029 14.5441 21.5943 14.7544C21.64 14.8641 21.6766 15.0195 21.704 15.2298C21.7406 15.5407 21.7589 15.9521 21.7589 16.4733V27.527C21.7589 28.0024 21.7406 28.3955 21.6949 28.7064C21.64 29.0721 21.5669 29.3281 21.4572 29.4653C21.2103 29.7853 20.8354 29.9864 20.3417 30.0504C20.2046 30.0687 20.0675 30.0778 19.912 30.0778H19.3086V30.9647H26.6412V30.0778H26.0194C25.6172 30.0778 25.2332 29.9773 24.8674 29.7761C24.7303 29.703 24.6206 29.6207 24.5292 29.5293C24.4377 29.4378 24.3737 29.3464 24.3372 29.2367C24.2274 28.9624 24.1726 28.3864 24.1726 27.5178V16.4733C24.1726 15.4493 24.2732 14.8001 24.4834 14.5258C24.8034 14.1144 25.3154 13.9041 26.0103 13.9041H26.632V13.2275H19.3086V13.2367Z" fill="black"/>
<path d="M25.1232 16.4733C25.1232 15.4493 25.2237 14.8001 25.434 14.5258C25.754 14.1144 26.266 13.9041 26.9609 13.9041H27.5826V13.2275H19.7197V13.9041H20.8534C21.2557 13.9041 21.6397 14.0047 22.0146 14.2058C22.17 14.2973 22.298 14.3978 22.3986 14.5167C22.4534 14.5898 22.4992 14.663 22.5357 14.7453C22.6454 15.0195 22.7003 15.5955 22.7003 16.4641V27.5178C22.7003 27.5727 22.7003 27.6275 22.7003 27.6824C22.6912 28.615 22.5906 29.2093 22.3986 29.4561C22.0969 29.8401 21.2557 30.0504 20.57 30.0687C20.5243 30.0687 20.4786 30.0687 20.4329 30.0687H19.8294V30.9555H27.5826V30.0687H26.9609C26.5586 30.0687 26.1746 29.9681 25.8089 29.767C25.5437 29.6115 25.3609 29.4378 25.2786 29.2275C25.242 29.1361 25.2146 29.0081 25.1872 28.8527C25.1414 28.5327 25.114 28.0847 25.114 27.5087V16.4733H25.1232Z" fill="white"/>
<path d="M24.7026 16.4739C24.7026 15.4499 24.8032 14.8008 25.0135 14.5265C25.3335 14.115 25.8455 13.9048 26.5403 13.9048H27.162V13.4385H19.8295V13.9048H20.4329C20.8352 13.9048 21.2192 14.0053 21.594 14.2065C21.8592 14.3619 22.0237 14.5356 22.1152 14.7459C22.1243 14.755 22.1243 14.7733 22.1335 14.7825C22.234 15.075 22.2797 15.6328 22.2797 16.4556V27.5093C22.2797 27.7288 22.2797 27.9299 22.2615 28.1128C22.2249 28.7985 22.1335 29.2465 21.9689 29.4568C21.6672 29.8408 21.2009 30.051 20.5609 30.0693C20.5152 30.0693 20.4695 30.0693 20.4237 30.0693H19.8203V30.5356H27.1529V30.0693H26.5312C26.1289 30.0693 25.7449 29.9688 25.3792 29.7676C25.114 29.6122 24.9312 29.4385 24.8489 29.2282C24.8489 29.219 24.8397 29.2099 24.8397 29.2008C24.7392 28.9173 24.6843 28.3505 24.6843 27.5185V16.4739H24.7026Z" fill="#F2F2F2"/>
<path opacity="0.15" d="M34.7512 10.6584L32.438 12.9715L31.7066 13.703L31.094 14.3155L28.6712 16.6927L27.7203 17.6435L26.2483 19.1155L25.2975 20.0664L16.4106 28.9532L15.7066 29.6572L12.6346 32.7292C11.3363 31.4401 10.4403 29.959 9.63574 28.3772L30.4083 7.65039C31.99 8.45496 33.4529 9.46982 34.7512 10.6584Z" fill="white"/>
<path opacity="0.15" d="M36.7805 13.2648L34.4308 15.6145L33.7085 16.3368L33.0776 16.9677L28.7714 21.274L28.3508 21.6945L27.8205 22.2248L26.3576 23.6968L25.4068 24.6477L19.0251 31.0294L18.2936 31.7608L17.6811 32.3734L15.2216 34.8328C14.5176 34.3574 13.7405 33.8362 13.1279 33.2145L16.3096 30.0694L17.0319 29.3471L25.4068 20.9722L26.3576 20.0214L27.8296 18.5494L28.7805 17.5985L31.3954 14.9745L35.0525 11.3174C35.6742 11.9208 36.2502 12.5791 36.7805 13.2648Z" fill="white"/>
<path opacity="0.15" d="M38.4173 16.6475L35.8756 19.1892L35.1716 19.8932L34.5316 20.5332L29.3751 25.7721L29.0368 26.1103L28.7168 26.4303L27.7019 27.4452L27.2813 27.8658L22.8471 32.3L22.0973 33.0498L21.5031 33.6441L18.7511 36.4966C17.9465 36.2132 16.9956 35.8749 16.2002 35.3995L19.0436 32.428L19.6562 31.8155L24.5019 26.9698L24.5293 26.9423L25.8825 25.5892L26.4585 25.0132L26.8973 24.5743L28.3693 23.1023L29.3202 22.1515L33.3339 18.0555L37.0642 14.3252C37.5488 15.0841 38.0151 15.8521 38.4173 16.6475Z" fill="white"/>
<path opacity="0.15" d="M8.69348 28.25C9.34262 29.8774 10.2935 31.4043 11.5186 32.7757L9.45234 34.842C8.26376 33.5437 7.24891 32.0809 6.44434 30.4991L8.69348 28.25Z" fill="white"/>
<path opacity="0.15" d="M12.0399 33.3151C12.6525 33.9277 13.3473 34.5037 14.0331 34.9974L11.9211 37.1094C11.2353 36.5791 10.5862 36.0031 9.97363 35.3814L12.0399 33.3151C12.0491 33.3243 12.0308 33.306 12.0399 33.3151Z" fill="white"/>
<path opacity="0.15" d="M14.9469 35.5918C15.6601 36.0124 16.3549 36.4055 17.1229 36.6889L14.7824 38.9381C14.0601 38.5815 13.3927 38.1609 12.7344 37.7129L14.9469 35.5918Z" fill="white"/>
</g>
</svg>
