<svg width="41" height="42" viewBox="0 0 41 42" fill="none" xmlns="http://www.w3.org/2000/svg">
<path d="M40.025 20.9959C40.025 31.7754 31.2844 40.5159 20.505 40.5159C17.3233 40.5159 14.3153 39.7571 11.6639 38.4039C10.8593 37.9925 10.1004 37.5354 9.369 37.0234C9.09471 36.8314 8.82957 36.6394 8.57357 36.4382C7.88785 35.9079 7.23871 35.3319 6.62614 34.7102C6.45243 34.5365 6.27871 34.3537 6.11414 34.1708C4.92557 32.8725 3.91071 31.4097 3.10614 29.8279C1.753 27.1765 0.994141 24.1685 0.994141 20.9868C0.994141 10.2074 9.73471 1.4668 20.5141 1.4668C23.6959 1.4668 26.7039 2.22565 29.3553 3.5788C30.937 4.38337 32.3999 5.39823 33.6981 6.5868C33.881 6.75137 34.0639 6.92508 34.2376 7.0988C34.8593 7.71137 35.4353 8.36051 35.9656 9.04623C36.1667 9.30223 36.3587 9.56737 36.5507 9.84165C37.0627 10.5731 37.5199 11.3411 37.9313 12.1457C39.257 14.8154 40.025 17.8142 40.025 20.9959Z" fill="#FFCC0C" stroke="white" stroke-miterlimit="10"/>
<path d="M21.1721 35.4418C29.5794 35.4418 36.3949 28.6263 36.3949 20.219C36.3949 11.8116 29.5794 4.99609 21.1721 4.99609C12.7647 4.99609 5.94922 11.8116 5.94922 20.219C5.94922 28.6263 12.7647 35.4418 21.1721 35.4418Z" fill="white"/>
<path opacity="0.25" d="M19.8283 36.7856C28.2357 36.7856 35.0512 29.9701 35.0512 21.5627C35.0512 13.1553 28.2357 6.33984 19.8283 6.33984C11.421 6.33984 4.60547 13.1553 4.60547 21.5627C4.60547 29.9701 11.421 36.7856 19.8283 36.7856Z" fill="black"/>
<path d="M35.7827 20.9958C35.7827 29.4347 28.9438 36.2827 20.4958 36.2827C18.009 36.2827 15.6501 35.6884 13.5747 34.6278C12.9438 34.3078 12.3496 33.9513 11.7736 33.549C11.5633 33.4027 11.353 33.2473 11.1518 33.0918C10.6124 32.6713 10.1004 32.2233 9.62498 31.7387C9.48784 31.6016 9.3507 31.4553 9.2227 31.3181C8.29013 30.3033 7.4947 29.1604 6.86384 27.917C5.80327 25.8416 5.20898 23.4918 5.20898 20.9958C5.20898 12.557 12.0478 5.70898 20.4958 5.70898C22.9827 5.70898 25.3416 6.30327 27.417 7.36384C28.6604 7.9947 29.8033 8.79013 30.8181 9.7227C30.9644 9.8507 31.1016 9.98784 31.2387 10.125C31.7233 10.6004 32.1713 11.1124 32.5918 11.6518C32.7473 11.853 32.9027 12.0633 33.049 12.2736C33.4513 12.8496 33.8078 13.4438 34.1278 14.0747C35.1884 16.1593 35.7827 18.509 35.7827 20.9958Z" fill="#FFCC0C"/>
<path opacity="0.25" d="M9.5 14.0071V14.5311H9.96735C10.2789 14.5311 10.5763 14.609 10.8666 14.7647C11.072 14.8851 11.1994 15.0197 11.2702 15.1825C11.3057 15.2675 11.334 15.3879 11.3552 15.5507C11.3835 15.7915 11.3977 16.1101 11.3977 16.5138V25.0747C11.3977 25.4429 11.3835 25.7474 11.3481 25.9881C11.3057 26.2714 11.249 26.4696 11.164 26.5759C10.9728 26.8237 10.6825 26.9795 10.3002 27.029C10.1939 27.0432 10.0877 27.0503 9.96735 27.0503H9.5V27.7371H15.179V27.0503H14.6975C14.3859 27.0503 14.0885 26.9724 13.8052 26.8166C13.699 26.76 13.6141 26.6962 13.5432 26.6254C13.4724 26.5546 13.4229 26.4838 13.3945 26.3988C13.3096 26.1864 13.2671 25.7403 13.2671 25.0676V16.5138C13.2671 15.7207 13.345 15.2179 13.5078 15.0055C13.7557 14.6869 14.1522 14.524 14.6904 14.524H15.1719V14H9.5V14.0071Z" fill="black"/>
<path d="M14.0032 16.5138C14.0032 15.7207 14.0811 15.2179 14.244 15.0055C14.4918 14.6869 14.8884 14.524 15.4265 14.524H15.908V14H9.81836V14.524H10.6964C11.008 14.524 11.3054 14.6019 11.5957 14.7577C11.7161 14.8285 11.8152 14.9064 11.8931 14.9984C11.9356 15.0551 11.971 15.1117 11.9993 15.1754C12.0843 15.3879 12.1268 15.834 12.1268 16.5067V25.0676C12.1268 25.1101 12.1268 25.1526 12.1268 25.1951C12.1197 25.9173 12.0418 26.3776 11.8931 26.5688C11.6594 26.8662 11.008 27.029 10.4769 27.0432C10.4415 27.0432 10.4061 27.0432 10.3707 27.0432H9.90333V27.7301H15.908V27.0432H15.4265C15.115 27.0432 14.8175 26.9653 14.5343 26.8095C14.329 26.6892 14.1873 26.5546 14.1236 26.3918C14.0953 26.3209 14.074 26.2218 14.0528 26.1014C14.0174 25.8536 13.9962 25.5066 13.9962 25.0605V16.5138H14.0032Z" fill="white"/>
<path d="M13.6777 16.514C13.6777 15.7209 13.7556 15.2182 13.9185 15.0057C14.1663 14.6871 14.5629 14.5242 15.101 14.5242H15.5825V14.1631H9.90357V14.5242H10.3709C10.6825 14.5242 10.9799 14.6021 11.2702 14.7579C11.4755 14.8783 11.603 15.0128 11.6738 15.1757C11.6809 15.1827 11.6809 15.1969 11.688 15.204C11.7659 15.4306 11.8013 15.8625 11.8013 16.4998V25.0607C11.8013 25.2307 11.8013 25.3865 11.7871 25.5281C11.7588 26.0592 11.688 26.4061 11.5605 26.569C11.3268 26.8664 10.9657 27.0293 10.47 27.0434C10.4346 27.0434 10.3992 27.0434 10.3638 27.0434H9.89648V27.4046H15.5754V27.0434H15.0939C14.7824 27.0434 14.485 26.9655 14.2017 26.8098C13.9964 26.6894 13.8548 26.5548 13.791 26.392C13.791 26.3849 13.784 26.3778 13.784 26.3707C13.7061 26.1512 13.6636 25.7122 13.6636 25.0678V16.514H13.6777Z" fill="#FFCC0C"/>
<path opacity="0.25" d="M17.2441 14.0071V14.5311H17.7115C18.0231 14.5311 18.3205 14.609 18.6108 14.7647C18.8161 14.8851 18.9436 15.0197 19.0144 15.1825C19.0498 15.2675 19.0781 15.3879 19.0994 15.5507C19.1277 15.7915 19.1418 16.1101 19.1418 16.5138V25.0747C19.1418 25.4429 19.1277 25.7474 19.0923 25.9881C19.0498 26.2714 18.9931 26.4696 18.9082 26.5759C18.717 26.8237 18.4267 26.9795 18.0443 27.029C17.9381 27.0432 17.8319 27.0503 17.7115 27.0503H17.2441V27.7371H22.9231V27.0503H22.4416C22.13 27.0503 21.8326 26.9724 21.5494 26.8166C21.4432 26.76 21.3582 26.6962 21.2874 26.6254C21.2166 26.5546 21.167 26.4838 21.1387 26.3988C21.0537 26.1864 21.0112 25.7403 21.0112 25.0676V16.5138C21.0112 15.7207 21.0891 15.2179 21.252 15.0055C21.4998 14.6869 21.8964 14.524 22.4345 14.524H22.916V14H17.2441V14.0071Z" fill="black"/>
<path d="M21.7474 16.5138C21.7474 15.7207 21.8253 15.2179 21.9881 15.0055C22.236 14.6869 22.6325 14.524 23.1707 14.524H23.6522V14H17.5625V14.524H18.4405C18.7521 14.524 19.0495 14.6019 19.3398 14.7577C19.4602 14.8285 19.5593 14.9064 19.6372 14.9984C19.6797 15.0551 19.7151 15.1117 19.7434 15.1754C19.8284 15.3879 19.8709 15.834 19.8709 16.5067V25.0676C19.8709 25.1101 19.8709 25.1526 19.8709 25.1951C19.8638 25.9173 19.7859 26.3776 19.6372 26.5688C19.4036 26.8662 18.7521 27.029 18.221 27.0432C18.1856 27.0432 18.1502 27.0432 18.1148 27.0432H17.6475V27.7301H23.6522V27.0432H23.1707C22.8591 27.0432 22.5617 26.9653 22.2784 26.8095C22.0731 26.6892 21.9315 26.5546 21.8678 26.3918C21.8394 26.3209 21.8182 26.2218 21.7969 26.1014C21.7615 25.8536 21.7403 25.5066 21.7403 25.0605V16.5138H21.7474Z" fill="white"/>
<path d="M21.4219 16.514C21.4219 15.7209 21.4998 15.2182 21.6626 15.0057C21.9105 14.6871 22.307 14.5242 22.8452 14.5242H23.3267V14.1631H17.6477V14.5242H18.1151C18.4266 14.5242 18.724 14.6021 19.0143 14.7579C19.2197 14.8783 19.3471 15.0128 19.418 15.1757C19.425 15.1827 19.425 15.1969 19.4321 15.204C19.51 15.4306 19.5454 15.8625 19.5454 16.4998V25.0607C19.5454 25.2307 19.5454 25.3865 19.5313 25.5281C19.5029 26.0592 19.4321 26.4061 19.3047 26.569C19.071 26.8664 18.7099 27.0293 18.2142 27.0434C18.1788 27.0434 18.1434 27.0434 18.108 27.0434H17.6406V27.4046H23.3196V27.0434H22.8381C22.5265 27.0434 22.2291 26.9655 21.9459 26.8098C21.7405 26.6894 21.5989 26.5548 21.5352 26.392C21.5352 26.3849 21.5281 26.3778 21.5281 26.3707C21.4502 26.1512 21.4077 25.7122 21.4077 25.0678V16.514H21.4219Z" fill="#FFCC0C"/>
<path opacity="0.25" d="M24.9902 14.0071V14.5311H25.4576C25.7691 14.5311 26.0665 14.609 26.3569 14.7647C26.5622 14.8851 26.6897 15.0197 26.7605 15.1825C26.7959 15.2675 26.8242 15.3879 26.8455 15.5507C26.8738 15.7915 26.8879 16.1101 26.8879 16.5138V25.0747C26.8879 25.4429 26.8738 25.7474 26.8384 25.9881C26.7959 26.2714 26.7392 26.4696 26.6543 26.5759C26.4631 26.8237 26.1728 26.9795 25.7904 27.029C25.6842 27.0432 25.578 27.0503 25.4576 27.0503H24.9902V27.7371H30.6692V27.0503H30.1877C29.8761 27.0503 29.5787 26.9724 29.2955 26.8166C29.1893 26.76 29.1043 26.6962 29.0335 26.6254C28.9627 26.5546 28.9131 26.4838 28.8848 26.3988C28.7998 26.1864 28.7573 25.7403 28.7573 25.0676V16.5138C28.7573 15.7207 28.8352 15.2179 28.9981 15.0055C29.2459 14.6869 29.6425 14.524 30.1806 14.524H30.6621V14H24.9902V14.0071Z" fill="black"/>
<path d="M29.4935 16.5138C29.4935 15.7207 29.5714 15.2179 29.7342 15.0055C29.9821 14.6869 30.3786 14.524 30.9167 14.524H31.3983V14H25.3086V14.524H26.1866C26.4982 14.524 26.7956 14.6019 27.0859 14.7577C27.2063 14.8285 27.3054 14.9064 27.3833 14.9984C27.4258 15.0551 27.4612 15.1117 27.4895 15.1754C27.5745 15.3879 27.617 15.834 27.617 16.5067V25.0676C27.617 25.1101 27.617 25.1526 27.617 25.1951C27.6099 25.9173 27.532 26.3776 27.3833 26.5688C27.1497 26.8662 26.4982 27.029 25.9671 27.0432C25.9317 27.0432 25.8963 27.0432 25.8609 27.0432H25.3936V27.7301H31.3983V27.0432H30.9167C30.6052 27.0432 30.3078 26.9653 30.0245 26.8095C29.8192 26.6892 29.6776 26.5546 29.6138 26.3918C29.5855 26.3209 29.5643 26.2218 29.543 26.1014C29.5076 25.8536 29.4864 25.5066 29.4864 25.0605V16.5138H29.4935Z" fill="white"/>
<path d="M29.168 16.514C29.168 15.7209 29.2459 15.2182 29.4087 15.0057C29.6566 14.6871 30.0531 14.5242 30.5913 14.5242H31.0728V14.1631H25.3938V14.5242H25.8611C26.1727 14.5242 26.4701 14.6021 26.7604 14.7579C26.9658 14.8783 27.0932 15.0128 27.1641 15.1757C27.1711 15.1827 27.1711 15.1969 27.1782 15.204C27.2561 15.4306 27.2915 15.8625 27.2915 16.4998V25.0607C27.2915 25.2307 27.2915 25.3865 27.2773 25.5281C27.249 26.0592 27.1782 26.4061 27.0508 26.569C26.8171 26.8664 26.4559 27.0293 25.9603 27.0434C25.9249 27.0434 25.8895 27.0434 25.8541 27.0434H25.3867V27.4046H31.0657V27.0434H30.5842C30.2726 27.0434 29.9752 26.9655 29.692 26.8098C29.4866 26.6894 29.345 26.5548 29.2813 26.392C29.2813 26.3849 29.2742 26.3778 29.2742 26.3707C29.1963 26.1512 29.1538 25.7122 29.1538 25.0678V16.514H29.168Z" fill="#FFCC0C"/>
<path opacity="0.15" d="M31.7502 9.65839L29.437 11.9715L28.7056 12.703L28.0931 13.3155L25.6702 15.6927L24.7193 16.6435L23.2473 18.1155L22.2965 19.0664L13.4096 27.9532L12.7056 28.6572L9.63362 31.7292C8.33534 30.4401 7.43934 28.959 6.63477 27.3772L27.4073 6.65039C28.9891 7.45496 30.4519 8.46982 31.7502 9.65839Z" fill="white"/>
<path opacity="0.15" d="M33.7815 12.2648L31.4318 14.6145L30.7095 15.3368L30.0786 15.9677L25.7723 20.274L25.3518 20.6945L24.8215 21.2248L23.3586 22.6968L22.4078 23.6477L16.026 30.0294L15.2946 30.7608L14.6821 31.3734L12.2226 33.8328C11.5186 33.3574 10.7415 32.8362 10.1289 32.2145L13.3106 29.0694L14.0329 28.3471L22.4078 19.9722L23.3586 19.0214L24.8306 17.5494L25.7815 16.5985L28.3963 13.9745L32.0535 10.3174C32.6752 10.9208 33.2512 11.5791 33.7815 12.2648Z" fill="white"/>
<path opacity="0.15" d="M35.4164 15.6475L32.8747 18.1892L32.1707 18.8932L31.5307 19.5332L26.3741 24.7721L26.0358 25.1103L25.7158 25.4303L24.7009 26.4452L24.2804 26.8658L19.8461 31.3L19.0964 32.0498L18.5021 32.6441L15.7501 35.4966C14.9455 35.2132 13.9946 34.8749 13.1992 34.3995L16.0426 31.428L16.6552 30.8155L21.5009 25.9698L21.5284 25.9423L22.8815 24.5892L23.4575 24.0132L23.8964 23.5743L25.3684 22.1023L26.3192 21.1515L30.3329 17.0555L34.0632 13.3252C34.5478 14.0841 35.0141 14.8521 35.4164 15.6475Z" fill="white"/>
<path opacity="0.15" d="M5.69446 27.25C6.3436 28.8774 7.29446 30.4043 8.5196 31.7757L6.45331 33.842C5.26474 32.5437 4.24988 31.0809 3.44531 29.4991L5.69446 27.25Z" fill="white"/>
<path opacity="0.15" d="M9.03894 32.3151C9.65151 32.9277 10.3464 33.5037 11.0321 33.9974L8.92009 36.1094C8.23437 35.5791 7.58523 35.0031 6.97266 34.3814L9.03894 32.3151C9.04809 32.3243 9.0298 32.306 9.03894 32.3151Z" fill="white"/>
<path opacity="0.15" d="M11.9469 34.5918C12.6601 35.0124 13.3549 35.4055 14.1229 35.6889L11.7824 37.9381C11.0601 37.5815 10.3927 37.1609 9.73438 36.7129L11.9469 34.5918Z" fill="white"/>
<path opacity="0.15" d="M26.4023 5.85559C28.0298 6.50473 29.5566 7.45559 30.9281 8.68073L32.9944 6.61445C31.6961 5.42587 30.2332 4.41102 28.6515 3.60645L26.4023 5.85559Z" fill="white"/>
<path opacity="0.15" d="M31.4771 9.20203C32.0897 9.8146 32.6657 10.5095 33.1594 11.1952L35.2714 9.08317C34.7411 8.39746 34.1651 7.74831 33.5434 7.13574L31.4771 9.20203C31.4863 9.20203 31.4589 9.19289 31.4771 9.20203Z" fill="white"/>
<path opacity="0.15" d="M33.7441 12.1091C34.1647 12.8222 34.5579 13.5171 34.8413 14.2851L37.0904 11.9445C36.7339 11.2222 36.3133 10.5548 35.8653 9.89648L33.7441 12.1091Z" fill="white"/>
</svg>
