<svg width="66" height="71" viewBox="0 0 66 71" fill="none" xmlns="http://www.w3.org/2000/svg">
<path d="M64.8267 8.39425C64.6599 7.40689 63.9509 6.57037 63.0057 6.21383C47.7011 0.358227 33.4947 0.481647 33.4947 0.481647C33.4947 0.481647 19.3021 0.358227 3.99752 6.21383C3.03838 6.57037 2.34334 7.40689 2.17654 8.39425C-0.631391 24.5623 2.46845 42.6365 2.46845 42.6365C2.46845 42.6365 5.7073 60.2307 32.4382 70.2963C33.1054 70.5432 33.8839 70.5432 34.5511 70.2963C61.2959 60.2307 64.5209 42.6365 64.5209 42.6365C64.5209 42.6365 67.6346 24.5623 64.8267 8.39425Z" fill="#7C52FF"/>
<g filter="url(#filter0_i)">
<path d="M61.935 10.7165C61.7836 9.81377 61.1401 9.04895 60.2821 8.72297C46.3902 3.36928 33.4951 3.48212 33.4951 3.48212C33.4951 3.48212 20.6127 3.36928 6.72082 8.72297C5.85022 9.04895 5.21934 9.81377 5.06793 10.7165C2.5192 25.4987 5.3329 42.0237 5.3329 42.0237C5.3329 42.0237 8.27278 58.1098 32.5362 67.3127C33.1419 67.5383 33.8484 67.5383 34.4541 67.3127C58.7301 58.1098 61.6574 42.0237 61.6574 42.0237C61.6574 42.0237 64.4837 25.4987 61.935 10.7165Z" fill="url(#paint0_linear)"/>
</g>
<ellipse cx="7" cy="42.812" rx="1" ry="0.995588" fill="white"/>
<ellipse cx="41" cy="2.98875" rx="1" ry="0.995588" fill="white"/>
<ellipse cx="49" cy="60.7329" rx="1" ry="0.995588" fill="white"/>
<path d="M15.7657 42.4469C15.8464 42.2297 16.1536 42.2297 16.2343 42.4469L16.7702 43.8887C16.7956 43.9571 16.8497 44.011 16.9181 44.0362L18.3632 44.5686C18.5813 44.6489 18.5813 44.9574 18.3632 45.0378L16.9181 45.5701C16.8497 45.5954 16.7956 45.6492 16.7702 45.7176L16.2343 47.1594C16.1536 47.3766 15.8464 47.3766 15.7657 47.1594L15.2298 45.7176C15.2044 45.6492 15.1503 45.5954 15.0819 45.5701L13.6368 45.0378C13.4187 44.9574 13.4187 44.6489 13.6368 44.5686L15.0819 44.0362C15.1503 44.011 15.2044 43.9571 15.2298 43.8887L15.7657 42.4469Z" fill="white"/>
<path d="M20.2657 10.5885C20.3464 10.3713 20.6536 10.3713 20.7343 10.5885L21.1352 11.667C21.1606 11.7354 21.2146 11.7892 21.2831 11.8145L22.3632 12.2124C22.5813 12.2927 22.5813 12.6012 22.3632 12.6816L21.2831 13.0795C21.2146 13.1047 21.1606 13.1586 21.1352 13.227L20.7343 14.3055C20.6536 14.5227 20.3464 14.5227 20.2657 14.3055L19.8648 13.227C19.8394 13.1586 19.7854 13.1047 19.7169 13.0795L18.6368 12.6816C18.4187 12.6012 18.4187 12.2927 18.6368 12.2124L19.7169 11.8145C19.7854 11.7892 19.8394 11.7354 19.8648 11.667L20.2657 10.5885Z" fill="white"/>
<path d="M55.2657 43.443C55.3464 43.2258 55.6536 43.2258 55.7343 43.443L56.1352 44.5215C56.1606 44.5899 56.2146 44.6437 56.2831 44.669L57.3632 45.0669C57.5813 45.1472 57.5813 45.4557 57.3632 45.5361L56.2831 45.934C56.2146 45.9592 56.1606 46.0131 56.1352 46.0815L55.7343 47.1599C55.6536 47.3771 55.3464 47.3771 55.2657 47.1599L54.8648 46.0815C54.8394 46.0131 54.7854 45.9592 54.7169 45.934L53.6368 45.5361C53.4187 45.4557 53.4187 45.1472 53.6368 45.0669L54.7169 44.669C54.7854 44.6437 54.8394 44.5899 54.8648 44.5215L55.2657 43.443Z" fill="white"/>
<ellipse cx="50.5" cy="5.47776" rx="1.5" ry="1.49338" fill="white"/>
<ellipse cx="49.5" cy="13.4426" rx="0.5" ry="0.497794" fill="white"/>
<ellipse cx="34" cy="32.8566" rx="20" ry="19.9118" fill="url(#paint1_linear)"/>
<path d="M41.2823 42.1896L38.674 38.4727C38.2594 37.5217 38.6725 36.3866 39.5972 35.9362L43.2536 35.1159C44.8702 34.314 46.1375 32.8864 46.7656 31.1607L49.7671 22.9142L39.8991 19.3225L30.0543 15.7393L27.057 23.9742C26.4247 25.7115 26.482 27.6081 27.205 29.2615L29.4787 32.2402C29.8933 33.1912 29.4801 34.3263 28.5554 34.7767L24.1682 35.9474C22.5515 36.7494 21.2843 38.1769 20.6562 39.9026L17.8022 47.7437L28.1914 51.5251L38.5806 55.3064L41.4345 47.4653C42.0626 45.7396 42.0053 43.8431 41.2823 42.1896Z" fill="white"/>
<path d="M50.8431 23.8169L28.6557 15.7293C28.0998 15.5267 27.8124 14.9103 28.0145 14.3543L28.6923 12.4893C28.8944 11.9332 29.5102 11.6461 30.0661 11.8487L52.2535 19.9363C52.8094 20.1389 53.0968 20.7553 52.8947 21.3113L52.2169 23.1763C52.0148 23.7324 51.399 24.0195 50.8431 23.8169Z" fill="#CAD6ED"/>
<path d="M38.1989 58.5513L16.0075 50.4743C15.4516 50.272 15.1643 49.6559 15.3667 49.0999L16.0454 47.2352C16.2477 46.6792 16.8638 46.3919 17.4198 46.5943L39.6112 54.6713C40.1671 54.8736 40.4544 55.4898 40.252 56.0457L39.5733 57.9104C39.371 58.4664 38.7549 58.7537 38.1989 58.5513Z" fill="#CAD6ED"/>
<path d="M35.5798 43.0792C34.1576 41.4729 33.7519 39.0561 33.6248 37.7113C33.5881 37.3438 33.1595 37.1878 32.8952 37.4457C31.9408 38.41 30.0691 39.9848 27.9472 40.3012C24.9596 40.7615 21.2546 42.2199 20.7268 46.2645C20.7057 46.4667 20.8215 46.6531 21.0184 46.7248L28.79 49.5534L36.7933 52.4664C36.9786 52.5338 37.2029 52.4581 37.3125 52.3012C39.4848 48.8552 37.5957 45.3607 35.5798 43.0792Z" fill="#FEB800"/>
<path d="M28.8871 28.6405C28.6587 28.295 29.0095 27.8718 29.3833 28.0341C31.2174 28.8328 34.5437 29.6762 37.7056 27.2594C42.2337 23.7921 43.2679 23.329 46.6648 24.0145C46.8585 24.0588 47.0248 24.2505 47.0153 24.4569C46.7834 28.8058 44.2918 32.8045 41.4178 33.8177C39.3431 34.5448 36.2049 34.9503 34.5042 35.1183C33.7807 35.196 33.0764 34.8609 32.6795 34.2574L28.8871 28.6405Z" fill="#FFE37D"/>
<path d="M44.6584 23.758C41.5301 33.3618 34.2792 32.5983 30.8824 31.6243L28.8814 28.6531C28.653 28.3076 29.0038 27.8844 29.3776 28.0467C31.2117 28.8454 34.5264 29.6846 37.6884 27.2678C41.2126 24.5762 42.6208 23.6984 44.6584 23.758Z" fill="#FEC802"/>
<path opacity="0.78" d="M50.8462 23.8046L44.6034 21.5324L46.0156 17.6523L52.2584 19.9246C52.8143 20.1269 53.1016 20.743 52.8993 21.299L52.2206 23.1637C52.0182 23.7197 51.4021 24.007 50.8462 23.8046Z" fill="white"/>
<path opacity="0.78" d="M38.1522 58.5345L29.037 55.2169L30.4492 51.3369L39.5644 54.6545C40.1203 54.8569 40.4076 55.473 40.2053 56.0289L39.5266 57.8936C39.3358 58.4538 38.7197 58.7411 38.1522 58.5345Z" fill="white"/>
<path d="M13 65.8949L2.86933 68L5.19094 61.939L1 57.5051L7.00003 56L8.18595 63.0475" fill="#CBD7EE"/>
<path d="M13 65.8949L2.86933 68L5.19094 61.939L1 57.5051L7.00003 56L8.18595 63.0475" stroke="#EEF5FF" stroke-miterlimit="10"/>
<path d="M8 63L13 66V61L8 63Z" fill="#8D98C6"/>
<path d="M53 65.8949L63.1307 68L60.8191 61.939L65 57.5051L59 56L57.814 63.0475" fill="#CBD7EE"/>
<path d="M53 65.8949L63.1307 68L60.8191 61.939L65 57.5051L59 56L57.814 63.0475" stroke="#EEF5FF" stroke-miterlimit="10"/>
<path d="M58 63L53 66V61L58 63Z" fill="#8D98C6"/>
<path d="M31.3623 49.0391C26.1514 49.2893 10.0422 50.2903 5 53.1575L7.87844 63C7.87844 63 21.8735 59.4133 33 59.4133C44.1266 59.4133 58.1216 63 58.1216 63L61 53.1575C55.9578 50.3007 39.8486 49.2998 34.6377 49.0391C33.5459 48.987 32.464 48.987 31.3623 49.0391Z" fill="#EDF7FF"/>
<path d="M58 53.9452C51.1887 52.0164 39.5319 51.2603 35.2525 51.0411C34.1503 50.9863 33.0681 50.9863 31.9659 51.0411C27.6369 51.2603 15.7915 52.0274 9 54" stroke="white" stroke-width="2" stroke-miterlimit="10"/>
<path d="M37.3428 53.3476C37.3037 53.2261 37.2287 53.1191 37.1275 53.0406C37.0262 52.9621 36.9034 52.9156 36.7751 52.9073L34.4552 52.7463L33.5946 50.5977C33.548 50.4789 33.4663 50.3768 33.3603 50.3049C33.2542 50.2329 33.1286 50.1944 33.0001 50.1943H32.9995C32.8712 50.1946 32.7459 50.2332 32.64 50.3051C32.5342 50.3771 32.4527 50.4791 32.4062 50.5977L31.5328 52.7587L29.2257 52.9073C29.0974 52.9156 28.9746 52.9621 28.8734 53.0406C28.7721 53.1191 28.6971 53.2261 28.6581 53.3476C28.6169 53.4707 28.6141 53.6034 28.65 53.7281C28.686 53.8529 28.7589 53.9641 28.8595 54.0471L30.6344 55.5346L30.1064 57.5937C30.07 57.7324 30.0767 57.8788 30.1256 58.0136C30.1745 58.1485 30.2634 58.2656 30.3805 58.3496C30.4936 58.4311 30.6288 58.4771 30.7686 58.4814C30.9083 58.4857 31.0462 58.4482 31.1642 58.3738L32.9952 57.2237C32.9977 57.2218 33.0001 57.2206 33.0056 57.2237L34.9758 58.4612C35.0828 58.529 35.2079 58.5632 35.3347 58.5593C35.4616 58.5554 35.5843 58.5136 35.6869 58.4394C35.793 58.3634 35.8735 58.2573 35.9178 58.1351C35.9621 58.013 35.9682 57.8804 35.9353 57.7547L35.3744 55.5053L37.1413 54.0471C37.2419 53.9641 37.3149 53.8529 37.3508 53.7281C37.3867 53.6034 37.3839 53.4707 37.3428 53.3476Z" fill="#5B00F6"/>
<g opacity="0.5">
<path d="M43.6057 54.8138C43.5822 54.7409 43.5372 54.6768 43.4765 54.6296C43.4157 54.5825 43.3421 54.5546 43.2651 54.5497L41.8731 54.4531L41.3568 53.1639C41.3288 53.0926 41.2798 53.0314 41.2162 52.9882C41.1525 52.945 41.0772 52.9219 41.0001 52.9219H40.9997C40.9227 52.922 40.8475 52.9452 40.784 52.9884C40.7205 53.0315 40.6716 53.0927 40.6437 53.1639L40.1197 54.4605L38.7354 54.5497C38.6584 54.5546 38.5848 54.5825 38.524 54.6296C38.4633 54.6768 38.4183 54.7409 38.3948 54.8138C38.3701 54.8877 38.3685 54.9673 38.39 55.0422C38.4116 55.117 38.4554 55.1837 38.5157 55.2336L39.5806 56.1261L39.2639 57.3615C39.242 57.4447 39.246 57.5325 39.2754 57.6135C39.3047 57.6944 39.358 57.7646 39.4283 57.815C39.4961 57.864 39.5773 57.8915 39.6611 57.8941C39.745 57.8967 39.8277 57.8742 39.8985 57.8295L40.9971 57.1395C40.9986 57.1384 41.0001 57.1377 41.0034 57.1395L42.1855 57.882C42.2497 57.9227 42.3247 57.9432 42.4008 57.9408C42.477 57.9385 42.5506 57.9134 42.6121 57.8689C42.6758 57.8233 42.7241 57.7597 42.7507 57.6864C42.7773 57.6131 42.7809 57.5335 42.7612 57.4581L42.4246 56.1084L43.4848 55.2336C43.5451 55.1837 43.5889 55.117 43.6105 55.0422C43.632 54.9673 43.6304 54.8877 43.6057 54.8138Z" fill="#BDBDBD"/>
</g>
<path d="M27.6057 54.8138C27.5822 54.7409 27.5372 54.6768 27.4765 54.6296C27.4157 54.5825 27.3421 54.5546 27.2651 54.5497L25.8731 54.4531L25.3568 53.1639C25.3288 53.0926 25.2798 53.0314 25.2162 52.9882C25.1525 52.945 25.0772 52.9219 25.0001 52.9219H24.9997C24.9227 52.922 24.8475 52.9452 24.784 52.9884C24.7205 53.0315 24.6716 53.0927 24.6437 53.1639L24.1197 54.4605L22.7354 54.5497C22.6584 54.5546 22.5848 54.5825 22.524 54.6296C22.4633 54.6768 22.4183 54.7409 22.3948 54.8138C22.3701 54.8877 22.3685 54.9673 22.39 55.0422C22.4116 55.117 22.4554 55.1837 22.5157 55.2336L23.5806 56.1261L23.2639 57.3615C23.242 57.4447 23.246 57.5325 23.2754 57.6135C23.3047 57.6944 23.358 57.7646 23.4283 57.815C23.4961 57.864 23.5773 57.8915 23.6611 57.8941C23.745 57.8967 23.8277 57.8742 23.8985 57.8295L24.9971 57.1395C24.9986 57.1384 25.0001 57.1377 25.0034 57.1395L26.1855 57.882C26.2497 57.9227 26.3247 57.9432 26.4008 57.9408C26.477 57.9385 26.5506 57.9134 26.6121 57.8689C26.6758 57.8233 26.7241 57.7597 26.7507 57.6864C26.7773 57.6131 26.7809 57.5335 26.7612 57.4581L26.4246 56.1084L27.4848 55.2336C27.5451 55.1837 27.5889 55.117 27.6105 55.0422C27.632 54.9673 27.6304 54.8877 27.6057 54.8138Z" fill="#5B00F6"/>
<path d="M20.6057 55.805C20.5822 55.7322 20.5372 55.668 20.4765 55.6208C20.4157 55.5737 20.3421 55.5459 20.2651 55.5409L18.8731 55.4443L18.3568 54.1551C18.3288 54.0838 18.2798 54.0226 18.2162 53.9794C18.1525 53.9362 18.0772 53.9131 18.0001 53.9131H17.9997C17.9227 53.9132 17.8475 53.9364 17.784 53.9796C17.7205 54.0227 17.6716 54.0839 17.6437 54.1551L17.1197 55.4517L15.7354 55.5409C15.6584 55.5459 15.5848 55.5737 15.524 55.6208C15.4633 55.668 15.4183 55.7322 15.3948 55.805C15.3701 55.8789 15.3685 55.9585 15.39 56.0334C15.4116 56.1082 15.4554 56.1749 15.5157 56.2248L16.5806 57.1173L16.2639 58.3527C16.242 58.4359 16.246 58.5238 16.2754 58.6047C16.3047 58.6856 16.358 58.7558 16.4283 58.8062C16.4961 58.8552 16.5773 58.8827 16.6611 58.8853C16.745 58.8879 16.8277 58.8654 16.8985 58.8208L17.9971 58.1307C17.9986 58.1296 18.0001 58.1289 18.0034 58.1307L19.1855 58.8732C19.2497 58.9139 19.3247 58.9344 19.4008 58.932C19.477 58.9297 19.5506 58.9047 19.6121 58.8602C19.6758 58.8145 19.7241 58.7509 19.7507 58.6776C19.7773 58.6043 19.7809 58.5247 19.7612 58.4493L19.4246 57.0997L20.4848 56.2248C20.5451 56.1749 20.5889 56.1082 20.6105 56.0334C20.632 55.9585 20.6304 55.8789 20.6057 55.805Z" fill="#5B00F6"/>
<g opacity="0.5">
<path d="M50.6057 55.805C50.5822 55.7322 50.5372 55.668 50.4765 55.6208C50.4157 55.5737 50.3421 55.5459 50.2651 55.5409L48.8731 55.4443L48.3568 54.1551C48.3288 54.0838 48.2798 54.0226 48.2162 53.9794C48.1525 53.9362 48.0772 53.9131 48.0001 53.9131H47.9997C47.9227 53.9132 47.8475 53.9364 47.784 53.9796C47.7205 54.0227 47.6716 54.0839 47.6437 54.1551L47.1197 55.4517L45.7354 55.5409C45.6584 55.5459 45.5848 55.5737 45.524 55.6208C45.4633 55.668 45.4183 55.7322 45.3948 55.805C45.3701 55.8789 45.3685 55.9585 45.39 56.0334C45.4116 56.1082 45.4554 56.1749 45.5157 56.2248L46.5806 57.1173L46.2639 58.3527C46.242 58.4359 46.246 58.5238 46.2754 58.6047C46.3047 58.6856 46.358 58.7558 46.4283 58.8062C46.4961 58.8552 46.5773 58.8827 46.6611 58.8853C46.745 58.8879 46.8277 58.8654 46.8985 58.8208L47.9971 58.1307C47.9986 58.1296 48.0001 58.1289 48.0034 58.1307L49.1855 58.8732C49.2497 58.9139 49.3247 58.9344 49.4008 58.932C49.477 58.9297 49.5506 58.9047 49.6121 58.8602C49.6758 58.8145 49.7241 58.7509 49.7507 58.6776C49.7773 58.6043 49.7809 58.5247 49.7612 58.4493L49.4246 57.0997L50.4848 56.2248C50.5451 56.1749 50.5889 56.1082 50.6105 56.0334C50.632 55.9585 50.6304 55.8789 50.6057 55.805Z" fill="#BDBDBD"/>
</g>
<mask id="mask0" mask-type="alpha" maskUnits="userSpaceOnUse" x="1" y="0" width="65" height="71">
<path d="M64.8267 8.39425C64.6599 7.40689 63.9509 6.57037 63.0057 6.21383C47.7011 0.358227 33.4947 0.481647 33.4947 0.481647C33.4947 0.481647 19.3021 0.358227 3.99752 6.21383C3.03838 6.57037 2.34334 7.40689 2.17654 8.39425C-0.631391 24.5623 2.46845 42.6365 2.46845 42.6365C2.46845 42.6365 5.7073 60.2307 32.4382 70.2963C33.1054 70.5432 33.8839 70.5432 34.5511 70.2963C61.2959 60.2307 64.5209 42.6365 64.5209 42.6365C64.5209 42.6365 67.6346 24.5623 64.8267 8.39425Z" fill="#7C52FF"/>
</mask>
<g mask="url(#mask0)">
<rect opacity="0.25" width="84.5223" height="24.4376" transform="matrix(0.883358 -0.468699 0.531967 0.846765 -7.66602 40.6133)" fill="white"/>
<rect opacity="0.25" width="84.5223" height="4.86235" transform="matrix(0.883358 -0.468699 0.531967 0.846765 3.16602 67.4941)" fill="white"/>
</g>
<defs>
<filter id="filter0_i" x="4" y="3.48193" width="59" height="64" filterUnits="userSpaceOnUse" color-interpolation-filters="sRGB">
<feFlood flood-opacity="0" result="BackgroundImageFix"/>
<feBlend mode="normal" in="SourceGraphic" in2="BackgroundImageFix" result="shape"/>
<feColorMatrix in="SourceAlpha" type="matrix" values="0 0 0 0 0 0 0 0 0 0 0 0 0 0 0 0 0 0 127 0" result="hardAlpha"/>
<feOffset/>
<feGaussianBlur stdDeviation="1.5"/>
<feComposite in2="hardAlpha" operator="arithmetic" k2="-1" k3="1"/>
<feColorMatrix type="matrix" values="0 0 0 0 0 0 0 0 0 0 0 0 0 0 0 0 0 0 0.25 0"/>
<feBlend mode="normal" in2="shape" result="effect1_innerShadow"/>
</filter>
<linearGradient id="paint0_linear" x1="33.5" y1="3.48193" x2="38.08" y2="73.5396" gradientUnits="userSpaceOnUse">
<stop stop-color="#5F00FF"/>
<stop offset="1" stop-color="#9A5FFF"/>
</linearGradient>
<linearGradient id="paint1_linear" x1="34" y1="12.9448" x2="34" y2="52.7683" gradientUnits="userSpaceOnUse">
<stop stop-color="#C4C4C4" stop-opacity="0"/>
<stop offset="1" stop-color="#FC7BFF"/>
</linearGradient>
</defs>
</svg>
