<svg width="381" height="159" viewBox="0 0 381 159" fill="none" xmlns="http://www.w3.org/2000/svg">
<path d="M26.5 67V134" stroke="#828282" stroke-width="0.5" stroke-dasharray="2 2"/>
<path d="M135.5 81L135.5 134" stroke="#828282" stroke-width="0.5" stroke-dasharray="2 2"/>
<path d="M189.5 44L189.5 134" stroke="#828282" stroke-width="0.5" stroke-dasharray="2 2"/>
<path d="M245.5 26L245.5 134" stroke="#828282" stroke-width="0.5" stroke-dasharray="2 2"/>
<path d="M300.5 99L300.5 134" stroke="#828282" stroke-width="0.5" stroke-dasharray="2 2"/>
<path d="M355.5 117L355.5 134" stroke="#828282" stroke-width="0.5" stroke-dasharray="2 2"/>
<path d="M80.5 45L80.5 134" stroke="#828282" stroke-width="0.5" stroke-dasharray="2 2"/>
<path d="M19.0247 144.356L21.2207 143.6H21.7607V152H21.1247V144.296L19.1807 144.908L19.0247 144.356ZM31.4043 146H32.1243V152H31.5123V146.912L29.2683 150.452H29.1843L26.9283 146.888V152H26.3283V146H27.0363L29.2203 149.444L31.4043 146ZM38.9489 147.356V146H39.5609V152H38.9489V150.644C38.6849 151.108 38.3289 151.472 37.8809 151.736C37.4329 152 36.9289 152.132 36.3689 152.132C35.5209 152.132 34.7889 151.832 34.1729 151.232C33.5649 150.624 33.2609 149.88 33.2609 149C33.2609 148.12 33.5649 147.38 34.1729 146.78C34.7809 146.172 35.5129 145.868 36.3689 145.868C36.9289 145.868 37.4329 146 37.8809 146.264C38.3289 146.528 38.6849 146.892 38.9489 147.356ZM34.6049 150.812C35.1009 151.308 35.7049 151.556 36.4169 151.556C37.1209 151.556 37.7209 151.308 38.2169 150.812C38.7049 150.324 38.9489 149.72 38.9489 149C38.9489 148.28 38.7049 147.676 38.2169 147.188C37.7209 146.692 37.1209 146.444 36.4169 146.444C35.7049 146.444 35.1009 146.692 34.6049 147.188C34.1169 147.676 33.8729 148.28 33.8729 149C33.8729 149.72 34.1169 150.324 34.6049 150.812ZM42.8793 146H45.2553V152H44.6553V149.66H43.3593L41.4753 152H40.6953L42.6153 149.648C42.1193 149.592 41.7073 149.396 41.3793 149.06C41.0593 148.724 40.8993 148.316 40.8993 147.836C40.8993 147.3 41.0913 146.86 41.4753 146.516C41.8513 146.172 42.3193 146 42.8793 146ZM42.8793 149.084H44.6553V146.588H42.8793C42.4873 146.588 42.1593 146.708 41.8953 146.948C41.6393 147.18 41.5113 147.476 41.5113 147.836C41.5113 148.212 41.6393 148.516 41.8953 148.748C42.1593 148.972 42.4873 149.084 42.8793 149.084Z" fill="#1D1F21"/>
<path d="M343.626 146.228C343.626 146.86 343.454 147.42 343.11 147.908L340.302 152H339.582L341.73 148.868C341.418 148.956 341.11 149 340.806 149C339.974 149 339.298 148.744 338.778 148.232C338.25 147.72 337.986 147.052 337.986 146.228C337.986 145.42 338.25 144.76 338.778 144.248C339.314 143.728 339.99 143.468 340.806 143.468C341.622 143.468 342.298 143.728 342.834 144.248C343.362 144.76 343.626 145.42 343.626 146.228ZM338.634 146.228C338.634 146.876 338.83 147.396 339.222 147.788C339.622 148.188 340.15 148.388 340.806 148.388C341.462 148.388 341.99 148.188 342.39 147.788C342.79 147.388 342.99 146.868 342.99 146.228C342.99 145.596 342.786 145.08 342.378 144.68C341.978 144.28 341.454 144.08 340.806 144.08C340.158 144.08 339.634 144.28 339.234 144.68C338.834 145.08 338.634 145.596 338.634 146.228ZM352.635 146H353.355V152H352.743V146.912L350.499 150.452H350.415L348.159 146.888V152H347.559V146H348.267L350.451 149.444L352.635 146ZM360.179 147.356V146H360.791V152H360.179V150.644C359.915 151.108 359.559 151.472 359.111 151.736C358.663 152 358.159 152.132 357.599 152.132C356.751 152.132 356.019 151.832 355.403 151.232C354.795 150.624 354.491 149.88 354.491 149C354.491 148.12 354.795 147.38 355.403 146.78C356.011 146.172 356.743 145.868 357.599 145.868C358.159 145.868 358.663 146 359.111 146.264C359.559 146.528 359.915 146.892 360.179 147.356ZM355.835 150.812C356.331 151.308 356.935 151.556 357.647 151.556C358.351 151.556 358.951 151.308 359.447 150.812C359.935 150.324 360.179 149.72 360.179 149C360.179 148.28 359.935 147.676 359.447 147.188C358.951 146.692 358.351 146.444 357.647 146.444C356.935 146.444 356.331 146.692 355.835 147.188C355.347 147.676 355.103 148.28 355.103 149C355.103 149.72 355.347 150.324 355.835 150.812ZM364.11 146H366.486V152H365.886V149.66H364.59L362.706 152H361.926L363.846 149.648C363.35 149.592 362.938 149.396 362.61 149.06C362.29 148.724 362.13 148.316 362.13 147.836C362.13 147.3 362.322 146.86 362.706 146.516C363.082 146.172 363.55 146 364.11 146ZM364.11 149.084H365.886V146.588H364.11C363.718 146.588 363.39 146.708 363.126 146.948C362.87 147.18 362.742 147.476 362.742 147.836C362.742 148.212 362.87 148.516 363.126 148.748C363.39 148.972 363.718 149.084 364.11 149.084Z" fill="#1D1F21"/>
<g filter="url(#filter0_d)">
<path d="M25.5 64.22L80.3857 44.2L135.957 81.51L189.5 44L245.729 26L299.928 98.8L355.5 117" stroke="#2A80F1"/>
</g>
<g filter="url(#filter1_d)">
<circle cx="26.5" cy="64" r="2" fill="#2A80F1"/>
<circle cx="26.5" cy="64" r="1.5" stroke="#2A80F1"/>
</g>
<g filter="url(#filter2_d)">
<circle cx="80.5" cy="45" r="2" fill="#2A80F1"/>
<circle cx="80.5" cy="45" r="1.5" stroke="#2A80F1"/>
</g>
<g filter="url(#filter3_d)">
<circle cx="135.5" cy="81" r="2" fill="#2A80F1"/>
<circle cx="135.5" cy="81" r="1.5" stroke="#2A80F1"/>
</g>
<g filter="url(#filter4_d)">
<circle cx="189.5" cy="44" r="2" fill="#2A80F1"/>
<circle cx="189.5" cy="44" r="1.5" stroke="#2A80F1"/>
</g>
<g filter="url(#filter5_d)">
<circle cx="245.5" cy="26" r="2" fill="#2A80F1"/>
<circle cx="245.5" cy="26" r="1.5" stroke="#2A80F1"/>
</g>
<g filter="url(#filter6_d)">
<circle cx="300.5" cy="99" r="2" fill="#2A80F1"/>
<circle cx="300.5" cy="99" r="1.5" stroke="#2A80F1"/>
</g>
<g filter="url(#filter7_d)">
<circle cx="355.5" cy="117" r="2" fill="#2A80F1"/>
<circle cx="355.5" cy="117" r="1.5" stroke="#2A80F1"/>
</g>
<defs>
<filter id="filter0_d" x="0.829102" y="0.915039" width="379.327" height="141.06" filterUnits="userSpaceOnUse" color-interpolation-filters="sRGB">
<feFlood flood-opacity="0" result="BackgroundImageFix"/>
<feColorMatrix in="SourceAlpha" type="matrix" values="0 0 0 0 0 0 0 0 0 0 0 0 0 0 0 0 0 0 127 0"/>
<feMorphology radius="0.5" operator="dilate" in="SourceAlpha" result="effect1_dropShadow"/>
<feOffset/>
<feGaussianBlur stdDeviation="12"/>
<feColorMatrix type="matrix" values="0 0 0 0 0.164706 0 0 0 0 0.501961 0 0 0 0 0.945098 0 0 0 1 0"/>
<feBlend mode="normal" in2="BackgroundImageFix" result="effect1_dropShadow"/>
<feBlend mode="normal" in="SourceGraphic" in2="effect1_dropShadow" result="shape"/>
</filter>
<filter id="filter1_d" x="17" y="54.5" width="19" height="19" filterUnits="userSpaceOnUse" color-interpolation-filters="sRGB">
<feFlood flood-opacity="0" result="BackgroundImageFix"/>
<feColorMatrix in="SourceAlpha" type="matrix" values="0 0 0 0 0 0 0 0 0 0 0 0 0 0 0 0 0 0 127 0"/>
<feMorphology radius="0.5" operator="dilate" in="SourceAlpha" result="effect1_dropShadow"/>
<feOffset/>
<feGaussianBlur stdDeviation="3.5"/>
<feColorMatrix type="matrix" values="0 0 0 0 0.164706 0 0 0 0 0.501961 0 0 0 0 0.945098 0 0 0 0.5 0"/>
<feBlend mode="normal" in2="BackgroundImageFix" result="effect1_dropShadow"/>
<feBlend mode="normal" in="SourceGraphic" in2="effect1_dropShadow" result="shape"/>
</filter>
<filter id="filter2_d" x="71" y="35.5" width="19" height="19" filterUnits="userSpaceOnUse" color-interpolation-filters="sRGB">
<feFlood flood-opacity="0" result="BackgroundImageFix"/>
<feColorMatrix in="SourceAlpha" type="matrix" values="0 0 0 0 0 0 0 0 0 0 0 0 0 0 0 0 0 0 127 0"/>
<feMorphology radius="0.5" operator="dilate" in="SourceAlpha" result="effect1_dropShadow"/>
<feOffset/>
<feGaussianBlur stdDeviation="3.5"/>
<feColorMatrix type="matrix" values="0 0 0 0 0.164706 0 0 0 0 0.501961 0 0 0 0 0.945098 0 0 0 0.5 0"/>
<feBlend mode="normal" in2="BackgroundImageFix" result="effect1_dropShadow"/>
<feBlend mode="normal" in="SourceGraphic" in2="effect1_dropShadow" result="shape"/>
</filter>
<filter id="filter3_d" x="126" y="71.5" width="19" height="19" filterUnits="userSpaceOnUse" color-interpolation-filters="sRGB">
<feFlood flood-opacity="0" result="BackgroundImageFix"/>
<feColorMatrix in="SourceAlpha" type="matrix" values="0 0 0 0 0 0 0 0 0 0 0 0 0 0 0 0 0 0 127 0"/>
<feMorphology radius="0.5" operator="dilate" in="SourceAlpha" result="effect1_dropShadow"/>
<feOffset/>
<feGaussianBlur stdDeviation="3.5"/>
<feColorMatrix type="matrix" values="0 0 0 0 0.164706 0 0 0 0 0.501961 0 0 0 0 0.945098 0 0 0 0.5 0"/>
<feBlend mode="normal" in2="BackgroundImageFix" result="effect1_dropShadow"/>
<feBlend mode="normal" in="SourceGraphic" in2="effect1_dropShadow" result="shape"/>
</filter>
<filter id="filter4_d" x="180" y="34.5" width="19" height="19" filterUnits="userSpaceOnUse" color-interpolation-filters="sRGB">
<feFlood flood-opacity="0" result="BackgroundImageFix"/>
<feColorMatrix in="SourceAlpha" type="matrix" values="0 0 0 0 0 0 0 0 0 0 0 0 0 0 0 0 0 0 127 0"/>
<feMorphology radius="0.5" operator="dilate" in="SourceAlpha" result="effect1_dropShadow"/>
<feOffset/>
<feGaussianBlur stdDeviation="3.5"/>
<feColorMatrix type="matrix" values="0 0 0 0 0.164706 0 0 0 0 0.501961 0 0 0 0 0.945098 0 0 0 0.5 0"/>
<feBlend mode="normal" in2="BackgroundImageFix" result="effect1_dropShadow"/>
<feBlend mode="normal" in="SourceGraphic" in2="effect1_dropShadow" result="shape"/>
</filter>
<filter id="filter5_d" x="236" y="16.5" width="19" height="19" filterUnits="userSpaceOnUse" color-interpolation-filters="sRGB">
<feFlood flood-opacity="0" result="BackgroundImageFix"/>
<feColorMatrix in="SourceAlpha" type="matrix" values="0 0 0 0 0 0 0 0 0 0 0 0 0 0 0 0 0 0 127 0"/>
<feMorphology radius="0.5" operator="dilate" in="SourceAlpha" result="effect1_dropShadow"/>
<feOffset/>
<feGaussianBlur stdDeviation="3.5"/>
<feColorMatrix type="matrix" values="0 0 0 0 0.164706 0 0 0 0 0.501961 0 0 0 0 0.945098 0 0 0 0.5 0"/>
<feBlend mode="normal" in2="BackgroundImageFix" result="effect1_dropShadow"/>
<feBlend mode="normal" in="SourceGraphic" in2="effect1_dropShadow" result="shape"/>
</filter>
<filter id="filter6_d" x="291" y="89.5" width="19" height="19" filterUnits="userSpaceOnUse" color-interpolation-filters="sRGB">
<feFlood flood-opacity="0" result="BackgroundImageFix"/>
<feColorMatrix in="SourceAlpha" type="matrix" values="0 0 0 0 0 0 0 0 0 0 0 0 0 0 0 0 0 0 127 0"/>
<feMorphology radius="0.5" operator="dilate" in="SourceAlpha" result="effect1_dropShadow"/>
<feOffset/>
<feGaussianBlur stdDeviation="3.5"/>
<feColorMatrix type="matrix" values="0 0 0 0 0.164706 0 0 0 0 0.501961 0 0 0 0 0.945098 0 0 0 0.5 0"/>
<feBlend mode="normal" in2="BackgroundImageFix" result="effect1_dropShadow"/>
<feBlend mode="normal" in="SourceGraphic" in2="effect1_dropShadow" result="shape"/>
</filter>
<filter id="filter7_d" x="346" y="107.5" width="19" height="19" filterUnits="userSpaceOnUse" color-interpolation-filters="sRGB">
<feFlood flood-opacity="0" result="BackgroundImageFix"/>
<feColorMatrix in="SourceAlpha" type="matrix" values="0 0 0 0 0 0 0 0 0 0 0 0 0 0 0 0 0 0 127 0"/>
<feMorphology radius="0.5" operator="dilate" in="SourceAlpha" result="effect1_dropShadow"/>
<feOffset/>
<feGaussianBlur stdDeviation="3.5"/>
<feColorMatrix type="matrix" values="0 0 0 0 0.164706 0 0 0 0 0.501961 0 0 0 0 0.945098 0 0 0 0.5 0"/>
<feBlend mode="normal" in2="BackgroundImageFix" result="effect1_dropShadow"/>
<feBlend mode="normal" in="SourceGraphic" in2="effect1_dropShadow" result="shape"/>
</filter>
</defs>
</svg>
