<svg width="370" height="132" viewBox="0 0 370 132" fill="none" xmlns="http://www.w3.org/2000/svg">
<path d="M105 77L105 107" stroke="#828282" stroke-width="0.5" stroke-dasharray="2 2"/>
<path d="M145 67L145 107" stroke="#828282" stroke-width="0.5" stroke-dasharray="2 2"/>
<path d="M185 47L185 107" stroke="#828282" stroke-width="0.5" stroke-dasharray="2 2"/>
<path d="M225 47L225 107" stroke="#828282" stroke-width="0.5" stroke-dasharray="2 2"/>
<path d="M265 41L265 107" stroke="#828282" stroke-width="0.5" stroke-dasharray="2 2"/>
<path d="M305 41L305 107" stroke="#828282" stroke-width="0.5" stroke-dasharray="2 2"/>
<path d="M345 37L345 107" stroke="#828282" stroke-width="0.5" stroke-dasharray="2 2"/>
<path d="M65 83L65 107" stroke="#828282" stroke-width="0.5" stroke-dasharray="2 2"/>
<g filter="url(#filter0_d)">
<path d="M25 107L65 82.5L105.5 77.5L145 67L185.5 47H225L265.5 41H305L345 37" stroke="#2A80F1"/>
</g>
<g filter="url(#filter1_d)">
<circle cx="25" cy="107" r="2" fill="#2A80F1"/>
<circle cx="25" cy="107" r="1.5" stroke="#2A80F1"/>
</g>
<g filter="url(#filter2_d)">
<circle cx="65" cy="83" r="2" fill="#2A80F1"/>
<circle cx="65" cy="83" r="1.5" stroke="#2A80F1"/>
</g>
<g filter="url(#filter3_d)">
<circle cx="105" cy="77" r="2" fill="#2A80F1"/>
<circle cx="105" cy="77" r="1.5" stroke="#2A80F1"/>
</g>
<g filter="url(#filter4_d)">
<circle cx="145" cy="67" r="2" fill="#2A80F1"/>
<circle cx="145" cy="67" r="1.5" stroke="#2A80F1"/>
</g>
<g filter="url(#filter5_d)">
<circle cx="185" cy="47" r="2" fill="#2A80F1"/>
<circle cx="185" cy="47" r="1.5" stroke="#2A80F1"/>
</g>
<g filter="url(#filter6_d)">
<circle cx="225" cy="47" r="2" fill="#2A80F1"/>
<circle cx="225" cy="47" r="1.5" stroke="#2A80F1"/>
</g>
<g filter="url(#filter7_d)">
<circle cx="265" cy="41" r="2" fill="#2A80F1"/>
<circle cx="265" cy="41" r="1.5" stroke="#2A80F1"/>
</g>
<g filter="url(#filter8_d)">
<circle cx="305" cy="41" r="2" fill="#2A80F1"/>
<circle cx="305" cy="41" r="1.5" stroke="#2A80F1"/>
</g>
<g filter="url(#filter9_d)">
<circle cx="345" cy="37" r="2" fill="#2A80F1"/>
<circle cx="345" cy="37" r="1.5" stroke="#2A80F1"/>
</g>
<path d="M13.7207 112.6H14.2607V121H13.6247V113.296L11.6807 113.908L11.5247 113.356L13.7207 112.6ZM24.6243 115V121H24.0123V115.912L21.7683 119.452H21.6843L19.4283 115.888V121H18.8283V115H19.5363L21.7203 118.444L23.9043 115H24.6243ZM31.4489 115H32.0609V121H31.4489V119.644C31.1929 120.108 30.8409 120.472 30.3929 120.736C29.9449 121 29.4369 121.132 28.8689 121.132C28.0129 121.132 27.2809 120.832 26.6729 120.232C26.0649 119.624 25.7609 118.88 25.7609 118C25.7609 117.12 26.0649 116.38 26.6729 115.78C27.2809 115.172 28.0129 114.868 28.8689 114.868C29.4369 114.868 29.9449 115 30.3929 115.264C30.8409 115.528 31.1929 115.892 31.4489 116.356V115ZM27.1049 119.812C27.6009 120.308 28.2049 120.556 28.9169 120.556C29.6289 120.556 30.2289 120.308 30.7169 119.812C31.2049 119.316 31.4489 118.712 31.4489 118C31.4489 117.288 31.2049 116.684 30.7169 116.188C30.2289 115.692 29.6289 115.444 28.9169 115.444C28.2049 115.444 27.6009 115.692 27.1049 116.188C26.6169 116.684 26.3729 117.288 26.3729 118C26.3729 118.712 26.6169 119.316 27.1049 119.812ZM37.7553 115V121H37.1553V118.66H35.8593L33.9753 121H33.1953L35.1153 118.648C34.6273 118.592 34.2193 118.4 33.8913 118.072C33.5633 117.736 33.3993 117.324 33.3993 116.836C33.3993 116.3 33.5913 115.86 33.9753 115.516C34.3593 115.172 34.8273 115 35.3793 115H37.7553ZM35.3793 118.084H37.1553V115.588H35.3793C34.9953 115.588 34.6713 115.704 34.4073 115.936C34.1433 116.168 34.0113 116.468 34.0113 116.836C34.0113 117.212 34.1393 117.516 34.3953 117.748C34.6593 117.972 34.9873 118.084 35.3793 118.084Z" fill="#1D1F21"/>
<path d="M336.126 115.228C336.126 115.86 335.954 116.42 335.61 116.908L332.802 121H332.082L334.23 117.868C333.926 117.956 333.618 118 333.306 118C332.482 118 331.806 117.744 331.278 117.232C330.75 116.712 330.486 116.044 330.486 115.228C330.486 114.42 330.75 113.76 331.278 113.248C331.806 112.728 332.482 112.468 333.306 112.468C334.13 112.468 334.806 112.728 335.334 113.248C335.862 113.76 336.126 114.42 336.126 115.228ZM331.134 115.228C331.134 115.868 331.33 116.388 331.722 116.788C332.122 117.188 332.65 117.388 333.306 117.388C333.962 117.388 334.49 117.188 334.89 116.788C335.29 116.388 335.49 115.868 335.49 115.228C335.49 114.596 335.29 114.08 334.89 113.68C334.49 113.28 333.962 113.08 333.306 113.08C332.65 113.08 332.122 113.28 331.722 113.68C331.33 114.08 331.134 114.596 331.134 115.228ZM345.855 115V121H345.243V115.912L342.999 119.452H342.915L340.659 115.888V121H340.059V115H340.767L342.951 118.444L345.135 115H345.855ZM352.679 115H353.291V121H352.679V119.644C352.423 120.108 352.071 120.472 351.623 120.736C351.175 121 350.667 121.132 350.099 121.132C349.243 121.132 348.511 120.832 347.903 120.232C347.295 119.624 346.991 118.88 346.991 118C346.991 117.12 347.295 116.38 347.903 115.78C348.511 115.172 349.243 114.868 350.099 114.868C350.667 114.868 351.175 115 351.623 115.264C352.071 115.528 352.423 115.892 352.679 116.356V115ZM348.335 119.812C348.831 120.308 349.435 120.556 350.147 120.556C350.859 120.556 351.459 120.308 351.947 119.812C352.435 119.316 352.679 118.712 352.679 118C352.679 117.288 352.435 116.684 351.947 116.188C351.459 115.692 350.859 115.444 350.147 115.444C349.435 115.444 348.831 115.692 348.335 116.188C347.847 116.684 347.603 117.288 347.603 118C347.603 118.712 347.847 119.316 348.335 119.812ZM358.986 115V121H358.386V118.66H357.09L355.206 121H354.426L356.346 118.648C355.858 118.592 355.45 118.4 355.122 118.072C354.794 117.736 354.63 117.324 354.63 116.836C354.63 116.3 354.822 115.86 355.206 115.516C355.59 115.172 356.058 115 356.61 115H358.986ZM356.61 118.084H358.386V115.588H356.61C356.226 115.588 355.902 115.704 355.638 115.936C355.374 116.168 355.242 116.468 355.242 116.836C355.242 117.212 355.37 117.516 355.626 117.748C355.89 117.972 356.218 118.084 356.61 118.084Z" fill="#1D1F21"/>
<g filter="url(#filter10_d)">
<path fill-rule="evenodd" clip-rule="evenodd" d="M292 5C289.239 5 287 7.23858 287 10V20C287 22.7614 289.239 25 292 25H338.071L338 25.0711L345.071 32.1421L352.142 25.0711L352.071 24.9995C354.799 24.9618 357 22.7379 357 20V10C357 7.23858 354.761 5 352 5H292Z" fill="white"/>
</g>
<path d="M304.279 13.26C304.279 13.7933 304.139 14.2633 303.859 14.67L301.649 18H300.329L301.929 15.65H301.809C301.082 15.65 300.486 15.43 300.019 14.99C299.559 14.5433 299.329 13.9667 299.329 13.26C299.329 12.5533 299.559 11.98 300.019 11.54C300.486 11.0933 301.082 10.87 301.809 10.87C302.536 10.87 303.129 11.0933 303.589 11.54C304.049 11.98 304.279 12.5533 304.279 13.26ZM300.479 13.26C300.479 13.6467 300.602 13.96 300.849 14.2C301.102 14.44 301.422 14.56 301.809 14.56C302.196 14.56 302.512 14.4433 302.759 14.21C303.006 13.97 303.129 13.6533 303.129 13.26C303.129 12.8667 303.006 12.5533 302.759 12.32C302.512 12.08 302.196 11.96 301.809 11.96C301.422 11.96 301.102 12.08 300.849 12.32C300.602 12.5533 300.479 12.8667 300.479 13.26ZM311.598 17.14C311.118 17.8 310.445 18.13 309.578 18.13C308.711 18.13 308.035 17.8 307.548 17.14C307.068 16.48 306.828 15.6 306.828 14.5C306.828 13.4 307.068 12.52 307.548 11.86C308.035 11.2 308.711 10.87 309.578 10.87C310.445 10.87 311.118 11.2 311.598 11.86C312.085 12.52 312.328 13.4 312.328 14.5C312.328 15.6 312.085 16.48 311.598 17.14ZM309.578 17.01C310.098 17.01 310.495 16.7933 310.768 16.36C311.041 15.9267 311.178 15.3067 311.178 14.5C311.178 13.6933 311.041 13.0733 310.768 12.64C310.495 12.2067 310.098 11.99 309.578 11.99C309.065 11.99 308.668 12.2067 308.388 12.64C308.115 13.0733 307.978 13.6933 307.978 14.5C307.978 15.3067 308.115 15.9267 308.388 16.36C308.668 16.7933 309.065 17.01 309.578 17.01ZM317.597 17.14C317.117 17.8 316.444 18.13 315.577 18.13C314.71 18.13 314.034 17.8 313.547 17.14C313.067 16.48 312.827 15.6 312.827 14.5C312.827 13.4 313.067 12.52 313.547 11.86C314.034 11.2 314.71 10.87 315.577 10.87C316.444 10.87 317.117 11.2 317.597 11.86C318.084 12.52 318.327 13.4 318.327 14.5C318.327 15.6 318.084 16.48 317.597 17.14ZM315.577 17.01C316.097 17.01 316.494 16.7933 316.767 16.36C317.04 15.9267 317.177 15.3067 317.177 14.5C317.177 13.6933 317.04 13.0733 316.767 12.64C316.494 12.2067 316.097 11.99 315.577 11.99C315.064 11.99 314.667 12.2067 314.387 12.64C314.114 13.0733 313.977 13.6933 313.977 14.5C313.977 15.3067 314.114 15.9267 314.387 16.36C314.667 16.7933 315.064 17.01 315.577 17.01ZM323.596 17.14C323.116 17.8 322.442 18.13 321.576 18.13C320.709 18.13 320.032 17.8 319.546 17.14C319.066 16.48 318.826 15.6 318.826 14.5C318.826 13.4 319.066 12.52 319.546 11.86C320.032 11.2 320.709 10.87 321.576 10.87C322.442 10.87 323.116 11.2 323.596 11.86C324.082 12.52 324.326 13.4 324.326 14.5C324.326 15.6 324.082 16.48 323.596 17.14ZM321.576 17.01C322.096 17.01 322.492 16.7933 322.766 16.36C323.039 15.9267 323.176 15.3067 323.176 14.5C323.176 13.6933 323.039 13.0733 322.766 12.64C322.492 12.2067 322.096 11.99 321.576 11.99C321.062 11.99 320.666 12.2067 320.386 12.64C320.112 13.0733 319.976 13.6933 319.976 14.5C319.976 15.3067 320.112 15.9267 320.386 16.36C320.666 16.7933 321.062 17.01 321.576 17.01ZM331.795 17.14C331.315 17.8 330.641 18.13 329.775 18.13C328.908 18.13 328.231 17.8 327.745 17.14C327.265 16.48 327.025 15.6 327.025 14.5C327.025 13.4 327.265 12.52 327.745 11.86C328.231 11.2 328.908 10.87 329.775 10.87C330.641 10.87 331.315 11.2 331.795 11.86C332.281 12.52 332.525 13.4 332.525 14.5C332.525 15.6 332.281 16.48 331.795 17.14ZM329.775 17.01C330.295 17.01 330.691 16.7933 330.965 16.36C331.238 15.9267 331.375 15.3067 331.375 14.5C331.375 13.6933 331.238 13.0733 330.965 12.64C330.691 12.2067 330.295 11.99 329.775 11.99C329.261 11.99 328.865 12.2067 328.585 12.64C328.311 13.0733 328.175 13.6933 328.175 14.5C328.175 15.3067 328.311 15.9267 328.585 16.36C328.865 16.7933 329.261 17.01 329.775 17.01ZM337.793 17.14C337.313 17.8 336.64 18.13 335.773 18.13C334.907 18.13 334.23 17.8 333.743 17.14C333.263 16.48 333.023 15.6 333.023 14.5C333.023 13.4 333.263 12.52 333.743 11.86C334.23 11.2 334.907 10.87 335.773 10.87C336.64 10.87 337.313 11.2 337.793 11.86C338.28 12.52 338.523 13.4 338.523 14.5C338.523 15.6 338.28 16.48 337.793 17.14ZM335.773 17.01C336.293 17.01 336.69 16.7933 336.963 16.36C337.237 15.9267 337.373 15.3067 337.373 14.5C337.373 13.6933 337.237 13.0733 336.963 12.64C336.69 12.2067 336.293 11.99 335.773 11.99C335.26 11.99 334.863 12.2067 334.583 12.64C334.31 13.0733 334.173 13.6933 334.173 14.5C334.173 15.3067 334.31 15.9267 334.583 16.36C334.863 16.7933 335.26 17.01 335.773 17.01ZM343.792 17.14C343.312 17.8 342.639 18.13 341.772 18.13C340.906 18.13 340.229 17.8 339.742 17.14C339.262 16.48 339.022 15.6 339.022 14.5C339.022 13.4 339.262 12.52 339.742 11.86C340.229 11.2 340.906 10.87 341.772 10.87C342.639 10.87 343.312 11.2 343.792 11.86C344.279 12.52 344.522 13.4 344.522 14.5C344.522 15.6 344.279 16.48 343.792 17.14ZM341.772 17.01C342.292 17.01 342.689 16.7933 342.962 16.36C343.236 15.9267 343.372 15.3067 343.372 14.5C343.372 13.6933 343.236 13.0733 342.962 12.64C342.689 12.2067 342.292 11.99 341.772 11.99C341.259 11.99 340.862 12.2067 340.582 12.64C340.309 13.0733 340.172 13.6933 340.172 14.5C340.172 15.3067 340.309 15.9267 340.582 16.36C340.862 16.7933 341.259 17.01 341.772 17.01Z" fill="#1D1F21"/>
<g filter="url(#filter11_d)">
<path fill-rule="evenodd" clip-rule="evenodd" d="M58 74C60.7614 74 63 76.2386 63 79V89C63 91.7614 60.7614 94 58 94H31.929L32 94.0711L24.929 101.142L17.8579 94.0711L17.9294 93.9995C15.2005 93.9618 13 91.7379 13 89V79C13 76.2386 15.2386 74 18 74H58Z" fill="white"/>
</g>
<path d="M22.0126 80H23.0126V87H21.8626V81.23L20.4526 81.63L20.1726 80.65L22.0126 80ZM28.6333 86.14C28.1533 86.8 27.4799 87.13 26.6133 87.13C25.7466 87.13 25.0699 86.8 24.5833 86.14C24.1033 85.48 23.8633 84.6 23.8633 83.5C23.8633 82.4 24.1033 81.52 24.5833 80.86C25.0699 80.2 25.7466 79.87 26.6133 79.87C27.4799 79.87 28.1533 80.2 28.6333 80.86C29.1199 81.52 29.3633 82.4 29.3633 83.5C29.3633 84.6 29.1199 85.48 28.6333 86.14ZM26.6133 86.01C27.1333 86.01 27.5299 85.7933 27.8033 85.36C28.0766 84.9267 28.2133 84.3067 28.2133 83.5C28.2133 82.6933 28.0766 82.0733 27.8033 81.64C27.5299 81.2067 27.1333 80.99 26.6133 80.99C26.0999 80.99 25.7033 81.2067 25.4233 81.64C25.1499 82.0733 25.0133 82.6933 25.0133 83.5C25.0133 84.3067 25.1499 84.9267 25.4233 85.36C25.7033 85.7933 26.0999 86.01 26.6133 86.01ZM34.6321 86.14C34.1521 86.8 33.4788 87.13 32.6121 87.13C31.7454 87.13 31.0688 86.8 30.5821 86.14C30.1021 85.48 29.8621 84.6 29.8621 83.5C29.8621 82.4 30.1021 81.52 30.5821 80.86C31.0688 80.2 31.7454 79.87 32.6121 79.87C33.4788 79.87 34.1521 80.2 34.6321 80.86C35.1188 81.52 35.3621 82.4 35.3621 83.5C35.3621 84.6 35.1188 85.48 34.6321 86.14ZM32.6121 86.01C33.1321 86.01 33.5288 85.7933 33.8021 85.36C34.0754 84.9267 34.2121 84.3067 34.2121 83.5C34.2121 82.6933 34.0754 82.0733 33.8021 81.64C33.5288 81.2067 33.1321 80.99 32.6121 80.99C32.0988 80.99 31.7021 81.2067 31.4221 81.64C31.1488 82.0733 31.0121 82.6933 31.0121 83.5C31.0121 84.3067 31.1488 84.9267 31.4221 85.36C31.7021 85.7933 32.0988 86.01 32.6121 86.01ZM42.8309 86.14C42.3509 86.8 41.6776 87.13 40.8109 87.13C39.9443 87.13 39.2676 86.8 38.7809 86.14C38.3009 85.48 38.0609 84.6 38.0609 83.5C38.0609 82.4 38.3009 81.52 38.7809 80.86C39.2676 80.2 39.9443 79.87 40.8109 79.87C41.6776 79.87 42.3509 80.2 42.8309 80.86C43.3176 81.52 43.5609 82.4 43.5609 83.5C43.5609 84.6 43.3176 85.48 42.8309 86.14ZM40.8109 86.01C41.3309 86.01 41.7276 85.7933 42.0009 85.36C42.2743 84.9267 42.4109 84.3067 42.4109 83.5C42.4109 82.6933 42.2743 82.0733 42.0009 81.64C41.7276 81.2067 41.3309 80.99 40.8109 80.99C40.2976 80.99 39.9009 81.2067 39.6209 81.64C39.3476 82.0733 39.2109 82.6933 39.2109 83.5C39.2109 84.3067 39.3476 84.9267 39.6209 85.36C39.9009 85.7933 40.2976 86.01 40.8109 86.01ZM48.8298 86.14C48.3498 86.8 47.6764 87.13 46.8098 87.13C45.9431 87.13 45.2664 86.8 44.7798 86.14C44.2998 85.48 44.0598 84.6 44.0598 83.5C44.0598 82.4 44.2998 81.52 44.7798 80.86C45.2664 80.2 45.9431 79.87 46.8098 79.87C47.6764 79.87 48.3498 80.2 48.8298 80.86C49.3164 81.52 49.5598 82.4 49.5598 83.5C49.5598 84.6 49.3164 85.48 48.8298 86.14ZM46.8098 86.01C47.3298 86.01 47.7264 85.7933 47.9998 85.36C48.2731 84.9267 48.4098 84.3067 48.4098 83.5C48.4098 82.6933 48.2731 82.0733 47.9998 81.64C47.7264 81.2067 47.3298 80.99 46.8098 80.99C46.2964 80.99 45.8998 81.2067 45.6198 81.64C45.3464 82.0733 45.2098 82.6933 45.2098 83.5C45.2098 84.3067 45.3464 84.9267 45.6198 85.36C45.8998 85.7933 46.2964 86.01 46.8098 86.01ZM54.8286 86.14C54.3486 86.8 53.6753 87.13 52.8086 87.13C51.9419 87.13 51.2653 86.8 50.7786 86.14C50.2986 85.48 50.0586 84.6 50.0586 83.5C50.0586 82.4 50.2986 81.52 50.7786 80.86C51.2653 80.2 51.9419 79.87 52.8086 79.87C53.6753 79.87 54.3486 80.2 54.8286 80.86C55.3153 81.52 55.5586 82.4 55.5586 83.5C55.5586 84.6 55.3153 85.48 54.8286 86.14ZM52.8086 86.01C53.3286 86.01 53.7253 85.7933 53.9986 85.36C54.2719 84.9267 54.4086 84.3067 54.4086 83.5C54.4086 82.6933 54.2719 82.0733 53.9986 81.64C53.7253 81.2067 53.3286 80.99 52.8086 80.99C52.2953 80.99 51.8986 81.2067 51.6186 81.64C51.3453 82.0733 51.2086 82.6933 51.2086 83.5C51.2086 84.3067 51.3453 84.9267 51.6186 85.36C51.8986 85.7933 52.2953 86.01 52.8086 86.01Z" fill="#1D1F21"/>
<defs>
<filter id="filter0_d" x="0.239258" y="12.0029" width="369.311" height="119.924" filterUnits="userSpaceOnUse" color-interpolation-filters="sRGB">
<feFlood flood-opacity="0" result="BackgroundImageFix"/>
<feColorMatrix in="SourceAlpha" type="matrix" values="0 0 0 0 0 0 0 0 0 0 0 0 0 0 0 0 0 0 127 0"/>
<feMorphology radius="0.5" operator="dilate" in="SourceAlpha" result="effect1_dropShadow"/>
<feOffset/>
<feGaussianBlur stdDeviation="12"/>
<feColorMatrix type="matrix" values="0 0 0 0 0.164706 0 0 0 0 0.501961 0 0 0 0 0.945098 0 0 0 1 0"/>
<feBlend mode="normal" in2="BackgroundImageFix" result="effect1_dropShadow"/>
<feBlend mode="normal" in="SourceGraphic" in2="effect1_dropShadow" result="shape"/>
</filter>
<filter id="filter1_d" x="15.5" y="97.5" width="19" height="19" filterUnits="userSpaceOnUse" color-interpolation-filters="sRGB">
<feFlood flood-opacity="0" result="BackgroundImageFix"/>
<feColorMatrix in="SourceAlpha" type="matrix" values="0 0 0 0 0 0 0 0 0 0 0 0 0 0 0 0 0 0 127 0"/>
<feMorphology radius="0.5" operator="dilate" in="SourceAlpha" result="effect1_dropShadow"/>
<feOffset/>
<feGaussianBlur stdDeviation="3.5"/>
<feColorMatrix type="matrix" values="0 0 0 0 0.164706 0 0 0 0 0.501961 0 0 0 0 0.945098 0 0 0 0.5 0"/>
<feBlend mode="normal" in2="BackgroundImageFix" result="effect1_dropShadow"/>
<feBlend mode="normal" in="SourceGraphic" in2="effect1_dropShadow" result="shape"/>
</filter>
<filter id="filter2_d" x="55.5" y="73.5" width="19" height="19" filterUnits="userSpaceOnUse" color-interpolation-filters="sRGB">
<feFlood flood-opacity="0" result="BackgroundImageFix"/>
<feColorMatrix in="SourceAlpha" type="matrix" values="0 0 0 0 0 0 0 0 0 0 0 0 0 0 0 0 0 0 127 0"/>
<feMorphology radius="0.5" operator="dilate" in="SourceAlpha" result="effect1_dropShadow"/>
<feOffset/>
<feGaussianBlur stdDeviation="3.5"/>
<feColorMatrix type="matrix" values="0 0 0 0 0.164706 0 0 0 0 0.501961 0 0 0 0 0.945098 0 0 0 0.5 0"/>
<feBlend mode="normal" in2="BackgroundImageFix" result="effect1_dropShadow"/>
<feBlend mode="normal" in="SourceGraphic" in2="effect1_dropShadow" result="shape"/>
</filter>
<filter id="filter3_d" x="95.5" y="67.5" width="19" height="19" filterUnits="userSpaceOnUse" color-interpolation-filters="sRGB">
<feFlood flood-opacity="0" result="BackgroundImageFix"/>
<feColorMatrix in="SourceAlpha" type="matrix" values="0 0 0 0 0 0 0 0 0 0 0 0 0 0 0 0 0 0 127 0"/>
<feMorphology radius="0.5" operator="dilate" in="SourceAlpha" result="effect1_dropShadow"/>
<feOffset/>
<feGaussianBlur stdDeviation="3.5"/>
<feColorMatrix type="matrix" values="0 0 0 0 0.164706 0 0 0 0 0.501961 0 0 0 0 0.945098 0 0 0 0.5 0"/>
<feBlend mode="normal" in2="BackgroundImageFix" result="effect1_dropShadow"/>
<feBlend mode="normal" in="SourceGraphic" in2="effect1_dropShadow" result="shape"/>
</filter>
<filter id="filter4_d" x="135.5" y="57.5" width="19" height="19" filterUnits="userSpaceOnUse" color-interpolation-filters="sRGB">
<feFlood flood-opacity="0" result="BackgroundImageFix"/>
<feColorMatrix in="SourceAlpha" type="matrix" values="0 0 0 0 0 0 0 0 0 0 0 0 0 0 0 0 0 0 127 0"/>
<feMorphology radius="0.5" operator="dilate" in="SourceAlpha" result="effect1_dropShadow"/>
<feOffset/>
<feGaussianBlur stdDeviation="3.5"/>
<feColorMatrix type="matrix" values="0 0 0 0 0.164706 0 0 0 0 0.501961 0 0 0 0 0.945098 0 0 0 0.5 0"/>
<feBlend mode="normal" in2="BackgroundImageFix" result="effect1_dropShadow"/>
<feBlend mode="normal" in="SourceGraphic" in2="effect1_dropShadow" result="shape"/>
</filter>
<filter id="filter5_d" x="175.5" y="37.5" width="19" height="19" filterUnits="userSpaceOnUse" color-interpolation-filters="sRGB">
<feFlood flood-opacity="0" result="BackgroundImageFix"/>
<feColorMatrix in="SourceAlpha" type="matrix" values="0 0 0 0 0 0 0 0 0 0 0 0 0 0 0 0 0 0 127 0"/>
<feMorphology radius="0.5" operator="dilate" in="SourceAlpha" result="effect1_dropShadow"/>
<feOffset/>
<feGaussianBlur stdDeviation="3.5"/>
<feColorMatrix type="matrix" values="0 0 0 0 0.164706 0 0 0 0 0.501961 0 0 0 0 0.945098 0 0 0 0.5 0"/>
<feBlend mode="normal" in2="BackgroundImageFix" result="effect1_dropShadow"/>
<feBlend mode="normal" in="SourceGraphic" in2="effect1_dropShadow" result="shape"/>
</filter>
<filter id="filter6_d" x="215.5" y="37.5" width="19" height="19" filterUnits="userSpaceOnUse" color-interpolation-filters="sRGB">
<feFlood flood-opacity="0" result="BackgroundImageFix"/>
<feColorMatrix in="SourceAlpha" type="matrix" values="0 0 0 0 0 0 0 0 0 0 0 0 0 0 0 0 0 0 127 0"/>
<feMorphology radius="0.5" operator="dilate" in="SourceAlpha" result="effect1_dropShadow"/>
<feOffset/>
<feGaussianBlur stdDeviation="3.5"/>
<feColorMatrix type="matrix" values="0 0 0 0 0.164706 0 0 0 0 0.501961 0 0 0 0 0.945098 0 0 0 0.5 0"/>
<feBlend mode="normal" in2="BackgroundImageFix" result="effect1_dropShadow"/>
<feBlend mode="normal" in="SourceGraphic" in2="effect1_dropShadow" result="shape"/>
</filter>
<filter id="filter7_d" x="255.5" y="31.5" width="19" height="19" filterUnits="userSpaceOnUse" color-interpolation-filters="sRGB">
<feFlood flood-opacity="0" result="BackgroundImageFix"/>
<feColorMatrix in="SourceAlpha" type="matrix" values="0 0 0 0 0 0 0 0 0 0 0 0 0 0 0 0 0 0 127 0"/>
<feMorphology radius="0.5" operator="dilate" in="SourceAlpha" result="effect1_dropShadow"/>
<feOffset/>
<feGaussianBlur stdDeviation="3.5"/>
<feColorMatrix type="matrix" values="0 0 0 0 0.164706 0 0 0 0 0.501961 0 0 0 0 0.945098 0 0 0 0.5 0"/>
<feBlend mode="normal" in2="BackgroundImageFix" result="effect1_dropShadow"/>
<feBlend mode="normal" in="SourceGraphic" in2="effect1_dropShadow" result="shape"/>
</filter>
<filter id="filter8_d" x="295.5" y="31.5" width="19" height="19" filterUnits="userSpaceOnUse" color-interpolation-filters="sRGB">
<feFlood flood-opacity="0" result="BackgroundImageFix"/>
<feColorMatrix in="SourceAlpha" type="matrix" values="0 0 0 0 0 0 0 0 0 0 0 0 0 0 0 0 0 0 127 0"/>
<feMorphology radius="0.5" operator="dilate" in="SourceAlpha" result="effect1_dropShadow"/>
<feOffset/>
<feGaussianBlur stdDeviation="3.5"/>
<feColorMatrix type="matrix" values="0 0 0 0 0.164706 0 0 0 0 0.501961 0 0 0 0 0.945098 0 0 0 0.5 0"/>
<feBlend mode="normal" in2="BackgroundImageFix" result="effect1_dropShadow"/>
<feBlend mode="normal" in="SourceGraphic" in2="effect1_dropShadow" result="shape"/>
</filter>
<filter id="filter9_d" x="335.5" y="27.5" width="19" height="19" filterUnits="userSpaceOnUse" color-interpolation-filters="sRGB">
<feFlood flood-opacity="0" result="BackgroundImageFix"/>
<feColorMatrix in="SourceAlpha" type="matrix" values="0 0 0 0 0 0 0 0 0 0 0 0 0 0 0 0 0 0 127 0"/>
<feMorphology radius="0.5" operator="dilate" in="SourceAlpha" result="effect1_dropShadow"/>
<feOffset/>
<feGaussianBlur stdDeviation="3.5"/>
<feColorMatrix type="matrix" values="0 0 0 0 0.164706 0 0 0 0 0.501961 0 0 0 0 0.945098 0 0 0 0.5 0"/>
<feBlend mode="normal" in2="BackgroundImageFix" result="effect1_dropShadow"/>
<feBlend mode="normal" in="SourceGraphic" in2="effect1_dropShadow" result="shape"/>
</filter>
<filter id="filter10_d" x="282" y="0" width="80" height="37.1421" filterUnits="userSpaceOnUse" color-interpolation-filters="sRGB">
<feFlood flood-opacity="0" result="BackgroundImageFix"/>
<feColorMatrix in="SourceAlpha" type="matrix" values="0 0 0 0 0 0 0 0 0 0 0 0 0 0 0 0 0 0 127 0"/>
<feOffset/>
<feGaussianBlur stdDeviation="2.5"/>
<feColorMatrix type="matrix" values="0 0 0 0 0.164706 0 0 0 0 0.501961 0 0 0 0 0.945098 0 0 0 0.15 0"/>
<feBlend mode="normal" in2="BackgroundImageFix" result="effect1_dropShadow"/>
<feBlend mode="normal" in="SourceGraphic" in2="effect1_dropShadow" result="shape"/>
</filter>
<filter id="filter11_d" x="8" y="69" width="60" height="37.1421" filterUnits="userSpaceOnUse" color-interpolation-filters="sRGB">
<feFlood flood-opacity="0" result="BackgroundImageFix"/>
<feColorMatrix in="SourceAlpha" type="matrix" values="0 0 0 0 0 0 0 0 0 0 0 0 0 0 0 0 0 0 127 0"/>
<feOffset/>
<feGaussianBlur stdDeviation="2.5"/>
<feColorMatrix type="matrix" values="0 0 0 0 0.164706 0 0 0 0 0.501961 0 0 0 0 0.945098 0 0 0 0.15 0"/>
<feBlend mode="normal" in2="BackgroundImageFix" result="effect1_dropShadow"/>
<feBlend mode="normal" in="SourceGraphic" in2="effect1_dropShadow" result="shape"/>
</filter>
</defs>
</svg>
