<svg width="70" height="71" viewBox="0 0 70 71" fill="none" xmlns="http://www.w3.org/2000/svg">
<ellipse cx="35" cy="34.6143" rx="35" ry="34.6143" fill="#01B1EE"/>
<path d="M65.5 34.6144C65.5 51.2652 51.8499 64.7727 35 64.7727C18.1501 64.7727 4.5 51.2652 4.5 34.6144C4.5 17.9636 18.1501 4.45605 35 4.45605C51.8499 4.45605 65.5 17.9636 65.5 34.6144Z" stroke="#0268FD"/>
<mask id="mask0" mask-type="alpha" maskUnits="userSpaceOnUse" x="4" y="3" width="62" height="63">
<ellipse cx="35" cy="34.6144" rx="31" ry="30.6583" fill="#01B1EE"/>
</mask>
<g mask="url(#mask0)">
<ellipse cx="35" cy="34.6144" rx="31" ry="30.6583" fill="url(#paint0_linear)"/>
<rect x="4" y="38.5703" width="62" height="28.6804" fill="#003EFF"/>
<path d="M26 -1.97803H44L64 68.2395H6L26 -1.97803Z" fill="url(#paint1_linear)"/>
<path d="M35 13.9995L41.1717 26.367L54.9722 28.3502L44.9861 37.977L47.3435 51.5702L35 45.1523L22.6565 51.5702L25.0139 37.977L15.0278 28.3502L28.8283 26.367L35 13.9995Z" fill="white"/>
<path d="M35 13.9995L41.1717 26.367L54.9722 28.3502L44.9861 37.977L47.3435 51.5702L35 45.1523L22.6565 51.5702L25.0139 37.977L15.0278 28.3502L28.8283 26.367L35 13.9995Z" fill="white"/>
<path d="M40.7849 26.2703L34.4619 13.9995V44.9087L47.1078 51.2764L44.6927 37.7895L54.9235 28.238L40.7849 26.2703Z" fill="#F0F8FF"/>
<rect opacity="0.25" width="79.3637" height="23.8019" transform="matrix(0.868408 -0.49585 0.504162 0.863609 -6 40.3418)" fill="white"/>
<rect opacity="0.25" width="79.3637" height="4.73586" transform="matrix(0.868408 -0.49585 0.504162 0.863609 4 67.0439)" fill="white"/>
</g>
<ellipse cx="18" cy="7.91183" rx="1" ry="0.988979" fill="white"/>
<path d="M15 67.8949L4.86933 70L7.19094 63.939L3 59.5051L9.00003 58L10.186 65.0475" fill="#CBD7EE"/>
<path d="M15 67.8949L4.86933 70L7.19094 63.939L3 59.5051L9.00003 58L10.186 65.0475" stroke="#EEF5FF" stroke-miterlimit="10"/>
<path d="M10 65L15 68V63L10 65Z" fill="#8D98C6"/>
<path d="M55 67.8949L65.1307 70L62.8191 63.939L67 59.5051L61 58L59.814 65.0475" fill="#CBD7EE"/>
<path d="M55 67.8949L65.1307 70L62.8191 63.939L67 59.5051L61 58L59.814 65.0475" stroke="#EEF5FF" stroke-miterlimit="10"/>
<path d="M60 65L55 68V63L60 65Z" fill="#8D98C6"/>
<path d="M33.3623 51.0391C28.1514 51.2893 12.0422 52.2903 7 55.1575L9.87844 65C9.87844 65 23.8735 61.4133 35 61.4133C46.1266 61.4133 60.1216 65 60.1216 65L63 55.1575C57.9578 52.3007 41.8486 51.2998 36.6377 51.0391C35.5459 50.987 34.464 50.987 33.3623 51.0391Z" fill="#EDF7FF"/>
<path d="M60 55.9452C53.1887 54.0164 41.5319 53.2603 37.2525 53.0411C36.1503 52.9863 35.0681 52.9863 33.9659 53.0411C29.6369 53.2603 17.7915 54.0274 11 56" stroke="white" stroke-width="2" stroke-miterlimit="10"/>
<path d="M39.3428 55.3476C39.3037 55.2261 39.2287 55.1191 39.1275 55.0406C39.0262 54.9621 38.9034 54.9156 38.7751 54.9073L36.4552 54.7463L35.5946 52.5977C35.548 52.4789 35.4663 52.3768 35.3603 52.3049C35.2542 52.2329 35.1286 52.1944 35.0001 52.1943H34.9995C34.8712 52.1946 34.7459 52.2332 34.64 52.3051C34.5342 52.3771 34.4527 52.4791 34.4062 52.5977L33.5328 54.7587L31.2257 54.9073C31.0974 54.9156 30.9746 54.9621 30.8734 55.0406C30.7721 55.1191 30.6971 55.2261 30.6581 55.3476C30.6169 55.4707 30.6141 55.6034 30.65 55.7281C30.686 55.8529 30.7589 55.9641 30.8595 56.0471L32.6344 57.5346L32.1064 59.5937C32.07 59.7324 32.0767 59.8788 32.1256 60.0136C32.1745 60.1485 32.2634 60.2656 32.3805 60.3496C32.4936 60.4311 32.6288 60.4771 32.7686 60.4814C32.9083 60.4857 33.0462 60.4482 33.1642 60.3738L34.9952 59.2237C34.9977 59.2218 35.0001 59.2206 35.0056 59.2237L36.9758 60.4612C37.0828 60.529 37.2079 60.5632 37.3347 60.5593C37.4616 60.5554 37.5843 60.5136 37.6869 60.4394C37.793 60.3634 37.8735 60.2573 37.9178 60.1351C37.9621 60.013 37.9682 59.8804 37.9353 59.7547L37.3744 57.5053L39.1413 56.0471C39.2419 55.9641 39.3149 55.8529 39.3508 55.7281C39.3867 55.6034 39.3839 55.4707 39.3428 55.3476Z" fill="#5B00F6"/>
<g opacity="0.5">
<path d="M45.6057 56.8138C45.5822 56.7409 45.5372 56.6768 45.4765 56.6296C45.4157 56.5825 45.3421 56.5546 45.2651 56.5497L43.8731 56.4531L43.3568 55.1639C43.3288 55.0926 43.2798 55.0314 43.2162 54.9882C43.1525 54.945 43.0772 54.9219 43.0001 54.9219H42.9997C42.9227 54.922 42.8475 54.9452 42.784 54.9884C42.7205 55.0315 42.6716 55.0927 42.6437 55.1639L42.1197 56.4605L40.7354 56.5497C40.6584 56.5546 40.5848 56.5825 40.524 56.6296C40.4633 56.6768 40.4183 56.7409 40.3948 56.8138C40.3701 56.8877 40.3685 56.9673 40.39 57.0422C40.4116 57.117 40.4554 57.1837 40.5157 57.2336L41.5806 58.1261L41.2639 59.3615C41.242 59.4447 41.246 59.5325 41.2754 59.6135C41.3047 59.6944 41.358 59.7646 41.4283 59.815C41.4961 59.864 41.5773 59.8915 41.6611 59.8941C41.745 59.8967 41.8277 59.8742 41.8985 59.8295L42.9971 59.1395C42.9986 59.1384 43.0001 59.1377 43.0034 59.1395L44.1855 59.882C44.2497 59.9227 44.3247 59.9432 44.4008 59.9408C44.477 59.9385 44.5506 59.9134 44.6121 59.8689C44.6758 59.8233 44.7241 59.7597 44.7507 59.6864C44.7773 59.6131 44.7809 59.5335 44.7612 59.4581L44.4246 58.1084L45.4848 57.2336C45.5451 57.1837 45.5889 57.117 45.6105 57.0422C45.632 56.9673 45.6304 56.8877 45.6057 56.8138Z" fill="#BDBDBD"/>
</g>
<path d="M29.6057 56.8138C29.5822 56.7409 29.5372 56.6768 29.4765 56.6296C29.4157 56.5825 29.3421 56.5546 29.2651 56.5497L27.8731 56.4531L27.3568 55.1639C27.3288 55.0926 27.2798 55.0314 27.2162 54.9882C27.1525 54.945 27.0772 54.9219 27.0001 54.9219H26.9997C26.9227 54.922 26.8475 54.9452 26.784 54.9884C26.7205 55.0315 26.6716 55.0927 26.6437 55.1639L26.1197 56.4605L24.7354 56.5497C24.6584 56.5546 24.5848 56.5825 24.524 56.6296C24.4633 56.6768 24.4183 56.7409 24.3948 56.8138C24.3701 56.8877 24.3685 56.9673 24.39 57.0422C24.4116 57.117 24.4554 57.1837 24.5157 57.2336L25.5806 58.1261L25.2639 59.3615C25.242 59.4447 25.246 59.5325 25.2754 59.6135C25.3047 59.6944 25.358 59.7646 25.4283 59.815C25.4961 59.864 25.5773 59.8915 25.6611 59.8941C25.745 59.8967 25.8277 59.8742 25.8985 59.8295L26.9971 59.1395C26.9986 59.1384 27.0001 59.1377 27.0034 59.1395L28.1855 59.882C28.2497 59.9227 28.3247 59.9432 28.4008 59.9408C28.477 59.9385 28.5506 59.9134 28.6121 59.8689C28.6758 59.8233 28.7241 59.7597 28.7507 59.6864C28.7773 59.6131 28.7809 59.5335 28.7612 59.4581L28.4246 58.1084L29.4848 57.2336C29.5451 57.1837 29.5889 57.117 29.6105 57.0422C29.632 56.9673 29.6304 56.8877 29.6057 56.8138Z" fill="#5B00F6"/>
<path d="M22.6057 57.805C22.5822 57.7322 22.5372 57.668 22.4765 57.6208C22.4157 57.5737 22.3421 57.5459 22.2651 57.5409L20.8731 57.4443L20.3568 56.1551C20.3288 56.0838 20.2798 56.0226 20.2162 55.9794C20.1525 55.9362 20.0772 55.9131 20.0001 55.9131H19.9997C19.9227 55.9132 19.8475 55.9364 19.784 55.9796C19.7205 56.0227 19.6716 56.0839 19.6437 56.1551L19.1197 57.4517L17.7354 57.5409C17.6584 57.5459 17.5848 57.5737 17.524 57.6208C17.4633 57.668 17.4183 57.7322 17.3948 57.805C17.3701 57.8789 17.3685 57.9585 17.39 58.0334C17.4116 58.1082 17.4554 58.1749 17.5157 58.2248L18.5806 59.1173L18.2639 60.3527C18.242 60.4359 18.246 60.5238 18.2754 60.6047C18.3047 60.6856 18.358 60.7558 18.4283 60.8062C18.4961 60.8552 18.5773 60.8827 18.6611 60.8853C18.745 60.8879 18.8277 60.8654 18.8985 60.8208L19.9971 60.1307C19.9986 60.1296 20.0001 60.1289 20.0034 60.1307L21.1855 60.8732C21.2497 60.9139 21.3247 60.9344 21.4008 60.932C21.477 60.9297 21.5506 60.9047 21.6121 60.8602C21.6758 60.8145 21.7241 60.7509 21.7507 60.6776C21.7773 60.6043 21.7809 60.5247 21.7612 60.4493L21.4246 59.0997L22.4848 58.2248C22.5451 58.1749 22.5889 58.1082 22.6105 58.0334C22.632 57.9585 22.6304 57.8789 22.6057 57.805Z" fill="#5B00F6"/>
<g opacity="0.5">
<path d="M52.6057 57.805C52.5822 57.7322 52.5372 57.668 52.4765 57.6208C52.4157 57.5737 52.3421 57.5459 52.2651 57.5409L50.8731 57.4443L50.3568 56.1551C50.3288 56.0838 50.2798 56.0226 50.2162 55.9794C50.1525 55.9362 50.0772 55.9131 50.0001 55.9131H49.9997C49.9227 55.9132 49.8475 55.9364 49.784 55.9796C49.7205 56.0227 49.6716 56.0839 49.6437 56.1551L49.1197 57.4517L47.7354 57.5409C47.6584 57.5459 47.5848 57.5737 47.524 57.6208C47.4633 57.668 47.4183 57.7322 47.3948 57.805C47.3701 57.8789 47.3685 57.9585 47.39 58.0334C47.4116 58.1082 47.4554 58.1749 47.5157 58.2248L48.5806 59.1173L48.2639 60.3527C48.242 60.4359 48.246 60.5238 48.2754 60.6047C48.3047 60.6856 48.358 60.7558 48.4283 60.8062C48.4961 60.8552 48.5773 60.8827 48.6611 60.8853C48.745 60.8879 48.8277 60.8654 48.8985 60.8208L49.9971 60.1307C49.9986 60.1296 50.0001 60.1289 50.0034 60.1307L51.1855 60.8732C51.2497 60.9139 51.3247 60.9344 51.4008 60.932C51.477 60.9297 51.5506 60.9047 51.6121 60.8602C51.6758 60.8145 51.7241 60.7509 51.7507 60.6776C51.7773 60.6043 51.7809 60.5247 51.7612 60.4493L51.4246 59.0997L52.4848 58.2248C52.5451 58.1749 52.5889 58.1082 52.6105 58.0334C52.632 57.9585 52.6304 57.8789 52.6057 57.805Z" fill="#BDBDBD"/>
</g>
<ellipse cx="9" cy="48.4597" rx="1" ry="0.988979" fill="white"/>
<ellipse cx="43" cy="8.9006" rx="1" ry="0.988979" fill="white"/>
<ellipse cx="51" cy="66.2614" rx="1" ry="0.988979" fill="white"/>
<path d="M17.7659 48.0965C17.8469 47.88 18.1531 47.88 18.2341 48.0965L18.77 49.5286C18.7956 49.597 18.8497 49.6507 18.9182 49.6758L20.3585 50.2029C20.5772 50.2829 20.5772 50.5923 20.3585 50.6724L18.9182 51.1995C18.8497 51.2246 18.7956 51.2783 18.77 51.3466L18.2341 52.7788C18.1531 52.9953 17.8469 52.9953 17.7659 52.7788L17.23 51.3466C17.2044 51.2783 17.1503 51.2246 17.0818 51.1995L15.6415 50.6724C15.4228 50.5923 15.4228 50.2829 15.6415 50.2029L17.0818 49.6758C17.1503 49.6507 17.2044 49.597 17.23 49.5286L17.7659 48.0965Z" fill="white"/>
<path d="M22.2659 16.4495C22.3469 16.233 22.6531 16.233 22.7341 16.4495L23.1349 17.5207C23.1605 17.5891 23.2147 17.6428 23.2832 17.6679L24.3585 18.0614C24.5772 18.1415 24.5772 18.4509 24.3585 18.531L23.2832 18.9245C23.2147 18.9495 23.1605 19.0033 23.1349 19.0716L22.7341 20.1428C22.6531 20.3593 22.3469 20.3593 22.2659 20.1428L21.8651 19.0716C21.8395 19.0033 21.7853 18.9495 21.7168 18.9245L20.6415 18.531C20.4228 18.4509 20.4228 18.1415 20.6415 18.0614L21.7168 17.6679C21.7853 17.6428 21.8395 17.5891 21.8651 17.5207L22.2659 16.4495Z" fill="white"/>
<path d="M57.2659 49.0858C57.3469 48.8692 57.6531 48.8692 57.7341 49.0858L58.1349 50.157C58.1605 50.2253 58.2147 50.2791 58.2832 50.3041L59.3585 50.6976C59.5772 50.7777 59.5772 51.0871 59.3585 51.1672L58.2832 51.5607C58.2147 51.5858 58.1605 51.6395 58.1349 51.7079L57.7341 52.7791C57.6531 52.9956 57.3469 52.9956 57.2659 52.7791L56.8651 51.7079C56.8395 51.6395 56.7853 51.5858 56.7168 51.5607L55.6415 51.1672C55.4228 51.0871 55.4228 50.7777 55.6415 50.6976L56.7168 50.3041C56.7853 50.2791 56.8395 50.2253 56.8651 50.157L57.2659 49.0858Z" fill="white"/>
<ellipse cx="52.5" cy="11.3731" rx="1.5" ry="1.48347" fill="white"/>
<ellipse cx="7.5" cy="7.41755" rx="1.5" ry="1.48347" fill="white"/>
<ellipse cx="51.5" cy="19.285" rx="0.5" ry="0.494489" fill="white"/>
<defs>
<linearGradient id="paint0_linear" x1="35" y1="3.95606" x2="35" y2="65.2727" gradientUnits="userSpaceOnUse">
<stop stop-color="#0040FE"/>
<stop offset="0.494792" stop-color="#01ADB3"/>
</linearGradient>
<linearGradient id="paint1_linear" x1="35" y1="-1.97803" x2="35" y2="98.8978" gradientUnits="userSpaceOnUse">
<stop stop-color="#08E8FE"/>
<stop offset="1" stop-color="#08E8FE" stop-opacity="0"/>
</linearGradient>
</defs>
</svg>
