<svg width="59" height="19" viewBox="0 0 59 19" fill="none" xmlns="http://www.w3.org/2000/svg">
<path d="M8.89544 9.312C9.82344 9.664 10.5434 10.2 11.0554 10.92C11.5674 11.64 11.8234 12.488 11.8234 13.464C11.8234 14.872 11.2954 16.032 10.2394 16.944C9.19944 17.84 7.79144 18.288 6.01544 18.288C4.41544 18.288 3.13544 17.928 2.17544 17.208C1.21544 16.488 0.551438 15.584 0.183438 14.496L1.62344 13.68C1.83144 14.528 2.27944 15.248 2.96744 15.84C3.67144 16.416 4.68744 16.704 6.01544 16.704C7.32744 16.704 8.34344 16.408 9.06344 15.816C9.78344 15.208 10.1434 14.424 10.1434 13.464C10.1434 12.504 9.80744 11.728 9.13544 11.136C8.47944 10.528 7.56744 10.224 6.39944 10.224H4.47944V8.64H5.79944C6.93544 8.64 7.83944 8.352 8.51144 7.776C9.18344 7.2 9.51944 6.456 9.51944 5.544C9.51944 4.648 9.19144 3.92 8.53544 3.36C7.89544 2.784 7.01544 2.496 5.89544 2.496C3.83144 2.496 2.47144 3.376 1.81544 5.136L0.423438 4.32C0.839438 3.296 1.49544 2.472 2.39144 1.848C3.30344 1.224 4.47144 0.912 5.89544 0.912C7.47944 0.912 8.75944 1.36 9.73544 2.256C10.7114 3.136 11.1994 4.24 11.1994 5.568C11.1994 7.248 10.4314 8.496 8.89544 9.312ZM22.6698 6H24.2538V18H22.6698V12.768H15.7578V18H14.1738V6H15.7578V11.232H22.6698V6ZM37.6234 6H39.2074V18H37.6234V15.648C36.5194 17.408 34.9034 18.288 32.7754 18.288C31.0634 18.288 29.5994 17.68 28.3834 16.464C27.1834 15.248 26.5834 13.76 26.5834 12C26.5834 10.24 27.1834 8.752 28.3834 7.536C29.5994 6.32 31.0634 5.712 32.7754 5.712C34.9034 5.712 36.5194 6.592 37.6234 8.352V6ZM29.5354 15.384C30.4474 16.296 31.5674 16.752 32.8954 16.752C34.2234 16.752 35.3434 16.296 36.2554 15.384C37.1674 14.456 37.6234 13.328 37.6234 12C37.6234 10.672 37.1674 9.552 36.2554 8.64C35.3434 7.712 34.2234 7.248 32.8954 7.248C31.5674 7.248 30.4474 7.712 29.5354 8.64C28.6234 9.552 28.1674 10.672 28.1674 12C28.1674 13.328 28.6234 14.456 29.5354 15.384ZM52.5092 5.712C54.2693 5.712 55.7573 6.32 56.9732 7.536C58.2053 8.736 58.8213 10.224 58.8213 12C58.8213 13.776 58.2053 15.272 56.9732 16.488C55.7573 17.688 54.2693 18.288 52.5092 18.288C50.8932 18.288 49.5012 17.768 48.3332 16.728C47.1812 15.672 46.5172 14.352 46.3412 12.768H43.8452V18H42.2612V6H43.8452V11.232H46.3412C46.5172 9.648 47.1812 8.336 48.3332 7.296C49.5012 6.24 50.8932 5.712 52.5092 5.712ZM49.1492 15.384C50.0612 16.296 51.1812 16.752 52.5092 16.752C53.8372 16.752 54.9573 16.296 55.8692 15.384C56.7812 14.456 57.2372 13.328 57.2372 12C57.2372 10.672 56.7812 9.552 55.8692 8.64C54.9573 7.712 53.8372 7.248 52.5092 7.248C51.1812 7.248 50.0612 7.712 49.1492 8.64C48.2372 9.552 47.7812 10.672 47.7812 12C47.7812 13.328 48.2372 14.456 49.1492 15.384Z" fill="#BDBDBD"/>
</svg>
