<svg width="37" height="22" viewBox="0 0 37 22" fill="none" xmlns="http://www.w3.org/2000/svg">
<path d="M11.6683 0.199999H13.3962L7.80425 13.328C7.24425 14.672 6.53225 15.64 5.66825 16.232C4.80425 16.824 3.73225 17.08 2.45225 17V15.464C3.34825 15.56 4.08425 15.432 4.66025 15.08C5.25225 14.712 5.74025 14.08 6.12425 13.184L6.46025 12.392L0.676249 0.199999H2.40425L7.25225 10.52L11.6683 0.199999ZM21.8388 5H23.4228V17H21.8388V12.44C20.9108 12.92 19.7668 13.16 18.4068 13.16C16.8388 13.16 15.6388 12.8 14.8068 12.08C13.9908 11.344 13.5828 10.264 13.5828 8.84V5H15.1668V8.84C15.1668 9.848 15.4308 10.576 15.9588 11.024C16.4868 11.456 17.2868 11.672 18.3588 11.672C19.6068 11.672 20.7668 11.44 21.8388 10.976V5ZM35.1294 5H36.8094L31.6734 18.104C31.2094 19.288 30.5454 20.216 29.6814 20.888C28.8334 21.576 27.8814 21.88 26.8254 21.8V20.312C28.2654 20.472 29.3614 19.64 30.1134 17.816L30.4254 17.072L25.0494 5H26.7294L31.2414 15.056L35.1294 5Z" fill="#BDBDBD"/>
</svg>
