<svg width="33" height="32" viewBox="0 0 33 32" fill="none" xmlns="http://www.w3.org/2000/svg">
<path d="M28.4997 10.667C26.5663 10.667 25.4863 12.587 25.9263 14.0137L21.193 18.7603C20.793 18.6403 20.2063 18.6403 19.8063 18.7603L16.4063 15.3603C16.8597 13.9337 15.7797 12.0003 13.833 12.0003C11.8997 12.0003 10.8063 13.9203 11.2597 15.3603L5.17967 21.427C3.75301 20.987 1.83301 22.067 1.83301 24.0003C1.83301 25.467 3.03301 26.667 4.49967 26.667C6.43301 26.667 7.51301 24.747 7.07301 23.3203L13.1397 17.2403C13.5397 17.3603 14.1263 17.3603 14.5263 17.2403L17.9263 20.6403C17.473 22.067 18.553 24.0003 20.4997 24.0003C22.433 24.0003 23.5263 22.0803 23.073 20.6403L27.8197 15.907C29.2463 16.347 31.1663 15.267 31.1663 13.3337C31.1663 11.867 29.9663 10.667 28.4997 10.667Z" fill="#2A80F1"/>
<path d="M20.5 12L21.7533 9.24L24.5 8L21.7533 6.76L20.5 4L19.2733 6.76L16.5 8L19.2733 9.24L20.5 12Z" fill="#2A80F1"/>
<path d="M5.16634 14.6667L5.83301 12L8.49967 11.3333L5.83301 10.6667L5.16634 8L4.49967 10.6667L1.83301 11.3333L4.49967 12L5.16634 14.6667Z" fill="#2A80F1"/>
</svg>
