<svg width="30" height="34" viewBox="0 0 30 34" fill="none" xmlns="http://www.w3.org/2000/svg">
<path d="M19.2541 27.4367C23.212 25.8459 26.0077 21.9573 26.0077 17.4124C26.0077 12.5219 22.7694 8.39106 18.3293 7.06651C17.3575 6.77535 16.3278 6.61914 15.2621 6.61914C14.2416 6.61914 13.2532 6.76241 12.3174 7.02954C7.81466 8.31527 4.51562 12.4775 4.51562 17.4124C4.51562 22.0304 7.4024 25.9707 11.4625 27.5116" stroke="#2A80F1" stroke-width="1.5" stroke-miterlimit="10"/>
<path d="M4.69966 20.6211C2.9328 20.6211 1.5 19.1819 1.5 17.4072C1.5 15.6325 2.9328 14.1934 4.69966 14.1934" stroke="#2A80F1" stroke-width="1.5" stroke-miterlimit="10"/>
<path d="M25.8242 14.1992C27.592 14.1992 29.0239 15.6384 29.0239 17.4131C29.0239 19.1878 27.5911 20.6269 25.8242 20.6269" stroke="#2A80F1" stroke-width="1.5" stroke-miterlimit="10"/>
<path d="M12.3868 7.1557C12.0638 6.58816 11.8779 5.9208 11.8779 5.20723C11.8779 3.14784 13.4248 1.47852 15.3334 1.47852C17.242 1.47852 18.7889 3.14784 18.7889 5.20723C18.7889 5.92635 18.6002 6.59833 18.2736 7.16771" stroke="#2A80F1" stroke-width="1.37857" stroke-miterlimit="10"/>
<path d="M20.0304 24.1581C20.0304 26.7638 17.2844 32.4095 15.3326 32.4095C13.4718 32.4095 10.6348 26.7638 10.6348 24.1581C10.6348 21.5525 12.7384 19.4395 15.3326 19.4395C17.9267 19.4395 20.0304 21.5525 20.0304 24.1581Z" stroke="#2A80F1" stroke-width="1.69468" stroke-miterlimit="10" stroke-linecap="round"/>
<path d="M9.00781 16.067C9.76701 15.0087 11.2366 14.7693 12.2894 15.5319" stroke="#2A80F1" stroke-miterlimit="10" stroke-linecap="round"/>
<path d="M21.6595 16.067C20.9003 15.0087 19.4307 14.7693 18.3779 15.5319" stroke="#2A80F1" stroke-miterlimit="10" stroke-linecap="round"/>
<path d="M9.79297 17.2744H11.5028" stroke="#2A80F1" stroke-miterlimit="10" stroke-linecap="round"/>
<path d="M19.1641 17.1553H20.8739" stroke="#2A80F1" stroke-miterlimit="10" stroke-linecap="round"/>
<path d="M4.34319 18.8485C3.55363 18.8485 2.91406 18.2061 2.91406 17.413C2.91406 16.6199 3.55363 15.9775 4.34319 15.9775V18.8485Z" fill="#2A80F1"/>
<path d="M26.1816 15.9707C26.9712 15.9707 27.6108 16.6131 27.6108 17.4062C27.6108 18.1992 26.9712 18.8416 26.1816 18.8416V15.9707Z" fill="#2A80F1"/>
<path d="M10.0713 4.57005L15.058 3.94336" stroke="#2A80F1" stroke-width="1.33003" stroke-miterlimit="10"/>
<path d="M18.0127 3.51877L20.5986 3.19434" stroke="#2A80F1" stroke-width="1.33003" stroke-miterlimit="10"/>
<path d="M25.3824 14.0857C25.3824 14.0857 19.9475 13.5635 18.2082 10.1194C18.0619 9.8292 17.7251 9.69332 17.4196 9.80332C16.6319 10.0862 15.0739 10.4429 13.25 9.78945C12.9482 9.68131 12.6132 9.82088 12.4687 10.1083C10.735 13.5616 5.28906 14.0848 5.28906 14.0848" stroke="#2A80F1" stroke-width="1.5" stroke-miterlimit="10"/>
</svg>
