<svg width="33" height="32" viewBox="0 0 33 32" fill="none" xmlns="http://www.w3.org/2000/svg">
<path d="M27.9551 9.63574C28.7908 10.4715 29.4537 11.4636 29.906 12.5556C30.3583 13.6475 30.5911 14.8178 30.5911 15.9997C30.5911 17.1816 30.3583 18.3519 29.906 19.4439C29.4537 20.5358 28.7908 21.5279 27.9551 22.3637" stroke="#2A80F1" stroke-width="2.08696" stroke-linecap="round" stroke-linejoin="round"/>
<path d="M10.5918 21H4.5918C4.32658 21 4.07223 20.8946 3.88469 20.7071C3.69715 20.5196 3.5918 20.2652 3.5918 20V12C3.5918 11.7348 3.69715 11.4804 3.88469 11.2929C4.07223 11.1054 4.32658 11 4.5918 11H10.5918L19.5918 4V28L10.5918 21Z" stroke="#2A80F1" stroke-width="2.08696" stroke-linecap="round" stroke-linejoin="round"/>
<path d="M10.5898 11V21" stroke="#2A80F1" stroke-width="2.08696" stroke-linecap="round" stroke-linejoin="round"/>
<path d="M24.4199 13.1719C24.7914 13.5433 25.086 13.9843 25.287 14.4696C25.488 14.9549 25.5915 15.475 25.5915 16.0003C25.5915 16.5256 25.488 17.0457 25.287 17.531C25.086 18.0163 24.7914 18.4573 24.4199 18.8287" stroke="#2A80F1" stroke-width="2.08696" stroke-linecap="round" stroke-linejoin="round"/>
</svg>
