<svg width="70" height="71" viewBox="0 0 70 71" fill="none" xmlns="http://www.w3.org/2000/svg">
<path d="M31.5224 1.99076C33.6768 0.757476 36.3232 0.757475 38.4776 1.99076L61.7885 15.335C63.9669 16.582 65.3109 18.9 65.3109 21.41V47.9954C65.3109 50.5055 63.9669 52.8235 61.7885 54.0705L38.4776 67.4147C36.3232 68.648 33.6768 68.648 31.5224 67.4147L8.21148 54.0705C6.03308 52.8235 4.68911 50.5055 4.68911 47.9954V21.41C4.68911 18.9 6.03308 16.582 8.21148 15.335L31.5224 1.99076Z" fill="#A98BFF"/>
<g filter="url(#filter0_i)">
<path d="M31.5224 5.95658C33.6768 4.72329 36.3232 4.7233 38.4776 5.95658L58.3244 17.3178C60.5028 18.5648 61.8468 20.8828 61.8468 23.3928V46.0122C61.8468 48.5223 60.5028 50.8402 58.3244 52.0873L38.4776 63.4485C36.3232 64.6818 33.6768 64.6818 31.5224 63.4485L11.6756 52.0873C9.49717 50.8402 8.15321 48.5223 8.15321 46.0122V23.3928C8.15321 20.8828 9.49718 18.5648 11.6756 17.3178L31.5224 5.95658Z" fill="#3055FF"/>
</g>
<g filter="url(#filter1_i)">
<path d="M33.5668 45.3976C34.4604 44.9116 35.5396 44.9116 36.4332 45.3976L42.0935 48.4758C43.0591 49.0009 43.6603 50.0121 43.6603 51.1113V56.9637C43.6603 58.0629 43.0591 59.074 42.0935 59.5992L36.4332 62.6774C35.5396 63.1634 34.4604 63.1634 33.5668 62.6774L27.9065 59.5992C26.9409 59.074 26.3397 58.0629 26.3397 56.9637V51.1113C26.3397 50.0121 26.9409 49.0009 27.9065 48.4758L33.5668 45.3976Z" fill="#FE7E01"/>
</g>
<ellipse cx="18" cy="5.94903" rx="1" ry="0.991507" fill="white"/>
<ellipse cx="9" cy="46.6009" rx="1" ry="0.991507" fill="white"/>
<ellipse cx="43" cy="6.94073" rx="1" ry="0.991507" fill="white"/>
<ellipse cx="51" cy="64.4476" rx="1" ry="0.991507" fill="white"/>
<path d="M17.7658 46.237C17.8467 46.0202 18.1533 46.0202 18.2342 46.237L18.7701 47.6728C18.7956 47.7412 18.8497 47.795 18.9182 47.8201L20.3603 48.3492C20.5788 48.4294 20.5788 48.7384 20.3603 48.8186L18.9182 49.3477C18.8497 49.3728 18.7956 49.4266 18.7701 49.495L18.2342 50.9308C18.1533 51.1476 17.8467 51.1476 17.7658 50.9308L17.2299 49.495C17.2044 49.4266 17.1503 49.3728 17.0818 49.3477L15.6397 48.8186C15.4212 48.7384 15.4212 48.4294 15.6397 48.3492L17.0818 47.8201C17.1503 47.795 17.2044 47.7412 17.2299 47.6728L17.7658 46.237Z" fill="white"/>
<path d="M22.2658 14.5085C22.3467 14.2917 22.6533 14.2917 22.7342 14.5085L23.135 15.5824C23.1605 15.6508 23.2146 15.7046 23.2831 15.7297L24.3603 16.1249C24.5788 16.2051 24.5788 16.5142 24.3603 16.5943L23.2831 16.9895C23.2146 17.0147 23.1605 17.0685 23.135 17.1368L22.7342 18.2108C22.6533 18.4276 22.3467 18.4276 22.2658 18.2108L21.865 17.1368C21.8395 17.0685 21.7854 17.0147 21.7169 16.9895L20.6397 16.5943C20.4212 16.5142 20.4212 16.2051 20.6397 16.1249L21.7169 15.7297C21.7854 15.7046 21.8395 15.6508 21.865 15.5824L22.2658 14.5085Z" fill="white"/>
<path d="M57.2658 47.2282C57.3467 47.0114 57.6533 47.0114 57.7342 47.2282L58.135 48.3022C58.1605 48.3705 58.2146 48.4243 58.2831 48.4495L59.3603 48.8447C59.5788 48.9248 59.5788 49.2339 59.3603 49.3141L58.2831 49.7093C58.2146 49.7344 58.1605 49.7882 58.135 49.8565L57.7342 50.9305C57.6533 51.1473 57.3467 51.1473 57.2658 50.9305L56.865 49.8565C56.8395 49.7882 56.7854 49.7344 56.7169 49.7093L55.6397 49.3141C55.4212 49.2339 55.4212 48.9248 55.6397 48.8447L56.7169 48.4495C56.7854 48.4243 56.8395 48.3705 56.865 48.3022L57.2658 47.2282Z" fill="white"/>
<ellipse cx="52.5" cy="9.41939" rx="1.5" ry="1.48726" fill="white"/>
<ellipse cx="51.5" cy="17.3512" rx="0.5" ry="0.495753" fill="white"/>
<ellipse cx="13.5" cy="11.4025" rx="0.5" ry="0.495753" fill="white"/>
<path d="M42.9609 44.2565H43.0609H48.4009C48.8509 44.2565 49.2009 43.8681 49.1309 43.4199C48.8209 41.1891 47.5809 35.164 43.1309 33.6602" fill="#CAD6ED"/>
<path d="M26.8703 44.0076H26.7704H21.4303C20.9803 44.0076 20.6304 43.6192 20.7004 43.171C21.0104 40.9402 22.2504 34.9149 26.7003 33.4111" fill="#CAD6ED"/>
<path d="M34.0894 8.68203C23.7994 15.4044 25.9194 40.5708 26.5894 46.5562C26.6694 47.2931 27.2894 47.8409 28.0394 47.8409H34.9194H41.7994C42.5394 47.8409 43.1594 47.2931 43.2494 46.5562C43.9094 40.5708 46.0394 15.4044 35.7494 8.68203C35.2394 8.35339 34.5894 8.35339 34.0894 8.68203Z" fill="#F0F9FF"/>
<path d="M34.8198 48.0008H27.9398C27.1998 48.0008 26.5798 47.453 26.4898 46.7161C25.9298 41.637 24.3098 22.7447 30.1198 13.0347C30.1198 13.0347 36.3398 26.2005 34.8198 48.0008Z" fill="white"/>
<path d="M34.9191 27.4048C37.0178 27.4048 38.7192 25.7105 38.7192 23.6204C38.7192 21.5303 37.0178 19.8359 34.9191 19.8359C32.8204 19.8359 31.1191 21.5303 31.1191 23.6204C31.1191 25.7105 32.8204 27.4048 34.9191 27.4048Z" fill="#D4DEF1"/>
<path d="M34.9198 27.9336C37.3112 27.9336 39.2498 26.0029 39.2498 23.6213C39.2498 21.2397 37.3112 19.3091 34.9198 19.3091C32.5284 19.3091 30.5898 21.2397 30.5898 23.6213C30.5898 26.0029 32.5284 27.9336 34.9198 27.9336Z" stroke="#7D48F0" stroke-width="2" stroke-miterlimit="10"/>
<path d="M34.9188 19.6769C35.1232 19.6769 35.2889 19.512 35.2889 19.3087C35.2889 19.1053 35.1232 18.9404 34.9188 18.9404C34.7145 18.9404 34.5488 19.1053 34.5488 19.3087C34.5488 19.512 34.7145 19.6769 34.9188 19.6769Z" fill="white"/>
<path d="M34.9188 28.3008C35.1232 28.3008 35.2889 28.136 35.2889 27.9326C35.2889 27.7293 35.1232 27.5645 34.9188 27.5645C34.7145 27.5645 34.5488 27.7293 34.5488 27.9326C34.5488 28.136 34.7145 28.3008 34.9188 28.3008Z" fill="white"/>
<path d="M37.9794 20.9405C38.1837 20.9405 38.3494 20.7757 38.3494 20.5723C38.3494 20.369 38.1837 20.2041 37.9794 20.2041C37.775 20.2041 37.6094 20.369 37.6094 20.5723C37.6094 20.7757 37.775 20.9405 37.9794 20.9405Z" fill="white"/>
<path d="M31.8486 27.046C32.0529 27.046 32.2186 26.8811 32.2186 26.6778C32.2186 26.4744 32.0529 26.3096 31.8486 26.3096C31.6442 26.3096 31.4785 26.4744 31.4785 26.6778C31.4785 26.8811 31.6442 27.046 31.8486 27.046Z" fill="white"/>
<path d="M39.2489 23.9894C39.4532 23.9894 39.6189 23.8245 39.6189 23.6211C39.6189 23.4178 39.4532 23.2529 39.2489 23.2529C39.0446 23.2529 38.8789 23.4178 38.8789 23.6211C38.8789 23.8245 39.0446 23.9894 39.2489 23.9894Z" fill="white"/>
<path d="M30.5887 23.9894C30.7931 23.9894 30.9587 23.8245 30.9587 23.6211C30.9587 23.4178 30.7931 23.2529 30.5887 23.2529C30.3844 23.2529 30.2188 23.4178 30.2188 23.6211C30.2188 23.8245 30.3844 23.9894 30.5887 23.9894Z" fill="white"/>
<path d="M37.9794 27.046C38.1837 27.046 38.3494 26.8811 38.3494 26.6778C38.3494 26.4744 38.1837 26.3096 37.9794 26.3096C37.775 26.3096 37.6094 26.4744 37.6094 26.6778C37.6094 26.8811 37.775 27.046 37.9794 27.046Z" fill="white"/>
<path d="M31.8486 20.9405C32.0529 20.9405 32.2186 20.7757 32.2186 20.5723C32.2186 20.369 32.0529 20.2041 31.8486 20.2041C31.6442 20.2041 31.4785 20.369 31.4785 20.5723C31.4785 20.7757 31.6442 20.9405 31.8486 20.9405Z" fill="white"/>
<path d="M38.5595 11.3411H31.2695C32.0795 10.2854 33.0195 9.37916 34.0895 8.68203C34.5895 8.35339 35.2395 8.35339 35.7395 8.68203C36.8095 9.37916 37.7495 10.2854 38.5595 11.3411Z" fill="#CCD5EF"/>
<path d="M38.9604 51.2468H30.8604C29.9204 51.2468 29.1504 50.4799 29.1504 49.5438C29.1504 48.6077 29.9204 47.8408 30.8604 47.8408H38.9604C39.9004 47.8408 40.6703 48.6077 40.6703 49.5438C40.6703 50.4799 39.9104 51.2468 38.9604 51.2468Z" fill="#CAD6ED"/>
<path d="M37.8125 53.2506H32.1875C31.5347 53.2506 31 52.8022 31 52.2547C31 51.7072 31.5347 51.2588 32.1875 51.2588H37.8125C38.4653 51.2588 39 51.7072 39 52.2547C39 52.8022 38.4722 53.2506 37.8125 53.2506Z" fill="#CAD6ED"/>
<path d="M15 67.8949L4.86933 70L7.19094 63.939L3 59.5051L9.00003 58L10.186 65.0475" fill="#CBD7EE"/>
<path d="M15 67.8949L4.86933 70L7.19094 63.939L3 59.5051L9.00003 58L10.186 65.0475" stroke="#EEF5FF" stroke-miterlimit="10"/>
<path d="M10 65L15 68V63L10 65Z" fill="#8D98C6"/>
<path d="M55 67.8949L65.1307 70L62.8191 63.939L67 59.5051L61 58L59.814 65.0475" fill="#CBD7EE"/>
<path d="M55 67.8949L65.1307 70L62.8191 63.939L67 59.5051L61 58L59.814 65.0475" stroke="#EEF5FF" stroke-miterlimit="10"/>
<path d="M60 65L55 68V63L60 65Z" fill="#8D98C6"/>
<path d="M33.3623 51.0391C28.1514 51.2893 12.0422 52.2903 7 55.1575L9.87844 65C9.87844 65 23.8735 61.4133 35 61.4133C46.1266 61.4133 60.1216 65 60.1216 65L63 55.1575C57.9578 52.3007 41.8486 51.2998 36.6377 51.0391C35.5459 50.987 34.464 50.987 33.3623 51.0391Z" fill="#EDF7FF"/>
<path d="M60 55.9452C53.1887 54.0164 41.5319 53.2603 37.2525 53.0411C36.1503 52.9863 35.0681 52.9863 33.9659 53.0411C29.6369 53.2603 17.7915 54.0274 11 56" stroke="white" stroke-width="2" stroke-miterlimit="10"/>
<path d="M39.3428 55.3476C39.3037 55.2261 39.2287 55.1191 39.1275 55.0406C39.0262 54.9621 38.9034 54.9156 38.7751 54.9073L36.4552 54.7463L35.5946 52.5977C35.548 52.4789 35.4663 52.3768 35.3603 52.3049C35.2542 52.2329 35.1286 52.1944 35.0001 52.1943H34.9995C34.8712 52.1946 34.7459 52.2332 34.64 52.3051C34.5342 52.3771 34.4527 52.4791 34.4062 52.5977L33.5328 54.7587L31.2257 54.9073C31.0974 54.9156 30.9746 54.9621 30.8734 55.0406C30.7721 55.1191 30.6971 55.2261 30.6581 55.3476C30.6169 55.4707 30.6141 55.6034 30.65 55.7281C30.686 55.8529 30.7589 55.9641 30.8595 56.0471L32.6344 57.5346L32.1064 59.5937C32.07 59.7324 32.0767 59.8788 32.1256 60.0136C32.1745 60.1485 32.2634 60.2656 32.3805 60.3496C32.4936 60.4311 32.6288 60.4771 32.7686 60.4814C32.9083 60.4857 33.0462 60.4482 33.1642 60.3738L34.9952 59.2237C34.9977 59.2218 35.0001 59.2206 35.0056 59.2237L36.9758 60.4612C37.0828 60.529 37.2079 60.5632 37.3347 60.5593C37.4616 60.5554 37.5843 60.5136 37.6869 60.4394C37.793 60.3634 37.8735 60.2573 37.9178 60.1351C37.9621 60.013 37.9682 59.8804 37.9353 59.7547L37.3744 57.5053L39.1413 56.0471C39.2419 55.9641 39.3149 55.8529 39.3508 55.7281C39.3867 55.6034 39.3839 55.4707 39.3428 55.3476Z" fill="#5B00F6"/>
<g opacity="0.5">
<path d="M45.6057 56.8138C45.5822 56.7409 45.5372 56.6768 45.4765 56.6296C45.4157 56.5825 45.3421 56.5546 45.2651 56.5497L43.8731 56.4531L43.3568 55.1639C43.3288 55.0926 43.2798 55.0314 43.2162 54.9882C43.1525 54.945 43.0772 54.9219 43.0001 54.9219H42.9997C42.9227 54.922 42.8475 54.9452 42.784 54.9884C42.7205 55.0315 42.6716 55.0927 42.6437 55.1639L42.1197 56.4605L40.7354 56.5497C40.6584 56.5546 40.5848 56.5825 40.524 56.6296C40.4633 56.6768 40.4183 56.7409 40.3948 56.8138C40.3701 56.8877 40.3685 56.9673 40.39 57.0422C40.4116 57.117 40.4554 57.1837 40.5157 57.2336L41.5806 58.1261L41.2639 59.3615C41.242 59.4447 41.246 59.5325 41.2754 59.6135C41.3047 59.6944 41.358 59.7646 41.4283 59.815C41.4961 59.864 41.5773 59.8915 41.6611 59.8941C41.745 59.8967 41.8277 59.8742 41.8985 59.8295L42.9971 59.1395C42.9986 59.1384 43.0001 59.1377 43.0034 59.1395L44.1855 59.882C44.2497 59.9227 44.3247 59.9432 44.4008 59.9408C44.477 59.9385 44.5506 59.9134 44.6121 59.8689C44.6758 59.8233 44.7241 59.7597 44.7507 59.6864C44.7773 59.6131 44.7809 59.5335 44.7612 59.4581L44.4246 58.1084L45.4848 57.2336C45.5451 57.1837 45.5889 57.117 45.6105 57.0422C45.632 56.9673 45.6304 56.8877 45.6057 56.8138Z" fill="#BDBDBD"/>
</g>
<path d="M29.6057 56.8138C29.5822 56.7409 29.5372 56.6768 29.4765 56.6296C29.4157 56.5825 29.3421 56.5546 29.2651 56.5497L27.8731 56.4531L27.3568 55.1639C27.3288 55.0926 27.2798 55.0314 27.2162 54.9882C27.1525 54.945 27.0772 54.9219 27.0001 54.9219H26.9997C26.9227 54.922 26.8475 54.9452 26.784 54.9884C26.7205 55.0315 26.6716 55.0927 26.6437 55.1639L26.1197 56.4605L24.7354 56.5497C24.6584 56.5546 24.5848 56.5825 24.524 56.6296C24.4633 56.6768 24.4183 56.7409 24.3948 56.8138C24.3701 56.8877 24.3685 56.9673 24.39 57.0422C24.4116 57.117 24.4554 57.1837 24.5157 57.2336L25.5806 58.1261L25.2639 59.3615C25.242 59.4447 25.246 59.5325 25.2754 59.6135C25.3047 59.6944 25.358 59.7646 25.4283 59.815C25.4961 59.864 25.5773 59.8915 25.6611 59.8941C25.745 59.8967 25.8277 59.8742 25.8985 59.8295L26.9971 59.1395C26.9986 59.1384 27.0001 59.1377 27.0034 59.1395L28.1855 59.882C28.2497 59.9227 28.3247 59.9432 28.4008 59.9408C28.477 59.9385 28.5506 59.9134 28.6121 59.8689C28.6758 59.8233 28.7241 59.7597 28.7507 59.6864C28.7773 59.6131 28.7809 59.5335 28.7612 59.4581L28.4246 58.1084L29.4848 57.2336C29.5451 57.1837 29.5889 57.117 29.6105 57.0422C29.632 56.9673 29.6304 56.8877 29.6057 56.8138Z" fill="#5B00F6"/>
<path d="M22.6057 57.805C22.5822 57.7322 22.5372 57.668 22.4765 57.6208C22.4157 57.5737 22.3421 57.5459 22.2651 57.5409L20.8731 57.4443L20.3568 56.1551C20.3288 56.0838 20.2798 56.0226 20.2162 55.9794C20.1525 55.9362 20.0772 55.9131 20.0001 55.9131H19.9997C19.9227 55.9132 19.8475 55.9364 19.784 55.9796C19.7205 56.0227 19.6716 56.0839 19.6437 56.1551L19.1197 57.4517L17.7354 57.5409C17.6584 57.5459 17.5848 57.5737 17.524 57.6208C17.4633 57.668 17.4183 57.7322 17.3948 57.805C17.3701 57.8789 17.3685 57.9585 17.39 58.0334C17.4116 58.1082 17.4554 58.1749 17.5157 58.2248L18.5806 59.1173L18.2639 60.3527C18.242 60.4359 18.246 60.5238 18.2754 60.6047C18.3047 60.6856 18.358 60.7558 18.4283 60.8062C18.4961 60.8552 18.5773 60.8827 18.6611 60.8853C18.745 60.8879 18.8277 60.8654 18.8985 60.8208L19.9971 60.1307C19.9986 60.1296 20.0001 60.1289 20.0034 60.1307L21.1855 60.8732C21.2497 60.9139 21.3247 60.9344 21.4008 60.932C21.477 60.9297 21.5506 60.9047 21.6121 60.8602C21.6758 60.8145 21.7241 60.7509 21.7507 60.6776C21.7773 60.6043 21.7809 60.5247 21.7612 60.4493L21.4246 59.0997L22.4848 58.2248C22.5451 58.1749 22.5889 58.1082 22.6105 58.0334C22.632 57.9585 22.6304 57.8789 22.6057 57.805Z" fill="#5B00F6"/>
<g opacity="0.5">
<path d="M52.6057 57.805C52.5822 57.7322 52.5372 57.668 52.4765 57.6208C52.4157 57.5737 52.3421 57.5459 52.2651 57.5409L50.8731 57.4443L50.3568 56.1551C50.3288 56.0838 50.2798 56.0226 50.2162 55.9794C50.1525 55.9362 50.0772 55.9131 50.0001 55.9131H49.9997C49.9227 55.9132 49.8475 55.9364 49.784 55.9796C49.7205 56.0227 49.6716 56.0839 49.6437 56.1551L49.1197 57.4517L47.7354 57.5409C47.6584 57.5459 47.5848 57.5737 47.524 57.6208C47.4633 57.668 47.4183 57.7322 47.3948 57.805C47.3701 57.8789 47.3685 57.9585 47.39 58.0334C47.4116 58.1082 47.4554 58.1749 47.5157 58.2248L48.5806 59.1173L48.2639 60.3527C48.242 60.4359 48.246 60.5238 48.2754 60.6047C48.3047 60.6856 48.358 60.7558 48.4283 60.8062C48.4961 60.8552 48.5773 60.8827 48.6611 60.8853C48.745 60.8879 48.8277 60.8654 48.8985 60.8208L49.9971 60.1307C49.9986 60.1296 50.0001 60.1289 50.0034 60.1307L51.1855 60.8732C51.2497 60.9139 51.3247 60.9344 51.4008 60.932C51.477 60.9297 51.5506 60.9047 51.6121 60.8602C51.6758 60.8145 51.7241 60.7509 51.7507 60.6776C51.7773 60.6043 51.7809 60.5247 51.7612 60.4493L51.4246 59.0997L52.4848 58.2248C52.5451 58.1749 52.5889 58.1082 52.6105 58.0334C52.632 57.9585 52.6304 57.8789 52.6057 57.805Z" fill="#BDBDBD"/>
</g>
<mask id="mask0" mask-type="alpha" maskUnits="userSpaceOnUse" x="4" y="1" width="62" height="68">
<path d="M31.5224 1.99076C33.6768 0.757476 36.3232 0.757475 38.4776 1.99076L61.7885 15.335C63.9669 16.582 65.3109 18.9 65.3109 21.41V47.9954C65.3109 50.5055 63.9669 52.8235 61.7885 54.0705L38.4776 67.4147C36.3232 68.648 33.6768 68.648 31.5224 67.4147L8.21148 54.0705C6.03308 52.8235 4.68911 50.5055 4.68911 47.9954V21.41C4.68911 18.9 6.03308 16.582 8.21148 15.335L31.5224 1.99076Z" fill="#A98BFF"/>
</mask>
<g mask="url(#mask0)">
<rect opacity="0.25" width="79.4137" height="23.8473" transform="matrix(0.867862 -0.496805 0.503202 0.864169 -7 35.4873)" fill="white"/>
<rect opacity="0.25" width="79.4137" height="4.74489" transform="matrix(0.867862 -0.496805 0.503202 0.864169 3 62.2578)" fill="white"/>
</g>
<defs>
<filter id="filter0_i" x="8.15332" y="5.03174" width="53.6936" height="59.3418" filterUnits="userSpaceOnUse" color-interpolation-filters="sRGB">
<feFlood flood-opacity="0" result="BackgroundImageFix"/>
<feBlend mode="normal" in="SourceGraphic" in2="BackgroundImageFix" result="shape"/>
<feColorMatrix in="SourceAlpha" type="matrix" values="0 0 0 0 0 0 0 0 0 0 0 0 0 0 0 0 0 0 127 0" result="hardAlpha"/>
<feOffset/>
<feGaussianBlur stdDeviation="1.5"/>
<feComposite in2="hardAlpha" operator="arithmetic" k2="-1" k3="1"/>
<feColorMatrix type="matrix" values="0 0 0 0 0 0 0 0 0 0 0 0 0 0 0 0 0 0 0.25 0"/>
<feBlend mode="normal" in2="shape" result="effect1_innerShadow"/>
</filter>
<filter id="filter1_i" x="26.3398" y="45.0332" width="17.3205" height="18.0088" filterUnits="userSpaceOnUse" color-interpolation-filters="sRGB">
<feFlood flood-opacity="0" result="BackgroundImageFix"/>
<feBlend mode="normal" in="SourceGraphic" in2="BackgroundImageFix" result="shape"/>
<feColorMatrix in="SourceAlpha" type="matrix" values="0 0 0 0 0 0 0 0 0 0 0 0 0 0 0 0 0 0 127 0" result="hardAlpha"/>
<feOffset/>
<feGaussianBlur stdDeviation="1.5"/>
<feComposite in2="hardAlpha" operator="arithmetic" k2="-1" k3="1"/>
<feColorMatrix type="matrix" values="0 0 0 0 0 0 0 0 0 0 0 0 0 0 0 0 0 0 0.25 0"/>
<feBlend mode="normal" in2="shape" result="effect1_innerShadow"/>
</filter>
</defs>
</svg>
