<svg width="25" height="24" viewBox="0 0 25 24" fill="none" xmlns="http://www.w3.org/2000/svg">
<path d="M12.5 12L21.5 3" stroke="white" stroke-width="2.25" stroke-linecap="round" stroke-linejoin="round"/>
<path d="M15.6819 8.81775C14.973 8.10925 14.0478 7.65776 13.0531 7.53491C12.0584 7.41206 11.0512 7.62488 10.1912 8.13961C9.33124 8.65435 8.66778 9.44151 8.30609 10.3762C7.9444 11.3109 7.90519 12.3397 8.19469 13.2992C8.48419 14.2587 9.08581 15.0941 9.90411 15.6728C10.7224 16.2515 11.7105 16.5404 12.7117 16.4936C13.7128 16.4468 14.6697 16.067 15.4305 15.4145C16.1912 14.762 16.7123 13.8742 16.9111 12.8919" stroke="white" stroke-width="2.25" stroke-linecap="round" stroke-linejoin="round"/>
<path d="M18.8634 5.63618C17.2938 4.06893 15.2004 3.13701 12.9855 3.01948C10.7705 2.90195 8.59024 3.60711 6.86362 4.99946C5.13699 6.3918 3.98581 8.37311 3.63127 10.5627C3.27674 12.7522 3.74387 14.9956 4.9429 16.8617C6.14192 18.7277 7.98826 20.0849 10.1271 20.6723C12.266 21.2598 14.5465 21.0361 16.5305 20.0442C18.5144 19.0523 20.0619 17.3623 20.8755 15.2988C21.689 13.2353 21.7113 10.944 20.9381 8.86502" stroke="white" stroke-width="2.25" stroke-linecap="round" stroke-linejoin="round"/>
</svg>
