<svg width="50" height="50" viewBox="0 0 50 50" fill="none" xmlns="http://www.w3.org/2000/svg">
<path d="M2.91001e-05 25.0336C0.020847 11.1009 11.1469 -0.0345949 25.0139 8.07642e-05C39.0567 0.0347564 50.0185 11.1934 50 25.4335C49.9815 38.853 38.6728 50.0001 25.074 50.0001C11.1307 50.0024 -0.0207888 38.8992 2.91001e-05 25.0336ZM31.7589 15.0516C31.9856 13.6762 32.2424 12.3608 32.3881 11.0339C32.4158 10.7796 32.018 10.2502 31.789 10.2363C29.691 10.1023 27.5676 9.82947 25.4927 10.0329C22.6939 10.308 21.2412 11.8823 20.8411 14.6609C20.6398 16.0595 20.6699 17.4928 20.6074 18.9099C20.5889 19.3144 20.6051 19.719 20.6051 20.2299C19.4925 20.2299 18.5465 20.2299 17.42 20.2299C17.42 21.5614 17.4501 22.7866 17.4084 24.0095C17.3853 24.7215 17.6814 24.9827 18.3591 24.9619C19.0692 24.9388 19.7817 24.9573 20.5959 24.9573C20.5959 30.1563 20.5959 35.1427 20.5959 40.1845C22.6823 40.1845 24.66 40.1845 26.7765 40.1845C26.7765 35.0988 26.7765 30.0824 26.7765 24.955C28.1019 24.955 29.2931 25.0035 30.4751 24.9249C30.8267 24.9018 31.4004 24.5574 31.449 24.2869C31.6733 23.0108 31.7473 21.7094 31.8908 20.2692C30.1721 20.2692 28.5368 20.2692 26.7626 20.2692C26.7626 19.0601 26.7557 17.9921 26.7649 16.9218C26.7765 15.3267 27.3154 14.7719 28.9392 14.802C29.8506 14.8205 30.7597 14.9592 31.7589 15.0516Z" fill="#3B5998"/>
</svg>
