<svg width="50" height="50" viewBox="0 0 50 50" fill="none" xmlns="http://www.w3.org/2000/svg">
<path d="M0.00178167 24.9762C-0.164597 11.3215 11.3433 -0.218692 25.5224 0.00314613C38.9599 0.213431 49.9663 11.4232 49.9524 25.2904C49.9385 38.7764 38.6872 50.0115 25.2082 50C11.0729 49.9907 -0.0074616 38.9913 0.00178167 24.9762ZM18.8049 27.3078C20.7437 27.3078 22.5946 27.3078 24.471 27.3078C24.0112 29.7272 22.2619 31.3471 19.8748 31.6914C17.0348 32.1004 14.3843 30.7 13.1134 28.1166C11.8031 25.4568 12.2676 22.0923 14.4583 20.1558C15.3918 19.3308 16.6535 18.7092 17.8667 18.4019C19.7015 17.9397 21.4092 18.6214 22.7448 19.7445C23.8633 18.7369 24.8893 17.8149 25.9754 16.8398C24.612 15.3747 23.073 14.5451 21.3283 14.143C15.1607 12.715 9.15724 16.7381 8.15435 22.9265C7.06595 29.6463 11.5004 35.6383 17.9661 36.1836C25.2428 36.7983 31.0615 29.614 28.7484 22.8664C25.4508 22.8664 22.1533 22.8664 18.8049 22.8664C18.8049 24.3176 18.8049 25.6925 18.8049 27.3078ZM38.1973 29.7203C38.1973 28.3731 38.1973 27.1553 38.1973 25.7803C39.496 25.7803 40.6953 25.7803 41.8946 25.7803C41.8946 24.7959 41.8946 23.9733 41.8946 23.0582C40.626 23.0582 39.4521 23.0582 38.1395 23.0582C38.1395 21.7225 38.1395 20.477 38.1395 19.2546C37.2036 19.2546 36.4087 19.2546 35.4751 19.2546C35.4751 20.5278 35.4751 21.7364 35.4751 23.1021C34.1649 23.1021 32.9933 23.1021 31.8217 23.1021C31.8217 24.0888 31.8217 24.9068 31.8217 25.8196C32.7183 25.8196 33.5248 25.8774 34.3197 25.8057C35.3111 25.7156 35.5999 26.1292 35.526 27.0628C35.4567 27.934 35.5121 28.8144 35.5121 29.718C36.4203 29.7203 37.2106 29.7203 38.1973 29.7203Z" fill="#EB5757"/>
</svg>
