<svg width="69" height="18" viewBox="0 0 69 18" fill="none" xmlns="http://www.w3.org/2000/svg">
<path d="M11.1208 0.199999H12.8008V17H11.1208V9.152H2.00078V17H0.32078V0.199999H2.00078V7.568H11.1208V0.199999ZM26.1493 15.488C24.9333 16.688 23.4453 17.288 21.6853 17.288C19.9253 17.288 18.4293 16.688 17.1973 15.488C15.9813 14.272 15.3733 12.776 15.3733 11C15.3733 9.224 15.9813 7.736 17.1973 6.536C18.4293 5.32 19.9253 4.712 21.6853 4.712C23.4453 4.712 24.9333 5.32 26.1493 6.536C27.3813 7.736 27.9973 9.224 27.9973 11C27.9973 12.776 27.3813 14.272 26.1493 15.488ZM18.3253 14.384C19.2373 15.296 20.3573 15.752 21.6853 15.752C23.0133 15.752 24.1333 15.296 25.0453 14.384C25.9573 13.456 26.4133 12.328 26.4133 11C26.4133 9.672 25.9573 8.552 25.0453 7.64C24.1333 6.712 23.0133 6.248 21.6853 6.248C20.3573 6.248 19.2373 6.712 18.3253 7.64C17.4133 8.552 16.9573 9.672 16.9573 11C16.9573 12.328 17.4133 13.456 18.3253 14.384ZM37.98 10.832C39.292 11.312 39.948 12.248 39.948 13.64C39.948 14.616 39.62 15.424 38.964 16.064C38.324 16.688 37.396 17 36.18 17H30.348V5H35.7C36.868 5 37.772 5.304 38.412 5.912C39.052 6.504 39.372 7.272 39.372 8.216C39.372 9.416 38.908 10.288 37.98 10.832ZM35.7 6.536H31.932V10.184H35.7C37.092 10.184 37.788 9.56 37.788 8.312C37.788 7.752 37.604 7.32 37.236 7.016C36.884 6.696 36.372 6.536 35.7 6.536ZM36.18 15.464C36.884 15.464 37.42 15.296 37.788 14.96C38.172 14.624 38.364 14.152 38.364 13.544C38.364 12.984 38.172 12.544 37.788 12.224C37.42 11.888 36.884 11.72 36.18 11.72H31.932V15.464H36.18ZM46.92 9.56C48.04 9.56 48.984 9.912 49.752 10.616C50.536 11.304 50.928 12.192 50.928 13.28C50.928 14.368 50.536 15.264 49.752 15.968C48.984 16.656 48.04 17 46.92 17H42.048V5H43.632V9.56H46.92ZM52.608 5H54.192V17H52.608V5ZM46.92 15.464C47.592 15.464 48.16 15.264 48.624 14.864C49.104 14.464 49.344 13.936 49.344 13.28C49.344 12.624 49.104 12.096 48.624 11.696C48.16 11.296 47.592 11.096 46.92 11.096H43.632V15.464H46.92ZM62.8076 4.712C64.5836 4.712 66.0156 5.344 67.1036 6.608C68.2076 7.856 68.7596 9.336 68.7596 11.048C68.7596 11.224 68.7436 11.472 68.7116 11.792H58.1756C58.3356 13.008 58.8476 13.976 59.7116 14.696C60.5916 15.4 61.6716 15.752 62.9516 15.752C63.8636 15.752 64.6476 15.568 65.3036 15.2C65.9756 14.816 66.4796 14.32 66.8156 13.712L68.2076 14.528C67.6796 15.376 66.9596 16.048 66.0476 16.544C65.1356 17.04 64.0956 17.288 62.9276 17.288C61.0396 17.288 59.5036 16.696 58.3196 15.512C57.1356 14.328 56.5436 12.824 56.5436 11C56.5436 9.208 57.1276 7.712 58.2956 6.512C59.4636 5.312 60.9676 4.712 62.8076 4.712ZM62.8076 6.248C61.5596 6.248 60.5116 6.624 59.6636 7.376C58.8316 8.112 58.3356 9.072 58.1756 10.256H67.1276C66.9676 8.992 66.4796 8.008 65.6636 7.304C64.8476 6.6 63.8956 6.248 62.8076 6.248Z" fill="#BDBDBD"/>
</svg>
