<svg width="347" height="328" viewBox="0 0 347 328" fill="none" xmlns="http://www.w3.org/2000/svg">
<path d="M261.605 44.2394C260.768 44.3077 260.037 44.365 259.331 44.4235C258.641 42.1266 259.632 39.0098 261.631 37.6923C263.811 36.2578 266.071 36.7481 268.223 37.9088C269.336 38.5093 270.338 39.398 271.512 39.7788C274.301 40.6835 276.623 38.5623 276.083 35.6449C275.529 32.6587 276.512 30.2089 278.877 28.5724C281.164 26.9869 283.585 27.7211 285.784 29.1742C286.16 29.421 286.531 29.6753 286.917 29.9071C290.652 32.1626 292.904 30.9767 293.121 26.6407C293.16 25.8964 293.053 25.1355 293.179 24.4064C294.095 19.0913 298.341 17.1375 303.032 19.8495C303.742 20.2605 304.403 20.7689 305.118 21.1725C307.63 22.6025 309.349 21.7915 310.038 18.9714C310.189 18.351 310.646 17.5888 311.171 17.3388C311.601 17.1335 312.816 17.5031 312.863 17.763C312.994 18.4964 312.871 19.3904 312.538 20.0729C311.962 21.2546 311.218 22.3722 310.43 23.4336C309.131 25.1771 307.257 24.9348 305.539 24.4444C304.271 24.0822 303.196 23.0846 301.934 22.6887C300.542 22.2539 298.748 21.5934 297.658 22.1208C296.704 22.5823 296.332 24.525 295.986 25.8819C295.606 27.3687 295.858 29.0678 295.285 30.4468C293.897 33.7851 290.033 34.8779 286.811 33.0693C285.899 32.5554 285.041 31.9367 284.118 31.4478C281.328 29.9723 279.249 31.1985 278.974 34.3291C278.814 36.1586 278.704 38.0918 278.028 39.7541C276.78 42.8178 274.15 43.8481 271.037 42.7966C269.839 42.3946 268.678 41.8328 267.586 41.1924C263.693 38.9291 262.234 39.5944 261.605 44.2394Z" fill="black"/>
<path d="M261.605 44.2394C260.768 44.3077 260.037 44.365 259.331 44.4235C258.641 42.1266 259.632 39.0098 261.631 37.6923C263.811 36.2578 266.071 36.7481 268.223 37.9088C269.336 38.5093 270.338 39.398 271.512 39.7788C274.301 40.6835 276.623 38.5623 276.083 35.6449C275.529 32.6587 276.512 30.2089 278.877 28.5724C281.164 26.9869 283.585 27.7211 285.784 29.1742C286.16 29.421 286.531 29.6753 286.917 29.9071C290.652 32.1626 292.904 30.9767 293.121 26.6407C293.16 25.8964 293.053 25.1355 293.179 24.4064C294.095 19.0913 298.341 17.1375 303.032 19.8495C303.742 20.2605 304.403 20.7689 305.118 21.1725C307.63 22.6025 309.349 21.7915 310.038 18.9714C310.189 18.351 310.646 17.5888 311.171 17.3388C311.601 17.1335 312.816 17.5031 312.863 17.763C312.994 18.4964 312.871 19.3904 312.538 20.0729C311.962 21.2546 311.218 22.3722 310.43 23.4336C309.131 25.1771 307.257 24.9348 305.539 24.4444C304.271 24.0822 303.196 23.0846 301.934 22.6887C300.542 22.2539 298.748 21.5934 297.658 22.1208C296.704 22.5823 296.332 24.525 295.986 25.8819C295.606 27.3687 295.858 29.0678 295.285 30.4468C293.897 33.7851 290.033 34.8779 286.811 33.0693C285.899 32.5554 285.041 31.9367 284.118 31.4478C281.328 29.9723 279.249 31.1985 278.974 34.3291C278.814 36.1586 278.704 38.0918 278.028 39.7541C276.78 42.8178 274.15 43.8481 271.037 42.7966C269.839 42.3946 268.678 41.8328 267.586 41.1924C263.693 38.9291 262.234 39.5944 261.605 44.2394Z" fill="url(#paint0_linear)"/>
<path d="M3.15696 218.599C2.51584 218.353 1.95598 218.136 1.415 217.929C1.72006 215.99 3.55601 214.043 5.49756 213.78C7.6144 213.495 9.10716 214.658 10.2822 216.277C10.8906 217.115 11.3141 218.125 12.0451 218.822C13.7811 220.478 16.2454 219.737 16.8816 217.394C17.5323 214.996 19.1254 213.538 21.4497 213.169C23.6986 212.811 25.2239 214.211 26.3304 216.062C26.5202 216.378 26.7037 216.697 26.9062 217.005C28.861 219.992 30.9424 219.916 32.6395 216.795C32.9321 216.26 33.1229 215.661 33.4745 215.168C36.035 211.573 39.8589 211.638 42.3566 215.301C42.7344 215.856 43.0416 216.465 43.4258 217.016C44.7715 218.962 46.3269 218.973 47.835 217.138C48.1662 216.734 48.7735 216.334 49.2494 216.336C49.6394 216.337 50.4039 217.04 50.347 217.248C50.1835 217.836 49.7757 218.451 49.288 218.837C48.4443 219.504 47.4992 220.064 46.542 220.568C44.9656 221.393 43.6696 220.55 42.5764 219.579C41.7696 218.862 41.3307 217.745 40.5406 217.006C39.6678 216.191 38.5792 215.068 37.5881 215.071C36.7209 215.073 35.7582 216.374 35.0212 217.252C34.214 218.213 33.7975 219.556 32.8861 220.37C30.6783 222.339 27.4419 221.775 25.7067 219.299C25.2165 218.597 24.8032 217.836 24.2958 217.148C22.7611 215.071 20.7932 215.238 19.4807 217.449C18.7139 218.742 17.9469 220.128 16.8588 221.114C14.8522 222.931 12.5475 222.759 10.6247 220.88C9.88373 220.158 9.22654 219.332 8.64804 218.473C6.58006 215.423 5.26819 215.397 3.15696 218.599Z" fill="black"/>
<path d="M3.15696 218.599C2.51584 218.353 1.95598 218.136 1.415 217.929C1.72006 215.99 3.55601 214.043 5.49756 213.78C7.6144 213.495 9.10716 214.658 10.2822 216.277C10.8906 217.115 11.3141 218.125 12.0451 218.822C13.7811 220.478 16.2454 219.737 16.8816 217.394C17.5323 214.996 19.1254 213.538 21.4497 213.169C23.6986 212.811 25.2239 214.211 26.3304 216.062C26.5202 216.378 26.7037 216.697 26.9062 217.005C28.861 219.992 30.9424 219.916 32.6395 216.795C32.9321 216.26 33.1229 215.661 33.4745 215.168C36.035 211.573 39.8589 211.638 42.3566 215.301C42.7344 215.856 43.0416 216.465 43.4258 217.016C44.7715 218.962 46.3269 218.973 47.835 217.138C48.1662 216.734 48.7735 216.334 49.2494 216.336C49.6394 216.337 50.4039 217.04 50.347 217.248C50.1835 217.836 49.7757 218.451 49.288 218.837C48.4443 219.504 47.4992 220.064 46.542 220.568C44.9656 221.393 43.6696 220.55 42.5764 219.579C41.7696 218.862 41.3307 217.745 40.5406 217.006C39.6678 216.191 38.5792 215.068 37.5881 215.071C36.7209 215.073 35.7582 216.374 35.0212 217.252C34.214 218.213 33.7975 219.556 32.8861 220.37C30.6783 222.339 27.4419 221.775 25.7067 219.299C25.2165 218.597 24.8032 217.836 24.2958 217.148C22.7611 215.071 20.7932 215.238 19.4807 217.449C18.7139 218.742 17.9469 220.128 16.8588 221.114C14.8522 222.931 12.5475 222.759 10.6247 220.88C9.88373 220.158 9.22654 219.332 8.64804 218.473C6.58006 215.423 5.26819 215.397 3.15696 218.599Z" fill="url(#paint1_linear)"/>
<path d="M100.271 318.219L105.551 298.513L119.977 312.939L100.271 318.219Z" stroke="black" stroke-width="3"/>
<path d="M100.271 318.219L105.551 298.513L119.977 312.939L100.271 318.219Z" stroke="url(#paint2_linear)" stroke-width="3"/>
<path d="M313.68 99.634L320.448 74.3725L338.941 92.8652L313.68 99.634Z" stroke="black" stroke-width="3"/>
<path d="M313.68 99.634L320.448 74.3725L338.941 92.8652L313.68 99.634Z" stroke="url(#paint3_linear)" stroke-width="3"/>
<path d="M57.3995 26.418L62.2693 31.2879C65.7784 34.797 71.4937 34.8988 75.0287 31.4159C75.8749 30.5825 76.5477 29.5898 77.0084 28.4952C77.4691 27.4006 77.7086 26.2256 77.7131 25.038C77.7176 23.8503 77.487 22.6735 77.0346 21.5754C76.5822 20.4774 75.9169 19.4797 75.0772 18.6399L70.1274 13.6901C69.9399 13.5026 69.6855 13.3972 69.4203 13.3972C69.1551 13.3972 68.9007 13.5026 68.7132 13.6901L57.3995 25.0038C57.212 25.1914 57.1066 25.4457 57.1066 25.7109C57.1066 25.9762 57.212 26.2305 57.3995 26.418Z" stroke="black" stroke-width="2" stroke-linecap="round" stroke-linejoin="round"/>
<path d="M57.3995 26.418L62.2693 31.2879C65.7784 34.797 71.4937 34.8988 75.0287 31.4159C75.8749 30.5825 76.5477 29.5898 77.0084 28.4952C77.4691 27.4006 77.7086 26.2256 77.7131 25.038C77.7176 23.8503 77.487 22.6735 77.0346 21.5754C76.5822 20.4774 75.9169 19.4797 75.0772 18.6399L70.1274 13.6901C69.9399 13.5026 69.6855 13.3972 69.4203 13.3972C69.1551 13.3972 68.9007 13.5026 68.7132 13.6901L57.3995 25.0038C57.212 25.1914 57.1066 25.4457 57.1066 25.7109C57.1066 25.9762 57.212 26.2305 57.3995 26.418Z" stroke="url(#paint4_linear)" stroke-width="2" stroke-linecap="round" stroke-linejoin="round"/>
<path d="M75.7842 37.7314L81.441 32.0746" stroke="black" stroke-width="2" stroke-linecap="round" stroke-linejoin="round"/>
<path d="M75.7842 37.7314L81.441 32.0746" stroke="url(#paint5_linear)" stroke-width="2" stroke-linecap="round" stroke-linejoin="round"/>
<path d="M75.0771 31.3682L78.6127 34.9037" stroke="black" stroke-width="2" stroke-linecap="round" stroke-linejoin="round"/>
<path d="M75.0771 31.3682L78.6127 34.9037" stroke="url(#paint6_linear)" stroke-width="2" stroke-linecap="round" stroke-linejoin="round"/>
<path d="M76.3335 20.2115L77.1984 19.3466C77.9485 18.5965 78.3699 17.5791 78.3699 16.5182C78.3699 15.4573 77.9485 14.4399 77.1984 13.6898L75.7841 12.2756C75.5966 12.088 75.3423 11.9827 75.077 11.9827C74.8118 11.9827 74.5575 12.088 74.3699 12.2756L71.5415 15.104" stroke="black" stroke-width="2" stroke-linecap="round" stroke-linejoin="round"/>
<path d="M76.3335 20.2115L77.1984 19.3466C77.9485 18.5965 78.3699 17.5791 78.3699 16.5182C78.3699 15.4573 77.9485 14.4399 77.1984 13.6898L75.7841 12.2756C75.5966 12.088 75.3423 11.9827 75.077 11.9827C74.8118 11.9827 74.5575 12.088 74.3699 12.2756L71.5415 15.104" stroke="url(#paint7_linear)" stroke-width="2" stroke-linecap="round" stroke-linejoin="round"/>
<path d="M63.9367 32.6083L63.0448 33.5002C62.2946 34.2504 61.2772 34.6718 60.2163 34.6718C59.1555 34.6718 58.1381 34.2504 57.3879 33.5002L55.9737 32.086C55.7862 31.8985 55.6808 31.6441 55.6808 31.3789C55.6808 31.1137 55.7862 30.8593 55.9737 30.6718L58.8021 27.8434" stroke="black" stroke-width="2" stroke-linecap="round" stroke-linejoin="round"/>
<path d="M63.9367 32.6083L63.0448 33.5002C62.2946 34.2504 61.2772 34.6718 60.2163 34.6718C59.1555 34.6718 58.1381 34.2504 57.3879 33.5002L55.9737 32.086C55.7862 31.8985 55.6808 31.6441 55.6808 31.3789C55.6808 31.1137 55.7862 30.8593 55.9737 30.6718L58.8021 27.8434" stroke="url(#paint8_linear)" stroke-width="2" stroke-linecap="round" stroke-linejoin="round"/>
<circle cx="282.189" cy="298.79" r="9.75" stroke="black" stroke-width="2.5"/>
<circle cx="282.189" cy="298.79" r="9.75" stroke="url(#paint9_linear)" stroke-width="2.5"/>
<circle cx="319.689" cy="224.29" r="6.25" stroke="black" stroke-width="2.5"/>
<circle cx="319.689" cy="224.29" r="6.25" stroke="url(#paint10_linear)" stroke-width="2.5"/>
<circle cx="19.5" cy="99.79" r="9.75" stroke="black" stroke-width="2.5"/>
<circle cx="19.5" cy="99.79" r="9.75" stroke="url(#paint11_linear)" stroke-width="2.5"/>
<defs>
<linearGradient id="paint0_linear" x1="300.168" y1="9.18749" x2="271.198" y2="52.3826" gradientUnits="userSpaceOnUse">
<stop stop-color="#2F80ED"/>
<stop offset="1" stop-color="#ABA0FE"/>
</linearGradient>
<linearGradient id="paint1_linear" x1="44.0255" y1="206.423" x2="7.34462" y2="228.006" gradientUnits="userSpaceOnUse">
<stop stop-color="#2F80ED"/>
<stop offset="1" stop-color="#ABA0FE"/>
</linearGradient>
<linearGradient id="paint2_linear" x1="104.775" y1="295.615" x2="112.425" y2="324.165" gradientUnits="userSpaceOnUse">
<stop stop-color="#2F80ED"/>
<stop offset="1" stop-color="#ABA0FE"/>
</linearGradient>
<linearGradient id="paint3_linear" x1="319.672" y1="71.4748" x2="329.041" y2="106.44" gradientUnits="userSpaceOnUse">
<stop stop-color="#2F80ED"/>
<stop offset="1" stop-color="#ABA0FE"/>
</linearGradient>
<linearGradient id="paint4_linear" x1="63.0563" y1="19.347" x2="75.0772" y2="31.3678" gradientUnits="userSpaceOnUse">
<stop stop-color="#2F80ED"/>
<stop offset="1" stop-color="#ABA0FE"/>
</linearGradient>
<linearGradient id="paint5_linear" x1="78.6126" y1="34.903" x2="79.3197" y2="35.6101" gradientUnits="userSpaceOnUse">
<stop stop-color="#2F80ED"/>
<stop offset="1" stop-color="#ABA0FE"/>
</linearGradient>
<linearGradient id="paint6_linear" x1="75.4307" y1="31.0146" x2="78.9662" y2="34.5501" gradientUnits="userSpaceOnUse">
<stop stop-color="#2F80ED"/>
<stop offset="1" stop-color="#ABA0FE"/>
</linearGradient>
<linearGradient id="paint7_linear" x1="73.2304" y1="13.4151" x2="78.1802" y2="18.3648" gradientUnits="userSpaceOnUse">
<stop stop-color="#2F80ED"/>
<stop offset="1" stop-color="#ABA0FE"/>
</linearGradient>
<linearGradient id="paint8_linear" x1="57.1268" y1="29.5187" x2="62.0765" y2="34.4685" gradientUnits="userSpaceOnUse">
<stop stop-color="#2F80ED"/>
<stop offset="1" stop-color="#ABA0FE"/>
</linearGradient>
<linearGradient id="paint9_linear" x1="282.189" y1="287.79" x2="282.189" y2="309.79" gradientUnits="userSpaceOnUse">
<stop stop-color="#2F80ED"/>
<stop offset="1" stop-color="#ABA0FE"/>
</linearGradient>
<linearGradient id="paint10_linear" x1="319.689" y1="216.79" x2="319.689" y2="231.79" gradientUnits="userSpaceOnUse">
<stop stop-color="#2F80ED"/>
<stop offset="1" stop-color="#ABA0FE"/>
</linearGradient>
<linearGradient id="paint11_linear" x1="19.5" y1="88.79" x2="19.5" y2="110.79" gradientUnits="userSpaceOnUse">
<stop stop-color="#2F80ED"/>
<stop offset="1" stop-color="#ABA0FE"/>
</linearGradient>
</defs>
</svg>
