<svg width="50" height="50" viewBox="0 0 50 50" fill="none" xmlns="http://www.w3.org/2000/svg">
<circle cx="25" cy="25" r="25" fill="#2288F5"/>
<path d="M24.9034 33.9925C25.6393 33.9925 25.9401 33.4995 25.9317 32.8814C25.8942 30.5537 26.7944 29.3006 28.4195 30.9337C30.2175 32.7406 30.5896 33.9925 32.773 33.9925H36.6395C37.6158 33.9925 38 33.6768 38 33.1814C38 32.1334 36.283 30.2841 34.8283 28.9266C32.7911 27.0262 32.6956 26.9813 34.4501 24.6936C36.6262 21.8534 39.4729 18.2143 36.9548 18.2143H32.1447C31.2119 18.2143 31.1442 18.7425 30.8119 19.5293C29.6097 22.3792 27.3248 26.0706 26.4573 25.506C25.5499 24.917 25.9655 22.5844 26.0344 19.1177C26.0525 18.2021 26.0477 17.5743 24.6557 17.2489C23.8957 17.0729 23.1562 17 22.4699 17C19.7235 17 17.8289 18.1572 18.9055 18.3588C20.8037 18.7145 20.6213 22.8419 20.179 24.6244C19.4081 27.7281 16.5107 22.1667 15.3036 19.397C15.0124 18.7315 14.923 18.2143 13.8839 18.2143H9.95092C9.35644 18.2143 9 18.4086 9 18.8408C9 19.5718 12.5765 27.0007 15.9911 30.7042C19.3212 34.3167 22.6125 33.9925 24.9034 33.9925Z" fill="white"/>
</svg>
