<?xml version="1.0" encoding="utf-8"?>
<!-- Generator: Adobe Illustrator 23.0.3, SVG Export Plug-In . SVG Version: 6.00 Build 0)  -->
<svg version="1.1" id="Layer_1" xmlns="http://www.w3.org/2000/svg" xmlns:xlink="http://www.w3.org/1999/xlink" x="0px" y="0px"
	 viewBox="0 0 41 41" style="enable-background:new 0 0 41 41;" xml:space="preserve">
<style type="text/css">
	.st0{fill:#BDBDBD;stroke:#FFFFFF;stroke-miterlimit:10;}
	.st1{fill:#FFFFFF;}
	.st2{opacity:0.25;enable-background:new    ;}
	.st3{fill:#BDBDBD;}
	.st4{opacity:0.15;fill:#FFFFFF;enable-background:new    ;}
	.st5{opacity:0.8;fill:#FFFFFF;}
	.st6{fill:none;}
	.st7{fill:#DA9F65;stroke:#FFFFFF;stroke-miterlimit:10;}
	.st8{fill:#DA9F65;}
	.st9{fill:#FFCC0C;stroke:#FFFFFF;stroke-miterlimit:10;}
	.st10{fill:#FFCC0C;}
</style>
<g>
	<g>
		<path class="st7" d="M40,20.5C40,31.3,31.3,40,20.5,40c-3.2,0-6.2-0.8-8.8-2.1c-0.8-0.4-1.6-0.9-2.3-1.4c-0.3-0.2-0.5-0.4-0.8-0.6
			c-0.7-0.5-1.3-1.1-1.9-1.7c-0.2-0.2-0.3-0.4-0.5-0.5c-1.2-1.3-2.2-2.8-3-4.3C1.7,26.7,1,23.7,1,20.5C1,9.7,9.7,1,20.5,1
			c3.2,0,6.2,0.8,8.8,2.1c1.6,0.8,3,1.8,4.3,3c0.2,0.2,0.4,0.3,0.5,0.5c0.6,0.6,1.2,1.3,1.7,1.9c0.2,0.3,0.4,0.5,0.6,0.8
			c0.5,0.7,1,1.5,1.4,2.3C39.2,14.3,40,17.3,40,20.5z"/>
		<path class="st1" d="M21.2,35c8.4,0,15.2-6.8,15.2-15.2c0-8.4-6.8-15.2-15.2-15.2c-8.4,0-15.2,6.8-15.2,15.2
			C5.9,28.1,12.8,35,21.2,35z"/>
		<path class="st2" d="M19.8,36.3c8.4,0,15.2-6.8,15.2-15.2S28.2,5.8,19.8,5.8c-8.4,0-15.2,6.8-15.2,15.2S11.4,36.3,19.8,36.3z"/>
		<path class="st8" d="M35.8,20.5c0,8.4-6.8,15.3-15.3,15.3c-2.5,0-4.8-0.6-6.9-1.7c-0.6-0.3-1.2-0.7-1.8-1.1
			c-0.2-0.1-0.4-0.3-0.6-0.5c-0.5-0.4-1.1-0.9-1.5-1.4c-0.1-0.1-0.3-0.3-0.4-0.4c-0.9-1-1.7-2.2-2.4-3.4c-1.1-2.1-1.7-4.4-1.7-6.9
			c0-8.4,6.8-15.3,15.3-15.3c2.5,0,4.8,0.6,6.9,1.7c1.2,0.6,2.4,1.4,3.4,2.4c0.1,0.1,0.3,0.3,0.4,0.4c0.5,0.5,0.9,1,1.4,1.5
			c0.2,0.2,0.3,0.4,0.5,0.6c0.4,0.6,0.8,1.2,1.1,1.8C35.2,15.7,35.8,18,35.8,20.5z"/>
		<path class="st2" d="M16.3,11.7v0.7h0.6c0.4,0,0.8,0.1,1.2,0.3c0.3,0.2,0.4,0.3,0.5,0.5c0,0.1,0.1,0.3,0.1,0.5
			c0,0.3,0.1,0.7,0.1,1.2V26c0,0.5,0,0.9-0.1,1.2c-0.1,0.4-0.1,0.6-0.2,0.8c-0.2,0.3-0.6,0.5-1.1,0.6c-0.1,0-0.3,0-0.4,0h-0.6v0.9
			h7.3v-0.9H23c-0.4,0-0.8-0.1-1.2-0.3c-0.1-0.1-0.2-0.2-0.3-0.2c-0.1-0.1-0.2-0.2-0.2-0.3c-0.1-0.3-0.2-0.9-0.2-1.7V15
			c0-1,0.1-1.7,0.3-1.9c0.3-0.4,0.8-0.6,1.5-0.6h0.6v-0.7L16.3,11.7L16.3,11.7z"/>
		<path class="st1" d="M22.1,15c0-1,0.1-1.7,0.3-1.9c0.3-0.4,0.8-0.6,1.5-0.6h0.6v-0.7h-7.9v0.7h1.1c0.4,0,0.8,0.1,1.2,0.3
			c0.2,0.1,0.3,0.2,0.4,0.3c0.1,0.1,0.1,0.1,0.1,0.2c0.1,0.3,0.2,0.9,0.2,1.7V26c0,0.1,0,0.1,0,0.2c0,0.9-0.1,1.5-0.3,1.8
			c-0.3,0.4-1.1,0.6-1.8,0.6c0,0-0.1,0-0.1,0h-0.6v0.9h7.8v-0.9H24c-0.4,0-0.8-0.1-1.2-0.3c-0.3-0.2-0.4-0.3-0.5-0.5
			c0-0.1-0.1-0.2-0.1-0.4c0-0.3-0.1-0.8-0.1-1.3L22.1,15L22.1,15z"/>
		<path class="st8" d="M21.7,15c0-1,0.1-1.7,0.3-1.9c0.3-0.4,0.8-0.6,1.5-0.6h0.6v-0.5h-7.3v0.5h0.6c0.4,0,0.8,0.1,1.2,0.3
			c0.3,0.2,0.4,0.3,0.5,0.5c0,0,0,0,0,0c0.1,0.3,0.1,0.9,0.1,1.7V26c0,0.2,0,0.4,0,0.6c0,0.7-0.1,1.1-0.3,1.3
			c-0.3,0.4-0.8,0.6-1.4,0.6c0,0-0.1,0-0.1,0h-0.6V29h7.3v-0.5h-0.6c-0.4,0-0.8-0.1-1.2-0.3c-0.3-0.2-0.4-0.3-0.5-0.5c0,0,0,0,0,0
			c-0.1-0.3-0.2-0.9-0.2-1.7L21.7,15L21.7,15z"/>
		<path class="st4" d="M31.7,9.2l-2.3,2.3l-0.7,0.7l-0.6,0.6l-2.4,2.4l-1,1l-1.5,1.5l-1,1l-8.9,8.9l-0.7,0.7l-3.1,3.1
			c-1.3-1.3-2.2-2.8-3-4.4L27.4,6.2C29,7,30.4,8,31.7,9.2z"/>
		<path class="st4" d="M33.8,11.8l-2.3,2.3l-0.7,0.7l-0.6,0.6l-4.3,4.3l-0.4,0.4l-0.5,0.5l-1.5,1.5l-1,1L16,29.5l-0.7,0.7l-0.6,0.6
			l-2.5,2.5c-0.7-0.5-1.5-1-2.1-1.6l3.2-3.1l0.7-0.7l8.4-8.4l1-1l1.5-1.5l1-1l2.6-2.6L32,9.8C32.7,10.4,33.2,11.1,33.8,11.8z"/>
		<path class="st4" d="M35.4,15.2l-2.5,2.5l-0.7,0.7L31.5,19l-5.2,5.2L26,24.6l-0.3,0.3l-1,1l-0.4,0.4l-4.4,4.4l-0.7,0.7l-0.6,0.6
			L15.7,35c-0.8-0.3-1.8-0.6-2.6-1.1l2.8-3l0.6-0.6l4.8-4.8l0,0l1.4-1.4l0.6-0.6l0.4-0.4l1.5-1.5l1-1l4-4.1l3.7-3.7
			C34.5,13.6,35,14.4,35.4,15.2z"/>
		<path class="st4" d="M5.7,26.8c0.6,1.6,1.6,3.2,2.8,4.5l-2.1,2.1c-1.2-1.3-2.2-2.8-3-4.3L5.7,26.8z"/>
		<path class="st4" d="M9,31.8c0.6,0.6,1.3,1.2,2,1.7l-2.1,2.1c-0.7-0.5-1.3-1.1-1.9-1.7L9,31.8C9,31.8,9,31.8,9,31.8z"/>
		<path class="st4" d="M11.9,34.1c0.7,0.4,1.4,0.8,2.2,1.1l-2.3,2.2c-0.7-0.4-1.4-0.8-2-1.2L11.9,34.1z"/>
		<path class="st4" d="M26.4,5.4C28,6,29.5,7,30.9,8.2L33,6.1c-1.3-1.2-2.8-2.2-4.3-3L26.4,5.4z"/>
		<path class="st4" d="M31.5,8.7c0.6,0.6,1.2,1.3,1.7,2l2.1-2.1c-0.5-0.7-1.1-1.3-1.7-1.9L31.5,8.7C31.5,8.7,31.4,8.7,31.5,8.7z"/>
		<path class="st4" d="M33.7,11.6c0.4,0.7,0.8,1.4,1.1,2.2l2.2-2.3c-0.4-0.7-0.8-1.4-1.2-2L33.7,11.6z"/>
	</g>
	<g>
		<path class="st5" d="M1,14.2l19.5,6.3V0C11.4,0,3.7,5.9,1,14.2z"/>
		<path class="st6" d="M20.5,0l0,20.5L40,14.2C37.2,5.5,29.2,0,20.5,0z"/>
		<path class="st6" d="M40,14.2l-19.5,6.3l12.1,16.6C39.9,31.7,42.7,22.4,40,14.2z"/>
		<path class="st6" d="M32.6,37.1L20.5,20.5L8.4,37.1C15.8,42.5,25.6,42.2,32.6,37.1z"/>
		<path class="st5" d="M8.4,37.1l12.1-16.6L1,14.2C-1.8,22.8,1.4,32,8.4,37.1z"/>
	</g>
</g>
</svg>
