<?xml version="1.0" encoding="utf-8"?>
<!-- Generator: Adobe Illustrator 23.0.3, SVG Export Plug-In . SVG Version: 6.00 Build 0)  -->
<svg version="1.1" id="Layer_1" xmlns="http://www.w3.org/2000/svg" xmlns:xlink="http://www.w3.org/1999/xlink" x="0px" y="0px"
	 viewBox="0 0 41 41" style="enable-background:new 0 0 41 41;" xml:space="preserve">
<style type="text/css">
	.st0{fill:#BDBDBD;stroke:#FFFFFF;stroke-miterlimit:10;}
	.st1{fill:#FFFFFF;}
	.st2{opacity:0.25;enable-background:new    ;}
	.st3{fill:#BDBDBD;}
	.st4{opacity:0.15;fill:#FFFFFF;enable-background:new    ;}
	.st5{opacity:0.8;fill:#FFFFFF;}
	.st6{fill:none;}
	.st7{fill:#DA9F65;stroke:#FFFFFF;stroke-miterlimit:10;}
	.st8{fill:#DA9F65;}
	.st9{fill:#FFCC0C;stroke:#FFFFFF;stroke-miterlimit:10;}
	.st10{fill:#FFCC0C;}
</style>
<g>
	<path class="st7" d="M40.8,20.7c0,10.8-8.7,19.5-19.5,19.5c-3.2,0-6.2-0.8-8.8-2.1c-0.8-0.4-1.6-0.9-2.3-1.4
		c-0.3-0.2-0.5-0.4-0.8-0.6C8.6,35.6,8,35,7.4,34.4C7.2,34.2,7,34,6.9,33.9c-1.2-1.3-2.2-2.8-3-4.3c-1.4-2.7-2.1-5.7-2.1-8.8
		c0-10.8,8.7-19.5,19.5-19.5c3.2,0,6.2,0.8,8.8,2.1c1.6,0.8,3,1.8,4.3,3c0.2,0.2,0.4,0.3,0.5,0.5c0.6,0.6,1.2,1.3,1.7,1.9
		c0.2,0.3,0.4,0.5,0.6,0.8c0.5,0.7,1,1.5,1.4,2.3C40,14.5,40.8,17.5,40.8,20.7z"/>
	<path class="st1" d="M21.9,35.1c8.4,0,15.2-6.8,15.2-15.2c0-8.4-6.8-15.2-15.2-15.2c-8.4,0-15.2,6.8-15.2,15.2
		C6.7,28.3,13.5,35.1,21.9,35.1z"/>
	<path class="st2" d="M20.6,36.5c8.4,0,15.2-6.8,15.2-15.2S29,6,20.6,6C12.2,6,5.3,12.8,5.3,21.3S12.2,36.5,20.6,36.5z"/>
	<path class="st8" d="M36.5,20.7c0,8.4-6.8,15.3-15.3,15.3c-2.5,0-4.8-0.6-6.9-1.7c-0.6-0.3-1.2-0.7-1.8-1.1
		c-0.2-0.1-0.4-0.3-0.6-0.5c-0.5-0.4-1.1-0.9-1.5-1.4c-0.1-0.1-0.3-0.3-0.4-0.4c-0.9-1-1.7-2.2-2.4-3.4C6.5,25.5,6,23.2,6,20.7
		c0-8.4,6.8-15.3,15.3-15.3c2.5,0,4.8,0.6,6.9,1.7c1.2,0.6,2.4,1.4,3.4,2.4c0.1,0.1,0.3,0.3,0.4,0.4c0.5,0.5,0.9,1,1.4,1.5
		c0.2,0.2,0.3,0.4,0.5,0.6c0.4,0.6,0.8,1.2,1.1,1.8C35.9,15.8,36.5,18.2,36.5,20.7z"/>
	<path class="st2" d="M17.1,11.9v0.7h0.6c0.4,0,0.8,0.1,1.2,0.3c0.3,0.2,0.4,0.3,0.5,0.5c0,0.1,0.1,0.3,0.1,0.5
		c0,0.3,0.1,0.7,0.1,1.2v11.1c0,0.5,0,0.9-0.1,1.2c-0.1,0.4-0.1,0.6-0.2,0.8c-0.2,0.3-0.6,0.5-1.1,0.6c-0.1,0-0.3,0-0.4,0h-0.6v0.9
		h7.3v-0.9h-0.6c-0.4,0-0.8-0.1-1.2-0.3c-0.1-0.1-0.2-0.2-0.3-0.2c-0.1-0.1-0.2-0.2-0.2-0.3c-0.1-0.3-0.2-0.9-0.2-1.7v-11
		c0-1,0.1-1.7,0.3-1.9c0.3-0.4,0.8-0.6,1.5-0.6h0.6v-0.7L17.1,11.9L17.1,11.9z"/>
	<path class="st1" d="M22.9,15.2c0-1,0.1-1.7,0.3-1.9c0.3-0.4,0.8-0.6,1.5-0.6h0.6v-0.7h-7.9v0.7h1.1c0.4,0,0.8,0.1,1.2,0.3
		c0.2,0.1,0.3,0.2,0.4,0.3c0.1,0.1,0.1,0.1,0.1,0.2c0.1,0.3,0.2,0.9,0.2,1.7v11.1c0,0.1,0,0.1,0,0.2c0,0.9-0.1,1.5-0.3,1.8
		c-0.3,0.4-1.1,0.6-1.8,0.6c0,0-0.1,0-0.1,0h-0.6v0.9h7.8v-0.9h-0.6c-0.4,0-0.8-0.1-1.2-0.3c-0.3-0.2-0.4-0.3-0.5-0.5
		c0-0.1-0.1-0.2-0.1-0.4c0-0.3-0.1-0.8-0.1-1.3L22.9,15.2L22.9,15.2z"/>
	<path class="st8" d="M22.4,15.2c0-1,0.1-1.7,0.3-1.9c0.3-0.4,0.8-0.6,1.5-0.6h0.6v-0.5h-7.3v0.5h0.6c0.4,0,0.8,0.1,1.2,0.3
		c0.3,0.2,0.4,0.3,0.5,0.5c0,0,0,0,0,0c0.1,0.3,0.1,0.9,0.1,1.7v11.1c0,0.2,0,0.4,0,0.6c0,0.7-0.1,1.1-0.3,1.3
		c-0.3,0.4-0.8,0.6-1.4,0.6c0,0-0.1,0-0.1,0h-0.6v0.5h7.3v-0.5h-0.6c-0.4,0-0.8-0.1-1.2-0.3c-0.3-0.2-0.4-0.3-0.5-0.5c0,0,0,0,0,0
		c-0.1-0.3-0.2-0.9-0.2-1.7L22.4,15.2L22.4,15.2z"/>
	<path class="st4" d="M32.5,9.3l-2.3,2.3l-0.7,0.7L28.8,13l-2.4,2.4l-1,1L24,17.8l-1,1l-8.9,8.9l-0.7,0.7l-3.1,3.1
		c-1.3-1.3-2.2-2.8-3-4.4L28.1,6.3C29.7,7.1,31.2,8.2,32.5,9.3z"/>
	<path class="st4" d="M34.5,12l-2.3,2.3L31.5,15l-0.6,0.6L26.5,20l-0.4,0.4l-0.5,0.5l-1.5,1.5l-1,1l-6.4,6.4L16,30.4l-0.6,0.6
		L13,33.5c-0.7-0.5-1.5-1-2.1-1.6l3.2-3.1l0.7-0.7l8.4-8.4l1-1l1.5-1.5l1-1l2.6-2.6l3.7-3.7C33.4,10.6,34,11.3,34.5,12z"/>
	<path class="st4" d="M36.2,15.3l-2.5,2.5l-0.7,0.7l-0.6,0.6l-5.2,5.2l-0.3,0.3l-0.3,0.3l-1,1L25,26.6L20.6,31l-0.7,0.7l-0.6,0.6
		l-2.8,2.9c-0.8-0.3-1.8-0.6-2.6-1.1l2.8-3l0.6-0.6l4.8-4.8l0,0l1.4-1.4l0.6-0.6l0.4-0.4l1.5-1.5l1-1l4-4.1l3.7-3.7
		C35.3,13.8,35.8,14.5,36.2,15.3z"/>
	<path class="st4" d="M6.4,26.9c0.6,1.6,1.6,3.2,2.8,4.5l-2.1,2.1c-1.2-1.3-2.2-2.8-3-4.3L6.4,26.9z"/>
	<path class="st4" d="M9.8,32c0.6,0.6,1.3,1.2,2,1.7l-2.1,2.1c-0.7-0.5-1.3-1.1-1.9-1.7L9.8,32C9.8,32,9.8,32,9.8,32z"/>
	<path class="st4" d="M12.7,34.3c0.7,0.4,1.4,0.8,2.2,1.1l-2.3,2.2c-0.7-0.4-1.4-0.8-2-1.2L12.7,34.3z"/>
	<path class="st4" d="M27.1,5.5c1.6,0.6,3.2,1.6,4.5,2.8l2.1-2.1c-1.3-1.2-2.8-2.2-4.3-3L27.1,5.5z"/>
	<path class="st4" d="M32.2,8.9c0.6,0.6,1.2,1.3,1.7,2L36,8.8c-0.5-0.7-1.1-1.3-1.7-1.9L32.2,8.9C32.2,8.9,32.2,8.9,32.2,8.9z"/>
	<path class="st4" d="M34.5,11.8c0.4,0.7,0.8,1.4,1.1,2.2l2.2-2.3c-0.4-0.7-0.8-1.4-1.2-2L34.5,11.8z"/>
</g>
</svg>
