<?xml version="1.0" encoding="utf-8"?>
<!-- Generator: Adobe Illustrator 23.0.3, SVG Export Plug-In . SVG Version: 6.00 Build 0)  -->
<svg version="1.1" id="Layer_1" xmlns="http://www.w3.org/2000/svg" xmlns:xlink="http://www.w3.org/1999/xlink" x="0px" y="0px"
	 viewBox="0 0 41 41" style="enable-background:new 0 0 41 41;" xml:space="preserve">
<style type="text/css">
	.st0{fill:#BDBDBD;stroke:#FFFFFF;stroke-miterlimit:10;}
	.st1{fill:#FFFFFF;}
	.st2{opacity:0.25;enable-background:new    ;}
	.st3{fill:#BDBDBD;}
	.st4{opacity:0.15;fill:#FFFFFF;enable-background:new    ;}
	.st5{opacity:0.8;fill:#FFFFFF;}
	.st6{fill:none;}
	.st7{fill:#DA9F65;stroke:#FFFFFF;stroke-miterlimit:10;}
	.st8{fill:#DA9F65;}
	.st9{fill:#FFCC0C;stroke:#FFFFFF;stroke-miterlimit:10;}
	.st10{fill:#FFCC0C;}
</style>
<g>
	<path class="st9" d="M40,20.5C40,31.3,31.3,40,20.5,40c-3.2,0-6.2-0.8-8.8-2.1c-0.8-0.4-1.6-0.9-2.3-1.4c-0.3-0.2-0.5-0.4-0.8-0.6
		c-0.7-0.5-1.3-1.1-1.9-1.7c-0.2-0.2-0.3-0.4-0.5-0.5c-1.2-1.3-2.2-2.8-3-4.3C1.7,26.7,1,23.7,1,20.5C1,9.7,9.7,1,20.5,1
		c3.2,0,6.2,0.8,8.8,2.1c1.6,0.8,3,1.8,4.3,3c0.2,0.2,0.4,0.3,0.5,0.5c0.6,0.6,1.2,1.3,1.7,1.9c0.2,0.3,0.4,0.5,0.6,0.8
		c0.5,0.7,1,1.5,1.4,2.3C39.2,14.3,40,17.3,40,20.5z"/>
	<path class="st1" d="M21.2,35c8.4,0,15.2-6.8,15.2-15.2c0-8.4-6.8-15.2-15.2-15.2c-8.4,0-15.2,6.8-15.2,15.2
		C5.9,28.1,12.8,35,21.2,35z"/>
	<path class="st2" d="M19.8,36.3c8.4,0,15.2-6.8,15.2-15.2c0-8.4-6.8-15.2-15.2-15.2c-8.4,0-15.2,6.8-15.2,15.2
		C4.6,29.5,11.4,36.3,19.8,36.3z"/>
	<path class="st10" d="M35.8,20.5c0,8.4-6.8,15.3-15.3,15.3c-2.5,0-4.8-0.6-6.9-1.7c-0.6-0.3-1.2-0.7-1.8-1.1
		c-0.2-0.1-0.4-0.3-0.6-0.5c-0.5-0.4-1.1-0.9-1.5-1.4c-0.1-0.1-0.3-0.3-0.4-0.4c-0.9-1-1.7-2.2-2.4-3.4c-1.1-2.1-1.7-4.4-1.7-6.9
		c0-8.4,6.8-15.3,15.3-15.3c2.5,0,4.8,0.6,6.9,1.7c1.2,0.6,2.4,1.4,3.4,2.4c0.1,0.1,0.3,0.3,0.4,0.4c0.5,0.5,0.9,1,1.4,1.5
		c0.2,0.2,0.3,0.4,0.5,0.6c0.4,0.6,0.8,1.2,1.1,1.8C35.2,15.7,35.8,18,35.8,20.5z"/>
	<path class="st2" d="M9.5,13.5V14H10c0.3,0,0.6,0.1,0.9,0.2c0.2,0.1,0.3,0.3,0.4,0.4c0,0.1,0.1,0.2,0.1,0.4c0,0.2,0,0.6,0,1v8.6
		c0,0.4,0,0.7,0,0.9c0,0.3-0.1,0.5-0.2,0.6c-0.2,0.2-0.5,0.4-0.9,0.5c-0.1,0-0.2,0-0.3,0H9.5v0.7h5.7v-0.7h-0.5
		c-0.3,0-0.6-0.1-0.9-0.2c-0.1-0.1-0.2-0.1-0.3-0.2s-0.1-0.1-0.1-0.2c-0.1-0.2-0.1-0.7-0.1-1.3V16c0-0.8,0.1-1.3,0.2-1.5
		c0.2-0.3,0.6-0.5,1.2-0.5h0.5v-0.5L9.5,13.5L9.5,13.5z"/>
	<path class="st1" d="M14,16c0-0.8,0.1-1.3,0.2-1.5c0.2-0.3,0.6-0.5,1.2-0.5h0.5v-0.5H9.8V14h0.9c0.3,0,0.6,0.1,0.9,0.2
		c0.1,0.1,0.2,0.1,0.3,0.2c0,0.1,0.1,0.1,0.1,0.2c0.1,0.2,0.1,0.7,0.1,1.3v8.6c0,0,0,0.1,0,0.1c0,0.7-0.1,1.2-0.2,1.4
		c-0.2,0.3-0.9,0.5-1.4,0.5c0,0-0.1,0-0.1,0H9.9v0.7h6v-0.7h-0.5c-0.3,0-0.6-0.1-0.9-0.2c-0.2-0.1-0.3-0.3-0.4-0.4
		c0-0.1,0-0.2-0.1-0.3c0-0.2-0.1-0.6-0.1-1L14,16L14,16z"/>
	<path class="st10" d="M13.7,16c0-0.8,0.1-1.3,0.2-1.5c0.2-0.3,0.6-0.5,1.2-0.5h0.5v-0.4H9.9V14h0.5c0.3,0,0.6,0.1,0.9,0.2
		c0.2,0.1,0.3,0.3,0.4,0.4c0,0,0,0,0,0c0.1,0.2,0.1,0.7,0.1,1.3v8.6c0,0.2,0,0.3,0,0.5c0,0.5-0.1,0.9-0.2,1
		c-0.2,0.3-0.6,0.5-1.1,0.5c0,0-0.1,0-0.1,0H9.9v0.4h5.7v-0.4h-0.5c-0.3,0-0.6-0.1-0.9-0.2c-0.2-0.1-0.3-0.3-0.4-0.4c0,0,0,0,0,0
		c-0.1-0.2-0.1-0.7-0.1-1.3L13.7,16L13.7,16z"/>
	<path class="st2" d="M17.2,13.5V14h0.5c0.3,0,0.6,0.1,0.9,0.2c0.2,0.1,0.3,0.3,0.4,0.4c0,0.1,0.1,0.2,0.1,0.4c0,0.2,0,0.6,0,1v8.6
		c0,0.4,0,0.7,0,0.9c0,0.3-0.1,0.5-0.2,0.6c-0.2,0.2-0.5,0.4-0.9,0.5c-0.1,0-0.2,0-0.3,0h-0.5v0.7h5.7v-0.7h-0.5
		c-0.3,0-0.6-0.1-0.9-0.2c-0.1-0.1-0.2-0.1-0.3-0.2c-0.1-0.1-0.1-0.1-0.1-0.2C21,25.7,21,25.2,21,24.6V16c0-0.8,0.1-1.3,0.2-1.5
		c0.2-0.3,0.6-0.5,1.2-0.5h0.5v-0.5L17.2,13.5L17.2,13.5z"/>
	<path class="st1" d="M21.7,16c0-0.8,0.1-1.3,0.2-1.5c0.2-0.3,0.6-0.5,1.2-0.5h0.5v-0.5h-6.1V14h0.9c0.3,0,0.6,0.1,0.9,0.2
		c0.1,0.1,0.2,0.1,0.3,0.2c0,0.1,0.1,0.1,0.1,0.2c0.1,0.2,0.1,0.7,0.1,1.3v8.6c0,0,0,0.1,0,0.1c0,0.7-0.1,1.2-0.2,1.4
		c-0.2,0.3-0.9,0.5-1.4,0.5c0,0-0.1,0-0.1,0h-0.5v0.7h6v-0.7h-0.5c-0.3,0-0.6-0.1-0.9-0.2c-0.2-0.1-0.3-0.3-0.4-0.4
		c0-0.1,0-0.2-0.1-0.3c0-0.2-0.1-0.6-0.1-1L21.7,16L21.7,16z"/>
	<path class="st10" d="M21.4,16c0-0.8,0.1-1.3,0.2-1.5c0.2-0.3,0.6-0.5,1.2-0.5h0.5v-0.4h-5.7V14h0.5c0.3,0,0.6,0.1,0.9,0.2
		c0.2,0.1,0.3,0.3,0.4,0.4c0,0,0,0,0,0c0.1,0.2,0.1,0.7,0.1,1.3v8.6c0,0.2,0,0.3,0,0.5c0,0.5-0.1,0.9-0.2,1
		c-0.2,0.3-0.6,0.5-1.1,0.5c0,0-0.1,0-0.1,0h-0.5v0.4h5.7v-0.4h-0.5c-0.3,0-0.6-0.1-0.9-0.2c-0.2-0.1-0.3-0.3-0.4-0.4c0,0,0,0,0,0
		c-0.1-0.2-0.1-0.7-0.1-1.3L21.4,16L21.4,16z"/>
	<path class="st2" d="M25,13.5V14h0.5c0.3,0,0.6,0.1,0.9,0.2c0.2,0.1,0.3,0.3,0.4,0.4c0,0.1,0.1,0.2,0.1,0.4c0,0.2,0,0.6,0,1v8.6
		c0,0.4,0,0.7,0,0.9c0,0.3-0.1,0.5-0.2,0.6c-0.2,0.2-0.5,0.4-0.9,0.5c-0.1,0-0.2,0-0.3,0H25v0.7h5.7v-0.7h-0.5
		c-0.3,0-0.6-0.1-0.9-0.2c-0.1-0.1-0.2-0.1-0.3-0.2c-0.1-0.1-0.1-0.1-0.1-0.2c-0.1-0.2-0.1-0.7-0.1-1.3V16c0-0.8,0.1-1.3,0.2-1.5
		c0.2-0.3,0.6-0.5,1.2-0.5h0.5v-0.5L25,13.5L25,13.5z"/>
	<path class="st1" d="M29.5,16c0-0.8,0.1-1.3,0.2-1.5c0.2-0.3,0.6-0.5,1.2-0.5h0.5v-0.5h-6.1V14h0.9c0.3,0,0.6,0.1,0.9,0.2
		c0.1,0.1,0.2,0.1,0.3,0.2c0,0.1,0.1,0.1,0.1,0.2c0.1,0.2,0.1,0.7,0.1,1.3v8.6c0,0,0,0.1,0,0.1c0,0.7-0.1,1.2-0.2,1.4
		c-0.2,0.3-0.9,0.5-1.4,0.5c0,0-0.1,0-0.1,0h-0.5v0.7h6v-0.7h-0.5c-0.3,0-0.6-0.1-0.9-0.2c-0.2-0.1-0.3-0.3-0.4-0.4
		c0-0.1,0-0.2-0.1-0.3c0-0.2-0.1-0.6-0.1-1L29.5,16L29.5,16z"/>
	<path class="st10" d="M29.2,16c0-0.8,0.1-1.3,0.2-1.5c0.2-0.3,0.6-0.5,1.2-0.5h0.5v-0.4h-5.7V14h0.5c0.3,0,0.6,0.1,0.9,0.2
		c0.2,0.1,0.3,0.3,0.4,0.4c0,0,0,0,0,0c0.1,0.2,0.1,0.7,0.1,1.3v8.6c0,0.2,0,0.3,0,0.5c0,0.5-0.1,0.9-0.2,1
		c-0.2,0.3-0.6,0.5-1.1,0.5c0,0-0.1,0-0.1,0h-0.5v0.4h5.7v-0.4h-0.5c-0.3,0-0.6-0.1-0.9-0.2c-0.2-0.1-0.3-0.3-0.4-0.4c0,0,0,0,0,0
		c-0.1-0.2-0.1-0.7-0.1-1.3L29.2,16L29.2,16z"/>
	<path class="st4" d="M31.7,9.2l-2.3,2.3l-0.7,0.7l-0.6,0.6l-2.4,2.4l-1,1l-1.5,1.5l-1,1l-8.9,8.9l-0.7,0.7l-3.1,3.1
		c-1.3-1.3-2.2-2.8-3-4.4L27.4,6.2C29,7,30.4,8,31.7,9.2z"/>
	<path class="st4" d="M33.8,11.8l-2.3,2.3l-0.7,0.7l-0.6,0.6l-4.3,4.3l-0.4,0.4l-0.5,0.5l-1.5,1.5l-1,1L16,29.5l-0.7,0.7l-0.6,0.6
		l-2.5,2.5c-0.7-0.5-1.5-1-2.1-1.6l3.2-3.1l0.7-0.7l8.4-8.4l1-1l1.5-1.5l1-1l2.6-2.6L32,9.8C32.7,10.4,33.2,11.1,33.8,11.8z"/>
	<path class="st4" d="M35.4,15.2l-2.5,2.5l-0.7,0.7L31.5,19l-5.2,5.2L26,24.6l-0.3,0.3l-1,1l-0.4,0.4l-4.4,4.4l-0.7,0.7l-0.6,0.6
		L15.7,35c-0.8-0.3-1.8-0.6-2.6-1.1l2.8-3l0.6-0.6l4.8-4.8l0,0l1.4-1.4l0.6-0.6l0.4-0.4l1.5-1.5l1-1l4-4.1l3.7-3.7
		C34.5,13.6,35,14.4,35.4,15.2z"/>
	<path class="st4" d="M5.7,26.8c0.6,1.6,1.6,3.2,2.8,4.5l-2.1,2.1c-1.2-1.3-2.2-2.8-3-4.3L5.7,26.8z"/>
	<path class="st4" d="M9,31.8c0.6,0.6,1.3,1.2,2,1.7l-2.1,2.1c-0.7-0.5-1.3-1.1-1.9-1.7L9,31.8C9,31.8,9,31.8,9,31.8z"/>
	<path class="st4" d="M26.4,5.4C28,6,29.5,7,30.9,8.2L33,6.1c-1.3-1.2-2.8-2.2-4.3-3L26.4,5.4z"/>
	<path class="st4" d="M31.5,8.7c0.6,0.6,1.2,1.3,1.7,2l2.1-2.1c-0.5-0.7-1.1-1.3-1.7-1.9L31.5,8.7C31.4,8.7,31.5,8.7,31.5,8.7z"/>
	<path class="st4" d="M33.7,11.6c0.4,0.7,0.8,1.4,1.1,2.2l2.2-2.3c-0.4-0.7-0.8-1.4-1.2-2L33.7,11.6z"/>
</g>
</svg>
